<svg width="86" height="86" viewBox="0 0 86 86" fill="none" xmlns="http://www.w3.org/2000/svg">
<g clip-path="url(#clip0_1_26)">
<path d="M0.839996 31.5166C0.839996 20.796 0.839996 15.4356 2.92675 11.3418C4.76187 7.74014 7.69012 4.81189 11.2918 2.97676C15.3856 0.890015 20.7459 0.890015 31.4666 0.890015H55.2134C65.9341 0.890015 71.2944 0.890015 75.3882 2.97676C78.9899 4.81189 81.9181 7.74014 83.7532 11.3418C85.84 15.4356 85.84 20.796 85.84 31.5166V55.2635C85.84 65.9841 85.84 71.3444 83.7532 75.4382C81.9181 79.0399 78.9899 81.9681 75.3882 83.8033C71.2944 85.89 65.9341 85.89 55.2134 85.89H31.4666C20.7459 85.89 15.3856 85.89 11.2918 83.8033C7.69012 81.9681 4.76187 79.0399 2.92675 75.4382C0.839996 71.3444 0.839996 65.9841 0.839996 55.2635V31.5166Z" fill="#D7D6CD"/>
<path d="M38.9444 69.9026C53.8046 69.9026 66.0339 57.6732 66.0339 42.8131C66.0339 27.9529 53.8046 15.6949 38.9444 15.6949C24.0843 15.6949 11.8549 27.9529 11.8549 42.8131C11.8549 57.6732 24.0843 69.9026 38.9444 69.9026ZM38.9444 51.8911C30.1554 51.8911 23.535 55.6502 21.1359 59.1766C17.0332 54.7165 14.7619 48.8742 14.7747 42.8141C14.7747 29.4277 25.5591 18.6157 38.9444 18.6157C52.3298 18.6157 63.1429 29.4277 63.1429 42.8131C63.151 48.8865 60.8694 54.7397 56.753 59.2053C54.3826 55.6502 47.7621 51.8911 38.9444 51.8911ZM38.9444 47.2076C44.1772 47.2363 48.2243 42.7557 48.2243 36.9438C48.2243 31.4804 44.1188 26.8841 38.9444 26.8841C33.7701 26.8841 29.6348 31.4804 29.6932 36.9449C29.6932 42.7557 33.7116 47.1789 38.9444 47.2086V47.2076Z" fill="#A7A29B"/>
<mask id="mask0_1_26" style="mask-type:alpha" maskUnits="userSpaceOnUse" x="76" y="3" width="10" height="81">
<path d="M76.1574 3.04156H85.8411V83.7374H76.1574V3.04156Z" fill="#C4C4C4"/>
</mask>
<g mask="url(#mask0_1_26)">
<mask id="mask1_1_26" style="mask-type:alpha" maskUnits="userSpaceOnUse" x="0" y="0" width="86" height="86">
<path d="M0.839996 31.5166C0.839996 20.796 0.839996 15.4356 2.92675 11.3418C4.76187 7.74014 7.69012 4.81189 11.2918 2.97676C15.3856 0.890015 20.7459 0.890015 31.4666 0.890015H55.2134C65.9341 0.890015 71.2944 0.890015 75.3882 2.97676C78.9899 4.81189 81.9181 7.74014 83.7532 11.3418C85.84 15.4356 85.84 20.796 85.84 31.5166V55.2635C85.84 65.9841 85.84 71.3444 83.7532 75.4382C81.9181 79.0399 78.9899 81.9681 75.3882 83.8033C71.2944 85.89 65.9341 85.89 55.2134 85.89H31.4666C20.7459 85.89 15.3856 85.89 11.2918 83.8033C7.69012 81.9681 4.76187 79.0399 2.92675 75.4382C0.839996 71.3444 0.839996 65.9841 0.839996 55.2635V31.5166Z" fill="#D7D6CD"/>
</mask>
<g mask="url(#mask1_1_26)">
<path d="M85.84 42.8524H76.1574V63.2949H85.84V42.8524Z" fill="#F09A37"/>
<path opacity="0.3" d="M72.9285 42.8524H80.4606V63.296H72.9285V42.8524Z" fill="url(#paint0_linear_1_26)"/>
<path opacity="0.3" d="M85.84 42.8524V47.1566H76.1564V42.8524H85.84Z" fill="url(#paint1_linear_1_26)" fill-opacity="0.68"/>
</g>
<mask id="mask2_1_26" style="mask-type:alpha" maskUnits="userSpaceOnUse" x="69" y="63" width="17" height="23">
<path d="M85.84 63.2949H69.7006V85.89H85.84V63.2949Z" fill="#FF9443"/>
</mask>
<g mask="url(#mask2_1_26)">
<path d="M0.839996 31.5166C0.839996 20.796 0.839996 15.4356 2.92675 11.3418C4.76187 7.74014 7.69012 4.81189 11.2918 2.97676C15.3856 0.890015 20.7459 0.890015 31.4666 0.890015H55.2134C65.9341 0.890015 71.2944 0.890015 75.3882 2.97676C78.9899 4.81189 81.9181 7.74014 83.7532 11.3418C85.84 15.4356 85.84 20.796 85.84 31.5166V55.2635C85.84 65.9841 85.84 71.3444 83.7532 75.4382C81.9181 79.0399 78.9899 81.9681 75.3882 83.8033C71.2944 85.89 65.9341 85.89 55.2134 85.89H31.4666C20.7459 85.89 15.3856 85.89 11.2918 83.8033C7.69012 81.9681 4.76187 79.0399 2.92675 75.4382C0.839996 71.3444 0.839996 65.9841 0.839996 55.2635V31.5166Z" fill="#76D671"/>
<mask id="mask3_1_26" style="mask-type:alpha" maskUnits="userSpaceOnUse" x="0" y="0" width="86" height="86">
<path d="M0.839996 31.5166C0.839996 20.796 0.839996 15.4356 2.92675 11.3418C4.76187 7.74014 7.69012 4.81189 11.2918 2.97676C15.3856 0.890015 20.7459 0.890015 31.4666 0.890015H55.2134C65.9341 0.890015 71.2944 0.890015 75.3882 2.97676C78.9899 4.81189 81.9181 7.74014 83.7532 11.3418C85.84 15.4356 85.84 20.796 85.84 31.5166V55.2635C85.84 65.9841 85.84 71.3444 83.7532 75.4382C81.9181 79.0399 78.9899 81.9681 75.3882 83.8033C71.2944 85.89 65.9341 85.89 55.2134 85.89H31.4666C20.7459 85.89 15.3856 85.89 11.2918 83.8033C7.69012 81.9681 4.76187 79.0399 2.92675 75.4382C0.839996 71.3444 0.839996 65.9841 0.839996 55.2635V31.5166Z" fill="#76D671"/>
</mask>
<g mask="url(#mask3_1_26)">
<path opacity="0.3" d="M72.9285 63.2949H80.4606V85.89H72.9285V63.2949Z" fill="url(#paint2_linear_1_26)"/>
<path opacity="0.3" d="M85.84 63.2949V66.5228H65.3964V63.2949H85.84Z" fill="url(#paint3_linear_1_26)" fill-opacity="0.68"/>
</g>
</g>
<mask id="mask4_1_26" style="mask-type:alpha" maskUnits="userSpaceOnUse" x="0" y="0" width="86" height="86">
<path d="M0.839996 31.5166C0.839996 20.796 0.839996 15.4356 2.92675 11.3418C4.76187 7.74014 7.69012 4.81189 11.2918 2.97676C15.3856 0.890015 20.7459 0.890015 31.4666 0.890015H55.2134C65.9341 0.890015 71.2944 0.890015 75.3882 2.97676C78.9899 4.81189 81.9181 7.74014 83.7532 11.3418C85.84 15.4356 85.84 20.796 85.84 31.5166V55.2635C85.84 65.9841 85.84 71.3444 83.7532 75.4382C81.9181 79.0399 78.9899 81.9681 75.3882 83.8033C71.2944 85.89 65.9341 85.89 55.2134 85.89H31.4666C20.7459 85.89 15.3856 85.89 11.2918 83.8033C7.69012 81.9681 4.76187 79.0399 2.92675 75.4382C0.839996 71.3444 0.839996 65.9841 0.839996 55.2635V31.5166Z" fill="#D7D6CD"/>
</mask>
<g mask="url(#mask4_1_26)">
<path d="M85.84 22.4088H76.1574V42.8513H85.84V22.4088Z" fill="#77C5F5"/>
<path opacity="0.3" d="M72.9285 22.4088H80.4606V42.8524H72.9285V22.4088Z" fill="url(#paint4_linear_1_26)"/>
<path opacity="0.3" d="M85.84 22.4088V25.6367H65.3964V22.4088H85.84Z" fill="url(#paint5_linear_1_26)" fill-opacity="0.68"/>
</g>
<mask id="mask5_1_26" style="mask-type:alpha" maskUnits="userSpaceOnUse" x="0" y="0" width="86" height="86">
<path d="M0.839996 31.5166C0.839996 20.796 0.839996 15.4356 2.92675 11.3418C4.76187 7.74014 7.69012 4.81189 11.2918 2.97676C15.3856 0.890015 20.7459 0.890015 31.4666 0.890015H55.2134C65.9341 0.890015 71.2944 0.890015 75.3882 2.97676C78.9899 4.81189 81.9181 7.74014 83.7532 11.3418C85.84 15.4356 85.84 20.796 85.84 31.5166V55.2635C85.84 65.9841 85.84 71.3444 83.7532 75.4382C81.9181 79.0399 78.9899 81.9681 75.3882 83.8033C71.2944 85.89 65.9341 85.89 55.2134 85.89H31.4666C20.7459 85.89 15.3856 85.89 11.2918 83.8033C7.69012 81.9681 4.76187 79.0399 2.92675 75.4382C0.839996 71.3444 0.839996 65.9841 0.839996 55.2635V31.5166Z" fill="#D7D6CD"/>
</mask>
<g mask="url(#mask5_1_26)">
<path d="M76.1574 3.04156H94.4484V22.4088H76.1574V3.04156Z" fill="#C4C4C4"/>
<path opacity="0.3" d="M72.9285 3.04156H80.4606V22.4088H72.9285V3.04156Z" fill="url(#paint6_linear_1_26)"/>
</g>
</g>
</g>
<defs>
<linearGradient id="paint0_linear_1_26" x1="72.9285" y1="53.0737" x2="79.669" y2="53.0737" gradientUnits="userSpaceOnUse">
<stop/>
<stop offset="1" stop-opacity="0"/>
</linearGradient>
<linearGradient id="paint1_linear_1_26" x1="80.9982" y1="42.8524" x2="80.9982" y2="46.705" gradientUnits="userSpaceOnUse">
<stop/>
<stop offset="1" stop-opacity="0"/>
</linearGradient>
<linearGradient id="paint2_linear_1_26" x1="72.9285" y1="74.5925" x2="79.669" y2="74.5925" gradientUnits="userSpaceOnUse">
<stop/>
<stop offset="1" stop-opacity="0"/>
</linearGradient>
<linearGradient id="paint3_linear_1_26" x1="75.6187" y1="63.2949" x2="75.6187" y2="66.1839" gradientUnits="userSpaceOnUse">
<stop/>
<stop offset="1" stop-opacity="0"/>
</linearGradient>
<linearGradient id="paint4_linear_1_26" x1="72.9285" y1="32.6301" x2="79.669" y2="32.6301" gradientUnits="userSpaceOnUse">
<stop/>
<stop offset="1" stop-opacity="0"/>
</linearGradient>
<linearGradient id="paint5_linear_1_26" x1="75.6187" y1="22.4088" x2="75.6187" y2="25.2978" gradientUnits="userSpaceOnUse">
<stop/>
<stop offset="1" stop-opacity="0"/>
</linearGradient>
<linearGradient id="paint6_linear_1_26" x1="72.9285" y1="12.7252" x2="79.669" y2="12.7252" gradientUnits="userSpaceOnUse">
<stop/>
<stop offset="1" stop-opacity="0"/>
</linearGradient>
<clipPath id="clip0_1_26">
<rect width="85" height="85" fill="white" transform="translate(0.839996 0.890015)"/>
</clipPath>
</defs>
</svg>
