<svg width="97" height="97" viewBox="0 0 97 97" fill="none" xmlns="http://www.w3.org/2000/svg">
<g filter="url(#filter0_d_1_25)">
<g clip-path="url(#clip0_1_25)">
<rect x="5.84" y="1.89001" width="85" height="85" rx="22" fill="white" fill-opacity="0.01" shape-rendering="crispEdges"/>
<g clip-path="url(#clip1_1_25)">
<path d="M5.84 32.5166C5.84 21.796 5.84 16.4356 7.92675 12.3418C9.76187 8.74014 12.6901 5.81189 16.2918 3.97676C20.3856 1.89001 25.7459 1.89001 36.4666 1.89001H60.2134C70.9341 1.89001 76.2944 1.89001 80.3882 3.97676C83.9899 5.81189 86.9181 8.74014 88.7532 12.3418C90.84 16.4356 90.84 21.796 90.84 32.5166V56.2635C90.84 66.9841 90.84 72.3444 88.7532 76.4382C86.9181 80.0399 83.9899 82.9681 80.3882 84.8033C76.2944 86.89 70.9341 86.89 60.2134 86.89H36.4666C25.7459 86.89 20.3856 86.89 16.2918 84.8033C12.6901 82.9681 9.76187 80.0399 7.92675 76.4382C5.84 72.3444 5.84 66.9841 5.84 56.2635V32.5166Z" fill="#D7D6CD"/>
<path d="M43.9444 70.9026C58.8046 70.9026 71.0339 58.6732 71.0339 43.8131C71.0339 28.9529 58.8046 16.6949 43.9444 16.6949C29.0843 16.6949 16.8549 28.9529 16.8549 43.8131C16.8549 58.6732 29.0843 70.9026 43.9444 70.9026ZM43.9444 52.8911C35.1554 52.8911 28.535 56.6502 26.1359 60.1766C22.0332 55.7165 19.7619 49.8742 19.7747 43.8141C19.7747 30.4277 30.5591 19.6157 43.9444 19.6157C57.3298 19.6157 68.1429 30.4277 68.1429 43.8131C68.151 49.8865 65.8694 55.7397 61.753 60.2053C59.3826 56.6502 52.7621 52.8911 43.9444 52.8911ZM43.9444 48.2076C49.1772 48.2363 53.2243 43.7557 53.2243 37.9438C53.2243 32.4804 49.1188 27.8841 43.9444 27.8841C38.7701 27.8841 34.6348 32.4804 34.6932 37.9449C34.6932 43.7557 38.7116 48.1789 43.9444 48.2086V48.2076Z" fill="#A7A29B"/>
<mask id="mask0_1_25" style="mask-type:alpha" maskUnits="userSpaceOnUse" x="81" y="4" width="10" height="81">
<path d="M81.1574 4.04156H90.8411V84.7374H81.1574V4.04156Z" fill="#C4C4C4"/>
</mask>
<g mask="url(#mask0_1_25)">
<mask id="mask1_1_25" style="mask-type:alpha" maskUnits="userSpaceOnUse" x="5" y="1" width="86" height="86">
<path d="M5.84 32.5166C5.84 21.796 5.84 16.4356 7.92675 12.3418C9.76187 8.74014 12.6901 5.81189 16.2918 3.97676C20.3856 1.89001 25.7459 1.89001 36.4666 1.89001H60.2134C70.9341 1.89001 76.2944 1.89001 80.3882 3.97676C83.9899 5.81189 86.9181 8.74014 88.7532 12.3418C90.84 16.4356 90.84 21.796 90.84 32.5166V56.2635C90.84 66.9841 90.84 72.3444 88.7532 76.4382C86.9181 80.0399 83.9899 82.9681 80.3882 84.8033C76.2944 86.89 70.9341 86.89 60.2134 86.89H36.4666C25.7459 86.89 20.3856 86.89 16.2918 84.8033C12.6901 82.9681 9.76187 80.0399 7.92675 76.4382C5.84 72.3444 5.84 66.9841 5.84 56.2635V32.5166Z" fill="#D7D6CD"/>
</mask>
<g mask="url(#mask1_1_25)">
<path d="M90.84 43.8524H81.1574V64.2949H90.84V43.8524Z" fill="#F09A37"/>
<path opacity="0.3" d="M77.9285 43.8524H85.4606V64.296H77.9285V43.8524Z" fill="url(#paint0_linear_1_25)"/>
<path opacity="0.3" d="M90.84 43.8524V48.1566H81.1564V43.8524H90.84Z" fill="url(#paint1_linear_1_25)" fill-opacity="0.68"/>
</g>
<mask id="mask2_1_25" style="mask-type:alpha" maskUnits="userSpaceOnUse" x="74" y="64" width="17" height="23">
<path d="M90.84 64.2949H74.7006V86.89H90.84V64.2949Z" fill="#FF9443"/>
</mask>
<g mask="url(#mask2_1_25)">
<path d="M5.84 32.5166C5.84 21.796 5.84 16.4356 7.92675 12.3418C9.76187 8.74014 12.6901 5.81189 16.2918 3.97676C20.3856 1.89001 25.7459 1.89001 36.4666 1.89001H60.2134C70.9341 1.89001 76.2944 1.89001 80.3882 3.97676C83.9899 5.81189 86.9181 8.74014 88.7532 12.3418C90.84 16.4356 90.84 21.796 90.84 32.5166V56.2635C90.84 66.9841 90.84 72.3444 88.7532 76.4382C86.9181 80.0399 83.9899 82.9681 80.3882 84.8033C76.2944 86.89 70.9341 86.89 60.2134 86.89H36.4666C25.7459 86.89 20.3856 86.89 16.2918 84.8033C12.6901 82.9681 9.76187 80.0399 7.92675 76.4382C5.84 72.3444 5.84 66.9841 5.84 56.2635V32.5166Z" fill="#76D671"/>
<mask id="mask3_1_25" style="mask-type:alpha" maskUnits="userSpaceOnUse" x="5" y="1" width="86" height="86">
<path d="M5.84 32.5166C5.84 21.796 5.84 16.4356 7.92675 12.3418C9.76187 8.74014 12.6901 5.81189 16.2918 3.97676C20.3856 1.89001 25.7459 1.89001 36.4666 1.89001H60.2134C70.9341 1.89001 76.2944 1.89001 80.3882 3.97676C83.9899 5.81189 86.9181 8.74014 88.7532 12.3418C90.84 16.4356 90.84 21.796 90.84 32.5166V56.2635C90.84 66.9841 90.84 72.3444 88.7532 76.4382C86.9181 80.0399 83.9899 82.9681 80.3882 84.8033C76.2944 86.89 70.9341 86.89 60.2134 86.89H36.4666C25.7459 86.89 20.3856 86.89 16.2918 84.8033C12.6901 82.9681 9.76187 80.0399 7.92675 76.4382C5.84 72.3444 5.84 66.9841 5.84 56.2635V32.5166Z" fill="#76D671"/>
</mask>
<g mask="url(#mask3_1_25)">
<path opacity="0.3" d="M77.9285 64.2949H85.4606V86.89H77.9285V64.2949Z" fill="url(#paint2_linear_1_25)"/>
<path opacity="0.3" d="M90.84 64.2949V67.5228H70.3964V64.2949H90.84Z" fill="url(#paint3_linear_1_25)" fill-opacity="0.68"/>
</g>
</g>
<mask id="mask4_1_25" style="mask-type:alpha" maskUnits="userSpaceOnUse" x="5" y="1" width="86" height="86">
<path d="M5.84 32.5166C5.84 21.796 5.84 16.4356 7.92675 12.3418C9.76187 8.74014 12.6901 5.81189 16.2918 3.97676C20.3856 1.89001 25.7459 1.89001 36.4666 1.89001H60.2134C70.9341 1.89001 76.2944 1.89001 80.3882 3.97676C83.9899 5.81189 86.9181 8.74014 88.7532 12.3418C90.84 16.4356 90.84 21.796 90.84 32.5166V56.2635C90.84 66.9841 90.84 72.3444 88.7532 76.4382C86.9181 80.0399 83.9899 82.9681 80.3882 84.8033C76.2944 86.89 70.9341 86.89 60.2134 86.89H36.4666C25.7459 86.89 20.3856 86.89 16.2918 84.8033C12.6901 82.9681 9.76187 80.0399 7.92675 76.4382C5.84 72.3444 5.84 66.9841 5.84 56.2635V32.5166Z" fill="#D7D6CD"/>
</mask>
<g mask="url(#mask4_1_25)">
<path d="M90.84 23.4088H81.1574V43.8513H90.84V23.4088Z" fill="#77C5F5"/>
<path opacity="0.3" d="M77.9285 23.4088H85.4606V43.8524H77.9285V23.4088Z" fill="url(#paint4_linear_1_25)"/>
<path opacity="0.3" d="M90.84 23.4088V26.6367H70.3964V23.4088H90.84Z" fill="url(#paint5_linear_1_25)" fill-opacity="0.68"/>
</g>
<mask id="mask5_1_25" style="mask-type:alpha" maskUnits="userSpaceOnUse" x="5" y="1" width="86" height="86">
<path d="M5.84 32.5166C5.84 21.796 5.84 16.4356 7.92675 12.3418C9.76187 8.74014 12.6901 5.81189 16.2918 3.97676C20.3856 1.89001 25.7459 1.89001 36.4666 1.89001H60.2134C70.9341 1.89001 76.2944 1.89001 80.3882 3.97676C83.9899 5.81189 86.9181 8.74014 88.7532 12.3418C90.84 16.4356 90.84 21.796 90.84 32.5166V56.2635C90.84 66.9841 90.84 72.3444 88.7532 76.4382C86.9181 80.0399 83.9899 82.9681 80.3882 84.8033C76.2944 86.89 70.9341 86.89 60.2134 86.89H36.4666C25.7459 86.89 20.3856 86.89 16.2918 84.8033C12.6901 82.9681 9.76187 80.0399 7.92675 76.4382C5.84 72.3444 5.84 66.9841 5.84 56.2635V32.5166Z" fill="#D7D6CD"/>
</mask>
<g mask="url(#mask5_1_25)">
<path d="M81.1574 4.04156H99.4484V23.4088H81.1574V4.04156Z" fill="#C4C4C4"/>
<path opacity="0.3" d="M77.9285 4.04156H85.4606V23.4088H77.9285V4.04156Z" fill="url(#paint6_linear_1_25)"/>
</g>
</g>
</g>
</g>
</g>
<defs>
<filter id="filter0_d_1_25" x="-3.8147e-06" y="0.0500145" width="96.68" height="96.68" filterUnits="userSpaceOnUse" color-interpolation-filters="sRGB">
<feFlood flood-opacity="0" result="BackgroundImageFix"/>
<feColorMatrix in="SourceAlpha" type="matrix" values="0 0 0 0 0 0 0 0 0 0 0 0 0 0 0 0 0 0 127 0" result="hardAlpha"/>
<feOffset dy="4"/>
<feGaussianBlur stdDeviation="2.92"/>
<feComposite in2="hardAlpha" operator="out"/>
<feColorMatrix type="matrix" values="0 0 0 0 0.501961 0 0 0 0 0.501961 0 0 0 0 0.501961 0 0 0 0.35 0"/>
<feBlend mode="normal" in2="BackgroundImageFix" result="effect1_dropShadow_1_25"/>
<feBlend mode="normal" in="SourceGraphic" in2="effect1_dropShadow_1_25" result="shape"/>
</filter>
<linearGradient id="paint0_linear_1_25" x1="77.9285" y1="54.0737" x2="84.669" y2="54.0737" gradientUnits="userSpaceOnUse">
<stop/>
<stop offset="1" stop-opacity="0"/>
</linearGradient>
<linearGradient id="paint1_linear_1_25" x1="85.9982" y1="43.8524" x2="85.9982" y2="47.705" gradientUnits="userSpaceOnUse">
<stop/>
<stop offset="1" stop-opacity="0"/>
</linearGradient>
<linearGradient id="paint2_linear_1_25" x1="77.9285" y1="75.5925" x2="84.669" y2="75.5925" gradientUnits="userSpaceOnUse">
<stop/>
<stop offset="1" stop-opacity="0"/>
</linearGradient>
<linearGradient id="paint3_linear_1_25" x1="80.6187" y1="64.2949" x2="80.6187" y2="67.1839" gradientUnits="userSpaceOnUse">
<stop/>
<stop offset="1" stop-opacity="0"/>
</linearGradient>
<linearGradient id="paint4_linear_1_25" x1="77.9285" y1="33.6301" x2="84.669" y2="33.6301" gradientUnits="userSpaceOnUse">
<stop/>
<stop offset="1" stop-opacity="0"/>
</linearGradient>
<linearGradient id="paint5_linear_1_25" x1="80.6187" y1="23.4088" x2="80.6187" y2="26.2978" gradientUnits="userSpaceOnUse">
<stop/>
<stop offset="1" stop-opacity="0"/>
</linearGradient>
<linearGradient id="paint6_linear_1_25" x1="77.9285" y1="13.7252" x2="84.669" y2="13.7252" gradientUnits="userSpaceOnUse">
<stop/>
<stop offset="1" stop-opacity="0"/>
</linearGradient>
<clipPath id="clip0_1_25">
<rect x="5.84" y="1.89001" width="85" height="85" rx="22" fill="white"/>
</clipPath>
<clipPath id="clip1_1_25">
<rect width="85" height="85" fill="white" transform="translate(5.84 1.89001)"/>
</clipPath>
</defs>
</svg>
