<svg width="86" height="86" viewBox="0 0 86 86" fill="none" xmlns="http://www.w3.org/2000/svg">
<path d="M19.7259 0.890015H66.2741C76.8991 0.890015 85.5 9.49095 85.5 20.116V66.6641C85.5 77.2891 76.8991 85.89 66.2741 85.89H19.7259C9.10094 85.89 0.5 77.2891 0.5 66.6641V20.116C0.5 9.49095 9.10094 0.890015 19.7259 0.890015Z" fill="#0A66C2"/>
<path d="M17.3916 34.5022H28.6021V69.8888H17.3916V34.5022ZM22.9995 16.8902C24.2851 16.8902 25.5431 17.2642 26.612 17.9655C27.6763 18.6608 28.5097 19.6573 29.0058 20.8278C29.4972 21.9909 29.6257 23.2752 29.3745 24.5126C29.1207 25.7545 28.5004 26.8918 27.5937 27.7776C26.6785 28.6725 25.5207 29.2792 24.2639 29.5223C23.003 29.7676 21.6979 29.6406 20.5079 29.1568C19.3256 28.6774 18.3114 27.8594 17.5924 26.8055C16.8804 25.7606 16.4998 24.5254 16.5002 23.261C16.5023 22.4211 16.6719 21.5901 16.999 20.8166C17.3261 20.043 17.8042 19.3425 18.4052 18.756C19.6339 17.5574 21.2831 16.8876 22.9995 16.8902ZM34.5 34.7413H45.2599V39.565H45.4087C46.9079 36.8025 50.565 33.8891 56.0252 33.8891C67.3929 33.8647 69.4998 41.146 69.4998 50.5863V69.8888H58.2756V52.7889C58.2756 48.7174 58.2012 43.475 52.4424 43.475C46.6848 43.475 45.7062 47.9152 45.7062 52.5233V69.8898H34.5V34.7413Z" fill="white"/>
</svg>
