<svg width="86" height="86" viewBox="0 0 86 86" fill="none" xmlns="http://www.w3.org/2000/svg">
<g clip-path="url(#clip0_1_79)">
<path d="M19.3859 0.890015H65.9341C76.5591 0.890015 85.16 9.49095 85.16 20.116V66.6641C85.16 77.2891 76.5591 85.89 65.9341 85.89H19.3859C8.76094 85.89 0.160004 77.2891 0.160004 66.6641V20.116C0.160004 9.49095 8.76094 0.890015 19.3859 0.890015Z" fill="url(#paint0_linear_1_79)"/>
<path d="M70.302 24.265H15.4876C14.9904 24.265 14.5208 24.4116 14.1117 24.6454L14.6971 25.2319L39.277 49.8394C40.238 50.7961 41.5388 51.3333 42.8948 51.3333C44.2508 51.3333 45.5517 50.7961 46.5126 49.8394L71.7087 24.6751C71.2882 24.4079 70.8003 24.2656 70.302 24.265ZM72.9094 26.8724C72.9094 26.3741 72.7628 25.9055 72.5279 25.4954L54.3645 43.8341L72.5864 61.9986C72.7914 61.6183 72.9083 61.1784 72.9083 60.7396L72.9094 26.8724ZM12.91 26.8724C12.91 26.3741 13.0566 25.9055 13.2904 25.4954L31.4549 43.8341L13.233 61.9986C13.0239 61.6121 12.913 61.1801 12.91 60.7406V26.8724Z" fill="white"/>
<path d="M53.3987 44.6841L47.0407 51.0421C44.7563 53.3265 41.0057 53.3265 38.7213 51.0421L32.3633 44.7139L14.1117 62.9358C14.5218 63.1706 14.9617 63.3183 15.4589 63.3183H70.2733C70.7706 63.3183 71.2402 63.1706 71.6206 62.9358L70.5368 61.852L53.3987 44.6852V44.6841Z" fill="white"/>
</g>
<defs>
<linearGradient id="paint0_linear_1_79" x1="42.66" y1="0.890015" x2="42.66" y2="85.89" gradientUnits="userSpaceOnUse">
<stop stop-color="#1E51EE"/>
<stop offset="1" stop-color="#19E4FF"/>
</linearGradient>
<clipPath id="clip0_1_79">
<rect width="85" height="85" fill="white" transform="translate(0.160004 0.890015)"/>
</clipPath>
</defs>
</svg>
