<svg width="86" height="86" viewBox="0 0 86 86" fill="none" xmlns="http://www.w3.org/2000/svg">
<g clip-path="url(#clip0_1_236)">
<path d="M20.0559 0.140015H66.6041C77.2291 0.140015 85.83 8.74095 85.83 19.366V65.9141C85.83 76.5391 77.2291 85.14 66.6041 85.14H20.0559C9.43094 85.14 0.830002 76.5391 0.830002 65.9141V19.366C0.830002 8.74095 9.43094 0.140015 20.0559 0.140015Z" fill="url(#paint0_linear_1_236)"/>
<path fill-rule="evenodd" clip-rule="evenodd" d="M43.33 65.1501C60.347 65.1501 74.1425 53.927 74.1425 40.0826C74.1425 26.2382 60.347 15.015 43.33 15.015C26.313 15.015 12.5175 26.2382 12.5175 40.0826C12.5175 49.2785 18.6035 57.3163 27.6762 61.679C27.7899 63.6701 27.0111 67.7086 22.9629 69.329C25.5289 69.499 31.6266 67.8202 35.306 64.2927C37.9421 64.866 40.6323 65.1535 43.33 65.1501Z" fill="white"/>
</g>
<defs>
<linearGradient id="paint0_linear_1_236" x1="43.33" y1="0.140015" x2="43.33" y2="85.14" gradientUnits="userSpaceOnUse">
<stop stop-color="#8BFB6B"/>
<stop offset="1" stop-color="#19DB1C"/>
</linearGradient>
<clipPath id="clip0_1_236">
<rect width="85" height="85" fill="white" transform="translate(0.830002 0.140015)"/>
</clipPath>
</defs>
</svg>
