<svg width="86" height="86" viewBox="0 0 86 86" fill="none" xmlns="http://www.w3.org/2000/svg">
<g clip-path="url(#clip0_1_89)">
<path d="M19.3959 0.140015H65.9441C76.5691 0.140015 85.17 8.74095 85.17 19.366V65.9141C85.17 76.5391 76.5691 85.14 65.9441 85.14H19.3959C8.77093 85.14 0.169998 76.5391 0.169998 65.9141V19.366C0.169998 8.74095 8.77093 0.140015 19.3959 0.140015Z" fill="#FFFEFF"/>
<path d="M19.3959 0.671265H65.9441C76.2758 0.671265 84.6387 9.0342 84.6387 19.366V65.9141C84.6387 76.2458 76.2758 84.6088 65.9441 84.6088H19.3959C9.06418 84.6088 0.701248 76.2458 0.701248 65.9141V19.366C0.701248 9.0342 9.06418 0.671265 19.3959 0.671265Z" stroke="black" stroke-opacity="0.05" stroke-width="1.0625"/>
<path d="M42.67 75.0463C60.86 75.0463 75.6075 60.2988 75.6075 42.1088C75.6075 23.9188 60.86 9.17126 42.67 9.17126C24.48 9.17126 9.7325 23.9188 9.7325 42.1088C9.7325 60.2988 24.48 75.0463 42.67 75.0463Z" fill="url(#paint0_linear_1_89)"/>
<path d="M42.67 72.576C59.4958 72.576 73.1361 58.9356 73.1361 42.1088C73.1361 25.282 59.4958 11.6416 42.6689 11.6416C25.8421 11.6416 12.2018 25.282 12.2018 42.1088C12.2018 58.9356 25.8442 72.576 42.67 72.576Z" fill="url(#paint1_radial_1_89)"/>
<path d="M42.7221 19.0525C42.5159 19.0525 42.3353 18.8984 42.3353 18.6923V13.3139C42.3353 13.1089 42.5159 12.9537 42.7221 12.9537C42.9282 12.9537 43.1077 13.1089 43.1077 13.315V18.6923C43.0822 18.8984 42.9271 19.0525 42.7221 19.0525Z" fill="#F3F3F3"/>
<path d="M42.721 19.078C42.4894 19.078 42.3087 18.8974 42.3087 18.6923V13.314C42.3087 13.1089 42.4894 12.9283 42.721 12.9283C42.9526 12.9283 43.1322 13.1089 43.1322 13.314V18.6923C43.1322 18.8985 42.9261 19.078 42.721 19.078ZM42.721 12.9793C42.5404 12.9793 42.3597 13.1344 42.3597 13.314V18.6923C42.3597 18.873 42.5149 19.027 42.721 19.027C42.9016 19.027 43.0812 18.873 43.0812 18.6923V13.314C43.0557 13.1333 42.9016 12.9793 42.721 12.9793Z" fill="white"/>
<path d="M45.2965 16.171C45.0904 16.1444 44.9352 15.9904 44.9352 15.7842L45.1159 13.3915C45.1209 13.3424 45.1356 13.2948 45.159 13.2514C45.1825 13.2081 45.2143 13.1697 45.2526 13.1386C45.2909 13.1075 45.3349 13.0843 45.3822 13.0703C45.4295 13.0562 45.4791 13.0516 45.5281 13.0568C45.7342 13.0823 45.8883 13.2374 45.8883 13.4435L45.7077 15.8363C45.6975 15.9352 45.6485 16.026 45.5714 16.0887C45.4943 16.1515 45.3954 16.1811 45.2965 16.171Z" fill="#F3F3F3"/>
<path d="M45.2944 16.1965C45.1902 16.1885 45.0927 16.1418 45.0213 16.0654C44.9499 15.9891 44.9097 15.8888 44.9087 15.7843L45.0893 13.3915C45.1148 13.1854 45.2954 13.0058 45.5271 13.0303C45.6312 13.0385 45.7285 13.0853 45.7999 13.1616C45.8712 13.2379 45.9115 13.3381 45.9127 13.4425L45.7321 15.8363C45.7066 16.0679 45.526 16.222 45.2944 16.1965ZM45.5271 13.0834C45.3464 13.0834 45.1658 13.2109 45.1658 13.3915L44.9852 15.7853C44.9852 15.9649 45.1148 16.1189 45.3209 16.1444C45.5016 16.1444 45.6811 16.0169 45.6811 15.8363L45.8617 13.4425C45.8617 13.2619 45.7066 13.1089 45.526 13.0823L45.5271 13.0834Z" fill="white"/>
<path d="M47.226 19.5158C47.1291 19.4947 47.0436 19.4381 46.9865 19.357C46.9295 19.2759 46.905 19.1763 46.9179 19.078L47.9719 13.8027C48.0239 13.5976 48.2035 13.468 48.4096 13.5201C48.5065 13.5411 48.592 13.5978 48.6491 13.6788C48.7061 13.7599 48.7307 13.8595 48.7177 13.9578L47.6637 19.2331C47.6372 19.4127 47.4311 19.5413 47.226 19.5158Z" fill="#F3F3F3"/>
<path d="M47.2249 19.5413C47.121 19.5206 47.0286 19.4614 46.9666 19.3754C46.9045 19.2895 46.8772 19.1833 46.8902 19.078L47.9453 13.8027C47.9706 13.6979 48.0359 13.607 48.1271 13.5494C48.2184 13.4919 48.3285 13.4722 48.4341 13.4946C48.6657 13.5456 48.7953 13.7517 48.7688 13.9579L47.7137 19.2332C47.6616 19.4382 47.4566 19.5679 47.2249 19.5413ZM48.4341 13.5456C48.3459 13.5312 48.2554 13.5494 48.1796 13.5967C48.1038 13.644 48.0477 13.7172 48.0218 13.8027L46.9678 19.0791C46.9538 19.1707 46.9752 19.2643 47.0277 19.3407C47.0802 19.417 47.1599 19.4706 47.2504 19.4903C47.3385 19.5042 47.4285 19.4858 47.5041 19.4386C47.5796 19.3913 47.6356 19.3184 47.6616 19.2332L48.7167 13.9579C48.7433 13.7517 48.6147 13.5966 48.4341 13.5456Z" fill="white"/>
<path d="M50.3115 17.1995C50.2624 17.1878 50.2162 17.1665 50.1754 17.1368C50.1346 17.1072 50.1001 17.0697 50.0738 17.0267C50.0475 16.9836 50.03 16.9358 50.0223 16.8859C50.0146 16.8361 50.0168 16.7852 50.0289 16.7362L50.6727 14.42C50.7237 14.2149 50.9299 14.1119 51.1349 14.1629C51.184 14.1746 51.2303 14.1959 51.2711 14.2255C51.312 14.2552 51.3466 14.2926 51.3729 14.3356C51.3993 14.3787 51.4169 14.4265 51.4247 14.4763C51.4326 14.5262 51.4305 14.5771 51.4186 14.6261L50.7747 16.9424C50.7237 17.1485 50.5176 17.2505 50.3115 17.1995Z" fill="#F3F3F3"/>
<path d="M50.3136 17.225C50.1075 17.174 49.9524 16.9424 50.0299 16.7363L50.6738 14.42C50.7248 14.215 50.9564 14.0864 51.1626 14.1374C51.3687 14.1895 51.5227 14.4211 51.4452 14.6261L50.8024 16.9424C50.7503 17.1485 50.5442 17.276 50.3136 17.225ZM51.1626 14.215C50.9819 14.1629 50.7758 14.267 50.7248 14.4466L50.082 16.7628C50.0299 16.9424 50.133 17.123 50.3391 17.174C50.5197 17.2261 50.7248 17.123 50.7758 16.9424L51.4197 14.6261C51.4336 14.5381 51.4152 14.4481 51.368 14.3725C51.3207 14.297 51.2478 14.241 51.1626 14.215Z" fill="white"/>
<path d="M51.5737 20.8279C51.5276 20.8101 51.4855 20.7831 51.4499 20.7487C51.4144 20.7142 51.3862 20.6729 51.367 20.6273C51.3477 20.5817 51.3379 20.5327 51.338 20.4832C51.3381 20.4337 51.3482 20.3847 51.3676 20.3392L53.4257 15.3731C53.5032 15.1924 53.7349 15.0894 53.9144 15.1924C54.1206 15.27 54.1981 15.5016 54.1206 15.6812L52.0625 20.6484C51.9849 20.829 51.7533 20.9299 51.5737 20.8279Z" fill="#F3F3F3"/>
<path d="M51.5727 20.8535C51.4739 20.8158 51.394 20.7406 51.3506 20.6442C51.3072 20.5478 51.3038 20.4381 51.3411 20.3392L53.4002 15.3731C53.4767 15.167 53.7083 15.0894 53.9399 15.167C54.0385 15.2048 54.1182 15.2801 54.1616 15.3764C54.205 15.4727 54.2086 15.5823 54.1716 15.6812L52.1135 20.6484C52.0104 20.8545 51.7788 20.9555 51.5727 20.8535ZM53.9144 15.218C53.8722 15.1991 53.8266 15.1889 53.7804 15.1878C53.7342 15.1867 53.6882 15.1947 53.6451 15.2115C53.602 15.2283 53.5627 15.2535 53.5294 15.2856C53.4961 15.3177 53.4695 15.3561 53.4512 15.3986L51.3921 20.3647C51.3156 20.5453 51.4186 20.726 51.5982 20.8025C51.7788 20.88 51.9849 20.8025 52.0614 20.6218L54.1206 15.6557C54.1452 15.5702 54.1379 15.4786 54.1 15.398C54.0621 15.3174 53.9961 15.2535 53.9144 15.218Z" fill="white"/>
<path d="M55.0471 19.1811C54.8664 19.078 54.7899 18.873 54.8664 18.6923L55.947 16.5567C55.9702 16.5123 56.0021 16.4729 56.0407 16.441C56.0793 16.409 56.124 16.3851 56.172 16.3706C56.22 16.3562 56.2704 16.3515 56.3203 16.3568C56.3701 16.3621 56.4184 16.3773 56.4623 16.4016C56.6429 16.5057 56.7194 16.7108 56.6429 16.8903L55.5613 19.026C55.5381 19.0703 55.5063 19.1095 55.4677 19.1414C55.4292 19.1732 55.3846 19.1971 55.3368 19.2115C55.2889 19.226 55.2386 19.2307 55.1888 19.2255C55.1391 19.2203 55.0909 19.2052 55.0471 19.1811Z" fill="#F3F3F3"/>
<path d="M55.0481 19.2066C54.9999 19.184 54.9568 19.1518 54.9215 19.1121C54.8861 19.0724 54.8591 19.0258 54.8422 18.9754C54.8253 18.9249 54.8189 18.8715 54.8232 18.8185C54.8275 18.7655 54.8426 18.7139 54.8675 18.6668L55.9481 16.5312C55.9706 16.4829 56.0028 16.4396 56.0426 16.4042C56.0825 16.3687 56.1291 16.3416 56.1797 16.3248C56.2303 16.3079 56.2838 16.3014 56.3369 16.3059C56.3901 16.3103 56.4418 16.3255 56.4889 16.3506C56.5372 16.3732 56.5804 16.4053 56.6159 16.4452C56.6514 16.485 56.6784 16.5316 56.6953 16.5822C56.7122 16.6328 56.7186 16.6863 56.7142 16.7394C56.7098 16.7926 56.6946 16.8443 56.6695 16.8914L55.5879 19.027C55.5653 19.0752 55.5331 19.1183 55.4934 19.1537C55.4537 19.1891 55.4072 19.216 55.3567 19.2329C55.3062 19.2498 55.2528 19.2563 55.1998 19.2519C55.1468 19.2476 55.0952 19.2315 55.0481 19.2066ZM56.4634 16.4016C56.2827 16.3251 56.0766 16.3761 56.0001 16.5567L54.9196 18.6923C54.842 18.8464 54.9196 19.0525 55.0736 19.1556C55.2542 19.2331 55.4593 19.1811 55.5369 19.0015L56.6174 16.8659C56.695 16.7108 56.6174 16.5046 56.4634 16.4016Z" fill="white"/>
<path d="M55.5634 22.9902C55.3828 22.8605 55.3318 22.6289 55.4604 22.4748L58.446 18.023C58.548 17.8423 58.7796 17.8168 58.9602 17.921C59.1409 18.0485 59.1919 18.2801 59.0633 18.4352L56.0777 22.8871C56.053 22.9302 56.0193 22.9675 55.979 22.9965C55.9387 23.0255 55.8926 23.0455 55.8439 23.0553C55.7952 23.065 55.745 23.0643 55.6966 23.053C55.6483 23.0418 55.6029 23.0204 55.5634 22.9902Z" fill="#F3F3F3"/>
<path d="M55.5613 23.0156C55.4757 22.9522 55.4156 22.8602 55.3922 22.7562C55.3688 22.6522 55.3836 22.5433 55.4338 22.4493L58.4184 17.9974C58.4798 17.909 58.5737 17.8484 58.6797 17.8291C58.7857 17.8098 58.8949 17.8333 58.9836 17.8944C59.1642 18.0229 59.2153 18.2801 59.1133 18.4607L56.1276 22.9126C56.0655 23.0004 55.9714 23.0604 55.8655 23.0797C55.7596 23.099 55.6504 23.076 55.5613 23.0156ZM58.9581 17.9464C58.8041 17.8434 58.5724 17.8689 58.4694 18.0229L55.4838 22.4748C55.46 22.512 55.4439 22.5536 55.4363 22.597C55.4287 22.6405 55.4298 22.685 55.4394 22.7281C55.4491 22.7712 55.4672 22.8119 55.4927 22.8479C55.5182 22.8839 55.5505 22.9146 55.5879 22.9381C55.7419 23.0411 55.9736 23.0156 56.0766 22.8605L59.0623 18.4352C59.1099 18.3557 59.1257 18.261 59.1064 18.1703C59.0871 18.0796 59.0341 17.9996 58.9581 17.9464Z" fill="white"/>
<path d="M59.3172 22.0381C59.1632 21.9085 59.1122 21.6769 59.2408 21.5228L60.7325 19.6443C60.7941 19.5696 60.8828 19.5223 60.9791 19.5128C61.0755 19.5032 61.1717 19.5322 61.2468 19.5933C61.4008 19.7208 61.4529 19.9535 61.3232 20.1076L59.8315 21.9861C59.77 22.0609 59.6815 22.1084 59.5851 22.1182C59.4888 22.1279 59.3925 22.0991 59.3172 22.0381Z" fill="#F3F3F3"/>
<path d="M59.2939 22.0637C59.1132 21.934 59.0888 21.6769 59.2174 21.4974L60.7091 19.6189C60.8377 19.4382 61.0959 19.4127 61.2754 19.5679C61.4561 19.6954 61.4816 19.9535 61.353 20.1331L59.8602 22.0116C59.7327 22.1922 59.4745 22.2177 59.2939 22.0637ZM61.2244 19.6189C61.0704 19.4903 60.8632 19.5158 60.7357 19.6699L59.2429 21.5484C59.1918 21.6245 59.1713 21.7171 59.1855 21.8077C59.1997 21.8983 59.2475 21.9802 59.3194 22.0371C59.4745 22.1657 59.6806 22.1402 59.8081 21.9861L61.3009 20.1076C61.404 19.9535 61.3785 19.7219 61.2244 19.6189Z" fill="white"/>
<path d="M59.0612 25.8972C58.9071 25.7431 58.9071 25.5115 59.0612 25.3829L62.8692 21.6004C62.9375 21.5321 63.0302 21.4937 63.1268 21.4937C63.2235 21.4937 63.3162 21.5321 63.3845 21.6004C63.5131 21.7279 63.5386 21.9861 63.3845 22.1147L59.602 25.8972C59.5672 25.9338 59.5252 25.9631 59.4787 25.983C59.4322 26.003 59.3822 26.0133 59.3316 26.0133C59.281 26.0133 59.2309 26.003 59.1845 25.983C59.138 25.9631 59.096 25.9338 59.0612 25.8972Z" fill="#F3F3F3"/>
<path d="M59.0367 25.9237C58.9624 25.8482 58.9208 25.7465 58.9208 25.6406C58.9208 25.5346 58.9624 25.4329 59.0367 25.3574L62.8447 21.5749C62.9203 21.5006 63.022 21.459 63.1279 21.459C63.2338 21.459 63.3355 21.5006 63.4111 21.5749C63.485 21.6504 63.5265 21.7519 63.5265 21.8575C63.5265 21.9632 63.485 22.0647 63.4111 22.1402L59.6031 25.9227C59.5275 25.997 59.4258 26.0386 59.3199 26.0386C59.214 26.0386 59.1123 25.998 59.0367 25.9237ZM63.3856 21.5994C63.3194 21.5372 63.232 21.5026 63.1412 21.5026C63.0504 21.5026 62.963 21.5372 62.8968 21.5994L59.0877 25.3819C59.0255 25.4482 58.9909 25.5358 58.9909 25.6268C58.9909 25.7177 59.0255 25.8053 59.0877 25.8717C59.1539 25.9338 59.2413 25.9684 59.3321 25.9684C59.4229 25.9684 59.5103 25.9338 59.5765 25.8717L63.3856 22.0892C63.5131 21.9606 63.5131 21.7534 63.3856 21.5994Z" fill="white"/>
<path d="M62.9212 25.692C62.7937 25.5369 62.7937 25.3053 62.9478 25.1767L64.7753 23.6329C64.8506 23.5722 64.9469 23.5436 65.0431 23.5533C65.1394 23.5631 65.2279 23.6104 65.2896 23.685C65.4171 23.839 65.4171 24.0707 65.2641 24.1992L63.4366 25.743C63.3612 25.8038 63.265 25.8324 63.1687 25.8227C63.0725 25.8129 62.9839 25.7656 62.9223 25.691L62.9212 25.692Z" fill="#F3F3F3"/>
<path d="M62.8947 25.7176C62.7406 25.537 62.7672 25.2799 62.9202 25.1513L64.7477 23.6075C64.9018 23.4534 65.1589 23.4789 65.314 23.6585C65.4681 23.8391 65.4415 24.0962 65.2885 24.2248L63.461 25.7686C63.3069 25.9227 63.0488 25.8972 62.8947 25.7176ZM65.2619 23.685C65.1344 23.5299 64.9273 23.5299 64.7732 23.633L62.9457 25.1768C62.8802 25.2398 62.8411 25.3254 62.8364 25.4161C62.8317 25.5069 62.8616 25.596 62.9202 25.6655C63.0487 25.8196 63.2549 25.8196 63.4089 25.7176L65.2364 24.1727C65.3905 24.0452 65.3905 23.8402 65.2619 23.685Z" fill="white"/>
<path d="M61.8906 29.397C61.8603 29.3575 61.8387 29.3119 61.8275 29.2634C61.8162 29.2149 61.8155 29.1645 61.8254 29.1156C61.8352 29.0668 61.8555 29.0206 61.8847 28.9803C61.9139 28.9399 61.9514 28.9063 61.9947 28.8817L66.4721 25.8971C66.6528 25.7941 66.8833 25.8461 66.9864 26.0002C67.0168 26.0396 67.0384 26.0851 67.0497 26.1336C67.061 26.1821 67.0619 26.2325 67.0521 26.2813C67.0423 26.3301 67.0222 26.3763 66.9931 26.4167C66.964 26.4571 66.9265 26.4908 66.8833 26.5155L62.4059 29.5001C62.2519 29.6031 62.0192 29.5511 61.8906 29.397Z" fill="#F3F3F3"/>
<path d="M61.8662 29.397C61.8058 29.3079 61.7828 29.1987 61.8021 29.0928C61.8214 28.9869 61.8814 28.8928 61.9692 28.8307L66.4466 25.8451C66.4917 25.8144 66.5426 25.7933 66.5962 25.7832C66.6498 25.7731 66.7049 25.7742 66.758 25.7864C66.8112 25.7985 66.8613 25.8215 66.9051 25.8539C66.949 25.8863 66.9857 25.9274 67.0129 25.9747C67.073 26.0637 67.0958 26.1727 67.0765 26.2783C67.0573 26.3839 66.9974 26.4778 66.9099 26.5399L62.4325 29.5256C62.3875 29.5563 62.3367 29.5775 62.2832 29.5878C62.2297 29.598 62.1747 29.5971 62.1216 29.5852C62.0684 29.5732 62.0183 29.5504 61.9744 29.5182C61.9304 29.486 61.8936 29.4451 61.8662 29.3981V29.397ZM66.9609 26.0257C66.9131 25.9509 66.8376 25.8981 66.7509 25.879C66.6642 25.8598 66.5735 25.8759 66.4987 25.9237L62.0202 28.9082C61.8662 29.0113 61.8152 29.2164 61.9437 29.397C62.0468 29.5511 62.2519 29.6031 62.407 29.5001L66.8844 26.5144C66.9563 26.4575 67.0041 26.3756 67.0183 26.285C67.0324 26.1944 67.0119 26.1018 66.9609 26.0257Z" fill="white"/>
<path d="M65.7284 29.9378C65.7029 29.8956 65.6859 29.8488 65.6785 29.8001C65.6711 29.7513 65.6734 29.7016 65.6853 29.6537C65.6971 29.6059 65.7183 29.5608 65.7475 29.5211C65.7768 29.4814 65.8136 29.4479 65.8559 29.4225L67.9405 28.2389C68.1211 28.1358 68.3527 28.2134 68.4558 28.3929C68.4813 28.4352 68.4981 28.4821 68.5055 28.5309C68.5128 28.5796 68.5104 28.6294 68.4984 28.6773C68.4865 28.7251 68.4652 28.7702 68.4359 28.8098C68.4065 28.8495 68.3696 28.8829 68.3272 28.9083L66.2426 30.0919C66.062 30.1949 65.8304 30.1184 65.7284 29.9378Z" fill="#F3F3F3"/>
<path d="M65.7007 29.9633C65.5977 29.7572 65.6497 29.5256 65.8293 29.4225L67.9139 28.2389C68.0946 28.1358 68.3517 28.2134 68.4547 28.3929C68.5578 28.5991 68.5058 28.8307 68.3262 28.9338L66.2416 30.1174C66.0609 30.2204 65.8038 30.1429 65.7007 29.9633ZM68.4282 28.4195C68.3262 28.2389 68.1201 28.1879 67.966 28.2899L65.8814 29.4746C65.8085 29.5237 65.7555 29.5973 65.732 29.682C65.7084 29.7667 65.7158 29.857 65.7528 29.9368C65.8559 30.1174 66.0609 30.1684 66.2161 30.0664L68.2996 28.8828C68.4547 28.8052 68.5057 28.5991 68.4282 28.4195Z" fill="white"/>
<path d="M64.0007 33.3602C63.9242 33.154 64.0007 32.9479 64.2069 32.8714L69.173 30.8123C69.3536 30.7358 69.5852 30.8378 69.6617 31.0184C69.7393 31.2245 69.6617 31.4296 69.4567 31.5072L64.4906 33.5652C64.4451 33.5849 64.3962 33.5951 64.3467 33.5954C64.2972 33.5956 64.2482 33.5859 64.2025 33.5668C64.1569 33.5476 64.1156 33.5194 64.0811 33.4839C64.0466 33.4484 64.0186 33.4063 64.0007 33.3602Z" fill="#F3F3F3"/>
<path d="M63.9763 33.3857C63.9365 33.2861 63.9356 33.1752 63.9738 33.075C64.012 32.9748 64.0865 32.8927 64.1824 32.8448L69.1486 30.7868C69.2475 30.7495 69.3571 30.7529 69.4535 30.7964C69.5499 30.8398 69.6252 30.9196 69.6628 31.0184C69.7025 31.1178 69.7034 31.2285 69.6652 31.3286C69.627 31.4286 69.5526 31.5105 69.4567 31.5582L64.4916 33.6173C64.3926 33.6549 64.2826 33.6516 64.186 33.6082C64.0894 33.5648 64.0139 33.4847 63.9763 33.3857ZM69.6118 31.0439C69.5763 30.9622 69.5123 30.8963 69.4318 30.8584C69.3512 30.8204 69.2596 30.8131 69.1741 30.8378L64.2079 32.8969C64.1654 32.9151 64.1269 32.9417 64.0947 32.9749C64.0625 33.0082 64.0373 33.0475 64.0205 33.0907C64.0037 33.1338 63.9956 33.1798 63.9968 33.2261C63.9979 33.2724 64.0083 33.3179 64.0273 33.3602C64.1049 33.5408 64.311 33.6173 64.4651 33.5663L69.4312 31.5072C69.4737 31.4889 69.5122 31.4624 69.5444 31.4291C69.5766 31.3959 69.6018 31.3565 69.6186 31.3134C69.6355 31.2703 69.6435 31.2242 69.6423 31.178C69.6412 31.1317 69.6308 31.0861 69.6118 31.0439Z" fill="white"/>
<path d="M67.6313 34.6468C67.5538 34.4407 67.6568 34.2346 67.8629 34.1581L70.1271 33.4111C70.3078 33.3336 70.5394 33.4632 70.5904 33.6427C70.6679 33.8489 70.5649 34.0539 70.3587 34.1315L68.0946 34.8784C67.9139 34.9549 67.7089 34.8519 67.6313 34.6468Z" fill="#F3F3F3"/>
<path d="M67.6069 34.6713C67.5882 34.6208 67.5801 34.567 67.5831 34.5133C67.5861 34.4596 67.6001 34.407 67.6242 34.3589C67.6483 34.3108 67.682 34.2682 67.7232 34.2336C67.7645 34.1991 67.8124 34.1734 67.864 34.1581L70.1271 33.4112C70.3333 33.3336 70.5649 33.4632 70.6424 33.6683C70.6614 33.7189 70.6698 33.7728 70.667 33.8268C70.6642 33.8808 70.6503 33.9336 70.6262 33.982C70.602 34.0303 70.5682 34.0732 70.5267 34.1079C70.4853 34.1426 70.4372 34.1683 70.3853 34.1836L68.1211 34.9295C68.0187 34.9562 67.91 34.9449 67.8152 34.8976C67.7205 34.8503 67.6461 34.7703 67.6058 34.6723L67.6069 34.6713ZM70.5914 33.6938C70.5394 33.5142 70.3332 33.4112 70.1537 33.4632L67.8895 34.2091C67.7089 34.2601 67.6313 34.4662 67.6834 34.6468C67.7344 34.8275 67.9405 34.9295 68.1211 34.8785L70.3842 34.1315C70.4678 34.0984 70.5357 34.0347 70.5741 33.9535C70.6126 33.8722 70.6188 33.7794 70.5914 33.6938Z" fill="white"/>
<path d="M65.314 37.709C65.2619 37.5028 65.3905 37.2967 65.5966 37.2712L70.8719 36.2416C71.077 36.1906 71.2576 36.3447 71.3086 36.5498C71.3607 36.7559 71.2321 36.962 71.026 36.9886L65.7507 38.0171C65.5446 38.0426 65.3406 37.9151 65.314 37.709Z" fill="#F3F3F3"/>
<path d="M65.2619 37.709C65.2396 37.6034 65.2592 37.4933 65.3168 37.402C65.3743 37.3108 65.4652 37.2455 65.5701 37.2202L70.8464 36.1896C71.0526 36.1386 71.2576 36.2937 71.3097 36.5253C71.3321 36.6309 71.3124 36.741 71.2548 36.8323C71.1973 36.9235 71.1064 36.9888 71.0016 37.0141L65.7252 38.0426C65.5201 38.0947 65.314 37.9417 65.2619 37.709ZM71.2576 36.5508C71.2427 36.4628 71.1941 36.3839 71.1222 36.331C71.0502 36.278 70.9605 36.2551 70.8719 36.2672L65.5966 37.2978C65.416 37.3222 65.2885 37.5283 65.3395 37.709C65.365 37.8896 65.5456 38.0171 65.7252 37.9916L71.0005 36.962C71.1811 36.911 71.3086 36.7304 71.2576 36.5508Z" fill="white"/>
<path d="M68.6088 39.6905C68.5833 39.4844 68.7119 39.3038 68.9169 39.2783L71.2853 38.9946C71.3343 38.9896 71.3839 38.9943 71.4311 39.0085C71.4783 39.0227 71.5223 39.046 71.5605 39.0772C71.5987 39.1084 71.6303 39.1468 71.6537 39.1902C71.677 39.2337 71.6915 39.2813 71.6964 39.3304C71.723 39.5354 71.5934 39.716 71.3883 39.7415L69.0211 40.0242C68.8404 40.0507 68.6343 39.8967 68.6088 39.6905Z" fill="#F3F3F3"/>
<path d="M68.5844 39.6905C68.5578 39.4589 68.7119 39.2527 68.918 39.2272L71.2852 38.9435C71.3377 38.9384 71.3907 38.9437 71.4411 38.9591C71.4916 38.9745 71.5385 38.9997 71.5791 39.0333C71.6198 39.0668 71.6535 39.1081 71.6781 39.1547C71.7028 39.2013 71.7181 39.2523 71.723 39.3048C71.7485 39.5354 71.5944 39.7415 71.3883 39.767L69.0211 40.0507C68.9686 40.0558 68.9156 40.0505 68.8652 40.0351C68.8147 40.0197 68.7678 39.9945 68.7272 39.961C68.6865 39.9274 68.6528 39.8861 68.6282 39.8395C68.6035 39.7929 68.5882 39.7419 68.5833 39.6894L68.5844 39.6905ZM71.6975 39.3292C71.672 39.1497 71.4914 38.9945 71.3108 39.0211L68.9435 39.3037C68.8555 39.3191 68.7769 39.368 68.7242 39.4401C68.6715 39.5123 68.6488 39.602 68.6609 39.6905C68.6864 39.87 68.867 40.0252 69.0466 39.9986L71.4138 39.716C71.5018 39.7008 71.5805 39.6522 71.6334 39.5803C71.6862 39.5084 71.7092 39.4177 71.6975 39.3292Z" fill="white"/>
<path d="M65.7273 42.1863C65.7273 41.9802 65.8814 41.7996 66.0886 41.7996H71.4648C71.672 41.7996 71.8261 41.9802 71.8261 42.1863C71.8261 42.3924 71.672 42.572 71.4648 42.572H66.0886C65.8814 42.572 65.7273 42.3914 65.7273 42.1863Z" fill="#F3F3F3"/>
<path d="M65.7007 42.1863C65.7007 41.9547 65.8814 41.774 66.0864 41.774H71.4648C71.6709 41.774 71.8505 41.9547 71.8505 42.1863C71.8505 42.4179 71.6699 42.5975 71.4648 42.5975H66.0864C65.8803 42.5975 65.7007 42.4169 65.7007 42.1863ZM71.7995 42.2118C71.7995 42.0312 71.6444 41.8516 71.4637 41.8516H66.0875C65.9069 41.8516 65.7517 42.0057 65.7517 42.2118C65.7517 42.3924 65.9069 42.572 66.0864 42.572H71.4648C71.6454 42.5465 71.7995 42.3914 71.7995 42.2118Z" fill="white"/>
<path d="M68.5833 44.7852C68.6088 44.5791 68.7639 44.424 68.969 44.424L71.3628 44.6046C71.4617 44.615 71.5524 44.6643 71.615 44.7416C71.6776 44.8189 71.7068 44.9179 71.6964 45.0168C71.6709 45.2229 71.5158 45.377 71.3108 45.377L68.918 45.1964C68.7374 45.1709 68.5833 44.9903 68.5833 44.7852Z" fill="#F3F3F3"/>
<path d="M68.5578 44.7852C68.5658 44.681 68.6126 44.5836 68.6889 44.5122C68.7652 44.4408 68.8655 44.4006 68.9701 44.3995L71.3628 44.5791C71.5689 44.6046 71.7485 44.7852 71.723 45.0168C71.715 45.1209 71.6684 45.2182 71.5923 45.2896C71.5162 45.3609 71.4161 45.4012 71.3118 45.4025L68.918 45.2219C68.7119 45.1964 68.5578 44.9903 68.5578 44.7852ZM71.6975 45.0168C71.7023 44.9726 71.6981 44.9279 71.685 44.8854C71.6719 44.8429 71.6503 44.8035 71.6214 44.7697C71.5926 44.7359 71.5571 44.7083 71.5172 44.6887C71.4773 44.6691 71.4338 44.6578 71.3894 44.6556L68.9956 44.476C68.8149 44.476 68.6609 44.6046 68.6343 44.8107C68.6296 44.8549 68.634 44.8996 68.6473 44.9421C68.6605 44.9845 68.6822 45.0238 68.7112 45.0575C68.7401 45.0913 68.7757 45.1187 68.8156 45.1382C68.8556 45.1577 68.8991 45.1688 68.9435 45.1709L71.3373 45.3515C71.5179 45.3515 71.672 45.1975 71.6975 45.0168Z" fill="white"/>
<path d="M65.2619 46.6637C65.2829 46.5668 65.3396 46.4813 65.4207 46.4243C65.5018 46.3672 65.6014 46.3427 65.6997 46.3556L70.9739 47.4096C71.1801 47.4617 71.3086 47.6412 71.2576 47.8474C71.2364 47.9441 71.1797 48.0295 71.0986 48.0865C71.0176 48.1435 70.9182 48.1681 70.8199 48.1555L65.5456 47.1025C65.365 47.076 65.2375 46.8709 65.263 46.6648L65.2619 46.6637Z" fill="#F3F3F3"/>
<path d="M65.2375 46.6637C65.2582 46.5599 65.3173 46.4678 65.403 46.4057C65.4887 46.3436 65.5946 46.3162 65.6997 46.329L70.975 47.3841C71.0799 47.4094 71.1708 47.4746 71.2283 47.5659C71.2858 47.6571 71.3055 47.7673 71.2831 47.8728C71.2625 47.9766 71.2034 48.0687 71.1177 48.1308C71.032 48.1928 70.926 48.2202 70.8209 48.2075L65.5456 47.1524C65.3395 47.1014 65.2109 46.8953 65.2375 46.6637ZM71.2321 47.8728C71.2462 47.7848 71.228 47.6946 71.1807 47.619C71.1334 47.5434 71.0603 47.4875 70.975 47.4616L65.6997 46.4065C65.6081 46.3928 65.5147 46.4143 65.4384 46.4668C65.362 46.5192 65.3085 46.5987 65.2885 46.6892C65.2743 46.7774 65.2926 46.8677 65.3398 46.9435C65.3871 47.0192 65.4602 47.0754 65.5456 47.1014L70.8209 48.1554C71.0271 48.182 71.1811 48.0524 71.2321 47.8728Z" fill="white"/>
<path d="M67.5792 49.7513C67.591 49.7022 67.6123 49.656 67.6419 49.6152C67.6716 49.5744 67.709 49.5399 67.7521 49.5136C67.7951 49.4873 67.843 49.4699 67.8928 49.4621C67.9426 49.4544 67.9935 49.4566 68.0425 49.4687L70.3587 50.1115C70.5638 50.1636 70.6669 50.3697 70.6159 50.5747C70.5917 50.6735 70.5294 50.7587 70.4426 50.8117C70.3558 50.8646 70.2515 50.8811 70.1526 50.8574L67.8364 50.2146C67.6302 50.1636 67.5282 49.9574 67.5792 49.7513Z" fill="#F3F3F3"/>
<path d="M67.5527 49.7513C67.6037 49.5452 67.8353 49.3912 68.0414 49.4687L70.3577 50.1115C70.4583 50.1415 70.5436 50.2089 70.5961 50.2997C70.6487 50.3906 70.6645 50.4981 70.6403 50.6003C70.5893 50.8064 70.3577 50.9615 70.1516 50.884L67.8353 50.2401C67.6292 50.1891 67.5006 49.983 67.5527 49.7513ZM70.5638 50.6013C70.6148 50.4207 70.5117 50.2146 70.3311 50.1625L68.0149 49.5197C67.8353 49.4677 67.6557 49.5707 67.6037 49.7768C67.5527 49.9575 67.6557 50.1636 67.8353 50.2146L70.1516 50.8574C70.2398 50.8718 70.3302 50.8537 70.406 50.8064C70.4819 50.7591 70.5379 50.6869 70.5638 50.6013Z" fill="white"/>
<path d="M63.9519 50.9859C64.0284 50.7809 64.26 50.7033 64.4406 50.7809L69.4068 52.8389C69.5874 52.9165 69.6894 53.1481 69.6129 53.3277C69.5353 53.5338 69.3048 53.6114 69.1241 53.5338L64.1569 51.4758C63.9519 51.3982 63.8743 51.1655 63.9519 50.9859Z" fill="#F3F3F3"/>
<path d="M63.9242 50.9605C63.9621 50.8616 64.0375 50.7817 64.1341 50.7383C64.2307 50.6949 64.3405 50.6915 64.4396 50.7288L69.4057 52.788C69.6118 52.8645 69.6883 53.0961 69.6118 53.3277C69.5934 53.3769 69.5654 53.422 69.5295 53.4604C69.4936 53.4988 69.4505 53.5297 69.4026 53.5513C69.3547 53.5729 69.303 53.5849 69.2504 53.5864C69.1979 53.588 69.1456 53.5792 69.0965 53.5604L64.1304 51.5013C63.9242 51.3982 63.8477 51.1666 63.9242 50.9605ZM69.5597 53.3022C69.5786 53.26 69.5888 53.2144 69.5899 53.1682C69.591 53.122 69.583 53.076 69.5662 53.0329C69.5494 52.9898 69.5242 52.9505 69.4921 52.9172C69.46 52.8839 69.4216 52.8573 69.3791 52.839L64.413 50.7809C64.2324 50.7033 64.0528 50.8064 63.9763 50.987C63.8987 51.1666 63.9763 51.3727 64.1569 51.4492L69.122 53.5083C69.3026 53.5604 69.5087 53.4828 69.5597 53.3022Z" fill="white"/>
<path d="M65.6243 54.4603C65.7273 54.2797 65.9324 54.2032 66.113 54.2797L68.2486 55.3613C68.4292 55.4378 68.5068 55.6694 68.4038 55.8756C68.3007 56.0562 68.0946 56.1327 67.915 56.0562L65.7794 54.9746C65.5988 54.8726 65.5212 54.6399 65.6243 54.4603Z" fill="#F3F3F3"/>
<path d="M65.5987 54.4338C65.6214 54.3856 65.6537 54.3424 65.6935 54.3071C65.7334 54.2717 65.78 54.2448 65.8306 54.228C65.8812 54.2112 65.9347 54.2048 65.9878 54.2094C66.0409 54.2139 66.0925 54.2291 66.1396 54.2542L68.2752 55.3359C68.3233 55.3585 68.3663 55.3908 68.4016 55.4305C68.4368 55.4703 68.4637 55.5168 68.4805 55.5673C68.4973 55.6178 68.5036 55.6711 68.4992 55.7241C68.4948 55.7771 68.4797 55.8286 68.4547 55.8756C68.4322 55.9238 68.4 55.9669 68.3603 56.0023C68.3205 56.0377 68.274 56.0646 68.2236 56.0815C68.1731 56.0984 68.1197 56.1049 68.0667 56.1005C68.0136 56.0962 67.962 56.0811 67.915 56.0562L65.7794 54.9746C65.5732 54.8981 65.4957 54.6399 65.5987 54.4349V54.4338ZM68.3772 55.8501C68.4547 55.6695 68.4037 55.4634 68.2231 55.3869L66.0875 54.3063C65.9334 54.2287 65.7273 54.3063 65.6242 54.4604C65.5477 54.641 65.5987 54.846 65.7783 54.9236L67.9139 56.0042C68.0946 56.0817 68.3007 56.0297 68.3772 55.8501Z" fill="white"/>
<path d="M61.8417 54.9491C61.9703 54.7684 62.1764 54.7174 62.356 54.846L66.8334 57.8316C67.014 57.9336 67.0395 58.1663 66.9364 58.3459C66.8079 58.5265 66.6017 58.5775 66.4222 58.4489L61.9448 55.4633C61.7642 55.3358 61.7132 55.1031 61.8417 54.9491Z" fill="#F3F3F3"/>
<path d="M61.8162 54.9236C61.8796 54.8382 61.9714 54.7783 62.0751 54.7547C62.1788 54.7311 62.2875 54.7454 62.3815 54.795L66.8589 57.7806C67.0395 57.9081 67.0905 58.1398 66.9619 58.3459C66.8987 58.4315 66.8069 58.4915 66.7032 58.5151C66.5994 58.5387 66.4907 58.5243 66.3967 58.4744L61.9182 55.4888C61.7121 55.3613 61.6877 55.1031 61.8162 54.9236ZM66.8844 58.3204C66.9874 58.1663 66.9619 57.9336 66.8079 57.8316L62.3305 54.846C62.2554 54.7983 62.1644 54.7823 62.0775 54.8017C61.9907 54.821 61.915 54.874 61.8672 54.9491C61.7642 55.1031 61.7897 55.3358 61.9437 55.4378L66.4222 58.4234C66.4973 58.4712 66.5883 58.4871 66.6751 58.4678C66.762 58.4485 66.8366 58.3954 66.8844 58.3204Z" fill="white"/>
<path d="M62.7927 58.6806C62.9202 58.5265 63.1529 58.4744 63.3069 58.6041L65.1854 60.0703C65.3395 60.1978 65.3661 60.4305 65.2375 60.5846C65.1089 60.7386 64.8762 60.7907 64.7222 60.6621L62.8437 59.1959C62.7687 59.1342 62.7212 59.0454 62.7116 58.9488C62.7021 58.8522 62.7312 58.7557 62.7927 58.6806Z" fill="#F3F3F3"/>
<path d="M62.7682 58.6551C62.8957 58.4745 63.1539 58.449 63.3335 58.5775L65.212 60.0438C65.3926 60.1723 65.4181 60.4305 65.2896 60.6101C65.161 60.7907 64.9028 60.8162 64.7233 60.6876L62.8447 59.2214C62.6641 59.0918 62.6386 58.8346 62.7682 58.6551ZM65.2386 60.5846C65.3661 60.4305 65.3406 60.2244 65.1865 60.0958L63.308 58.6296C63.2318 58.5785 63.1392 58.558 63.0487 58.5722C62.9581 58.5864 62.8762 58.6342 62.8193 58.7061C62.6907 58.8601 62.7162 59.0673 62.8703 59.1948L64.7487 60.6611C64.8249 60.7121 64.9175 60.7326 65.0081 60.7185C65.0987 60.7043 65.1817 60.6565 65.2386 60.5846Z" fill="white"/>
<path d="M58.9592 58.4235C59.1132 58.2694 59.3449 58.2694 59.4734 58.4235L63.2825 62.206C63.3505 62.2743 63.3887 62.3667 63.3887 62.4631C63.3887 62.5595 63.3505 62.6519 63.2825 62.7202C63.1284 62.8743 62.8957 62.8743 62.7682 62.7202L58.9592 58.9377C58.8972 58.8664 58.8631 58.7751 58.8631 58.6806C58.8631 58.5861 58.8972 58.4948 58.9592 58.4235Z" fill="#F3F3F3"/>
<path d="M58.9581 58.3969C59.0336 58.3226 59.1353 58.2809 59.2413 58.2809C59.3472 58.2809 59.4489 58.3226 59.5244 58.3969L63.3324 62.1794C63.4067 62.2549 63.4484 62.3566 63.4484 62.4625C63.4484 62.5685 63.4067 62.6702 63.3324 62.7457C63.257 62.8197 63.1555 62.8611 63.0498 62.8611C62.9441 62.8611 62.8427 62.8197 62.7672 62.7457L58.9581 58.9632C58.9161 58.929 58.8823 58.8859 58.8591 58.837C58.8358 58.7881 58.8238 58.7347 58.8238 58.6806C58.8238 58.6264 58.8358 58.573 58.8591 58.5241C58.8823 58.4752 58.9161 58.4311 58.9581 58.3969ZM63.2814 62.6947C63.3436 62.6285 63.3782 62.5411 63.3782 62.4503C63.3782 62.3595 63.3436 62.2721 63.2814 62.2059L59.4734 58.4234C59.4071 58.3615 59.3198 58.3271 59.2291 58.3271C59.1383 58.3271 59.051 58.3615 58.9847 58.4234C58.9225 58.4896 58.8879 58.577 58.8879 58.6678C58.8879 58.7586 58.9225 58.846 58.9847 58.9122L62.7927 62.6947C62.9212 62.8488 63.1274 62.8488 63.2814 62.6947Z" fill="white"/>
<path d="M59.1919 62.257C59.3459 62.1295 59.5776 62.1295 59.7061 62.2825L61.2765 64.0845C61.3372 64.1598 61.3658 64.256 61.3561 64.3523C61.3464 64.4486 61.299 64.5371 61.2244 64.5987C61.0704 64.7273 60.8387 64.7273 60.7102 64.5732L59.1387 62.7723C59.0112 62.6437 59.0378 62.411 59.1919 62.257Z" fill="#F3F3F3"/>
<path d="M59.1653 62.2569C59.2441 62.1863 59.3474 62.1493 59.4531 62.1541C59.5589 62.1589 59.6585 62.2049 59.7306 62.2824L61.3009 64.0844C61.455 64.2385 61.4284 64.4956 61.2489 64.6507C61.17 64.7213 61.0665 64.758 60.9608 64.7531C60.8551 64.7481 60.7556 64.7018 60.6836 64.6242L59.1132 62.8232C58.9857 62.6426 58.9857 62.3855 59.1653 62.2569ZM61.2234 64.5987C61.3774 64.4712 61.3774 64.264 61.2754 64.1099L59.7051 62.309C59.6422 62.2434 59.5567 62.2041 59.4659 62.1992C59.3752 62.1942 59.2859 62.224 59.2163 62.2824C59.0622 62.4121 59.0622 62.6182 59.1653 62.7712L60.7346 64.5732C60.8632 64.7272 61.0693 64.7272 61.2234 64.5987Z" fill="white"/>
<path d="M55.4859 61.2794C55.5253 61.2492 55.5707 61.2278 55.6191 61.2165C55.6675 61.2053 55.7177 61.2046 55.7664 61.2143C55.8151 61.2241 55.8611 61.2441 55.9014 61.2731C55.9417 61.3021 55.9754 61.3394 56.0001 61.3825L58.9847 65.8344C59.0877 66.015 59.0367 66.2456 58.8816 66.3486C58.8422 66.3788 58.7968 66.4003 58.7484 66.4115C58.7 66.4227 58.6498 66.4235 58.6011 66.4137C58.5524 66.404 58.5064 66.3839 58.4661 66.3549C58.4258 66.3259 58.3921 66.2886 58.3674 66.2456L55.3818 61.7937C55.2798 61.6141 55.3318 61.3825 55.4859 61.2794Z" fill="#F3F3F3"/>
<path d="M55.4837 61.254C55.5729 61.1936 55.6821 61.1706 55.7879 61.1899C55.8938 61.2091 55.9879 61.2692 56.0501 61.357L59.0357 65.8089C59.0663 65.8539 59.0874 65.9047 59.0975 65.9582C59.1076 66.0117 59.1065 66.0668 59.0943 66.1198C59.0821 66.1729 59.0591 66.2229 59.0267 66.2667C58.9944 66.3104 58.9533 66.347 58.9061 66.3741C58.8171 66.4346 58.708 66.4578 58.6021 66.4387C58.4962 66.4196 58.402 66.3598 58.3397 66.2721L55.3552 61.8203C55.3237 61.7755 55.3019 61.7246 55.2913 61.6709C55.2806 61.6172 55.2814 61.5619 55.2935 61.5085C55.3057 61.4551 55.3288 61.4049 55.3616 61.361C55.3944 61.3172 55.436 61.2807 55.4837 61.254ZM58.8806 66.3231C58.9556 66.2754 59.0086 66.1997 59.028 66.1129C59.0473 66.026 59.0313 65.935 58.9836 65.8599L55.998 61.408C55.896 61.254 55.6899 61.2274 55.5092 61.3315C55.472 61.3551 55.4397 61.3858 55.4144 61.4219C55.389 61.4579 55.371 61.4987 55.3614 61.5417C55.3518 61.5848 55.3509 61.6293 55.3585 61.6727C55.3662 61.7161 55.3824 61.7576 55.4062 61.7948L58.3918 66.2466C58.4949 66.3741 58.7265 66.4262 58.8806 66.3231Z" fill="white"/>
<path d="M54.9429 65.0874C55.0282 65.0364 55.1302 65.0212 55.2267 65.0453C55.3231 65.0694 55.406 65.1308 55.4572 65.216L56.6419 67.3006C56.7439 67.4813 56.6663 67.7129 56.4867 67.8149C56.4446 67.8404 56.3979 67.8573 56.3492 67.8647C56.3006 67.872 56.2509 67.8697 56.2032 67.8579C56.1554 67.846 56.1104 67.8249 56.0708 67.7956C56.0312 67.7664 55.9978 67.7296 55.9725 67.6874L54.7889 65.6028C54.7113 65.4221 54.7634 65.1905 54.9429 65.0874Z" fill="#F3F3F3"/>
<path d="M54.9451 65.0619C55.1512 64.9589 55.3828 65.0109 55.4859 65.1905L56.6695 67.2751C56.7726 67.4557 56.7205 67.7129 56.5154 67.8149C56.3093 67.9179 56.0777 67.8669 55.9736 67.6874L54.791 65.6027C54.6879 65.4221 54.7389 65.1905 54.9451 65.0619ZM56.4889 67.7894C56.644 67.6874 56.7205 67.4813 56.6174 67.3261L55.4338 65.2426C55.3848 65.1692 55.3111 65.1159 55.2261 65.0921C55.1412 65.0683 55.0505 65.0757 54.9706 65.1129C54.8165 65.216 54.7389 65.4221 54.8431 65.5762L56.0256 67.6608C56.1032 67.8149 56.3337 67.8924 56.4889 67.7894Z" fill="white"/>
<path d="M51.5217 63.3896C51.7278 63.312 51.9339 63.3896 52.0104 63.5702L54.0951 68.5363C54.1726 68.717 54.0696 68.9475 53.8889 69.0251C53.7094 69.1026 53.4777 69.0251 53.4002 68.8445L51.3166 63.8783C51.2391 63.6977 51.3421 63.4671 51.5217 63.3896Z" fill="#F3F3F3"/>
<path d="M51.5227 63.3641C51.6222 63.3246 51.7328 63.3239 51.8328 63.362C51.9327 63.4002 52.0147 63.4745 52.0625 63.5702L54.1471 68.5363C54.1841 68.6353 54.1805 68.7448 54.1372 68.8411C54.0938 68.9374 54.0141 69.0127 53.9155 69.0506C53.8161 69.0903 53.7054 69.0912 53.6053 69.053C53.5053 69.0148 53.4234 68.9403 53.3757 68.8445L51.2911 63.8783C51.2136 63.6977 51.3166 63.4671 51.5227 63.3641ZM53.8645 68.9996C54.0451 68.922 54.1216 68.7159 54.0451 68.5618L51.9594 63.5957C51.8829 63.4151 51.6768 63.3386 51.4972 63.4151C51.3166 63.4926 51.2391 63.6988 51.3166 63.8528L53.4012 68.8189C53.5043 68.9996 53.6839 69.0761 53.8645 68.9996Z" fill="white"/>
<path d="M50.2605 67.0435C50.4666 66.9659 50.6727 67.069 50.7492 67.2751L51.4962 69.5393C51.5727 69.7199 51.4441 69.9516 51.2646 70.0026C51.0584 70.0801 50.8523 69.9771 50.7758 69.7709L50.0289 67.5068C49.9524 67.3261 50.0554 67.1211 50.2605 67.0435Z" fill="#F3F3F3"/>
<path d="M50.235 67.0181C50.3339 66.9811 50.4435 66.9846 50.5398 67.028C50.6361 67.0714 50.7114 67.1511 50.7492 67.2497L51.4962 69.5139C51.5727 69.72 51.4441 69.9516 51.238 70.0281C51.1391 70.0654 51.0294 70.062 50.933 70.0185C50.8366 69.9751 50.7614 69.8953 50.7238 69.7965L49.9779 67.5334C49.9512 67.4309 49.9625 67.3222 50.0098 67.2275C50.057 67.1327 50.1371 67.0583 50.235 67.0181ZM51.238 69.9771C51.4186 69.925 51.5217 69.72 51.4696 69.5394L50.7238 67.2752C50.6728 67.0946 50.4666 67.0181 50.286 67.0691C50.1054 67.1211 50.0034 67.3262 50.0544 67.5068L50.8013 69.771C50.8143 69.8147 50.8364 69.8551 50.8661 69.8897C50.8957 69.9243 50.9324 69.9522 50.9736 69.9716C51.0148 69.9911 51.0597 70.0016 51.1052 70.0026C51.1508 70.0035 51.196 69.9948 51.238 69.9771Z" fill="white"/>
<path d="M47.226 64.7018C47.4321 64.6508 47.6382 64.7793 47.6637 64.9855L48.7443 70.2608C48.7953 70.4659 48.6412 70.6465 48.4362 70.6975C48.2301 70.7495 48.0239 70.621 47.9984 70.4148L46.9168 65.1395C46.9077 65.0418 46.9337 64.9441 46.9902 64.8638C47.0466 64.7836 47.1309 64.7261 47.226 64.7018Z" fill="#F3F3F3"/>
<path d="M47.2239 64.6762C47.3294 64.6539 47.4395 64.6735 47.5308 64.7311C47.6221 64.7886 47.6873 64.8795 47.7126 64.9844L48.7932 70.2607C48.8452 70.4658 48.6901 70.6974 48.4851 70.7229C48.3795 70.7453 48.2694 70.7256 48.1781 70.6681C48.0869 70.6106 48.0216 70.5197 47.9963 70.4148L46.9147 65.1395C46.8637 64.9334 46.9933 64.7272 47.2239 64.6762ZM48.433 70.6719C48.6136 70.6464 48.7411 70.4658 48.7156 70.2597L47.6351 64.9844C47.6096 64.8048 47.4034 64.6762 47.2239 64.7272C47.0432 64.7538 46.9157 64.9334 46.9402 65.1395L48.0218 70.4148C48.0728 70.5954 48.2524 70.6974 48.433 70.6719Z" fill="white"/>
<path d="M45.2689 68.0476C45.3672 68.0346 45.4668 68.0592 45.5479 68.1162C45.6289 68.1733 45.6856 68.2588 45.7066 68.3557L46.0147 70.7229C46.0252 70.8218 45.9959 70.9208 45.9333 70.9981C45.8707 71.0754 45.78 71.1247 45.6811 71.1352C45.5828 71.1481 45.4832 71.1236 45.4021 71.0665C45.3211 71.0094 45.2644 70.924 45.2434 70.8271L44.9352 68.4587C44.9251 68.36 44.9546 68.2613 45.0171 68.1842C45.0796 68.1072 45.1702 68.058 45.2689 68.0476Z" fill="#F3F3F3"/>
<path d="M45.2699 68.021C45.5016 67.9955 45.7077 68.1506 45.7332 68.3557L46.0413 70.7229C46.0517 70.8286 46.0197 70.9341 45.9523 71.0161C45.885 71.0982 45.7878 71.1502 45.6822 71.1607C45.4506 71.1862 45.2444 71.0321 45.2189 70.826L44.9108 68.4588C44.9004 68.3531 44.9324 68.2476 44.9998 68.1655C45.0671 68.0835 45.1643 68.0315 45.2699 68.021ZM45.6556 71.1097C45.8362 71.0831 45.9903 70.9036 45.9648 70.7229L45.6567 68.3557C45.6413 68.2677 45.5924 68.1891 45.5203 68.1364C45.4482 68.0837 45.3584 68.061 45.2699 68.0731C45.0893 68.0986 44.9352 68.2792 44.9618 68.4588L45.2699 70.826C45.2954 71.0066 45.4761 71.1352 45.6556 71.1097Z" fill="white"/>
<path d="M42.6179 65.165C42.8241 65.165 43.0036 65.3191 43.0036 65.5263V70.9025C43.0036 71.1097 42.823 71.2638 42.6179 71.2638C42.4118 71.2638 42.2323 71.1097 42.2323 70.9025V65.5263C42.2578 65.3202 42.4129 65.165 42.6179 65.165Z" fill="#F3F3F3"/>
<path d="M42.619 65.1395C42.8506 65.1395 43.0312 65.3202 43.0312 65.5252V70.9036C43.0312 71.1097 42.8506 71.2893 42.619 71.2893C42.3874 71.2893 42.2078 71.1087 42.2078 70.9036V65.5252C42.2078 65.3191 42.4129 65.1395 42.619 65.1395ZM42.619 71.2383C42.7996 71.2383 42.9792 71.0842 42.9792 70.9036V65.5252C42.9792 65.3446 42.8251 65.1905 42.619 65.1905C42.4384 65.1905 42.2588 65.3457 42.2588 65.5252V70.9036C42.2843 71.0842 42.4394 71.2383 42.619 71.2383Z" fill="white"/>
<path d="M40.0456 68.0475C40.2507 68.073 40.4058 68.2271 40.4058 68.4332L40.2252 70.826C40.215 70.9249 40.166 71.0157 40.0889 71.0784C40.0118 71.1412 39.9129 71.1708 39.814 71.1607C39.6079 71.1352 39.4527 70.98 39.4527 70.775L39.6334 68.3812C39.6384 68.3321 39.6531 68.2845 39.6765 68.2411C39.7 68.1977 39.7318 68.1594 39.7701 68.1283C39.8084 68.0972 39.8524 68.074 39.8997 68.06C39.947 68.0459 39.9966 68.0424 40.0456 68.0475Z" fill="#F3F3F3"/>
<path d="M40.0456 68.021C40.15 68.0287 40.2477 68.0754 40.3194 68.1517C40.391 68.2281 40.4313 68.3286 40.4324 68.4333L40.2517 70.826C40.2262 71.0321 40.0467 71.2117 39.8151 71.1872C39.7107 71.1795 39.6129 71.1329 39.5413 71.0565C39.4697 70.9802 39.4294 70.8797 39.4283 70.775L39.6089 68.3812C39.6344 68.1496 39.814 67.9955 40.0456 68.021ZM39.814 71.1341C39.9946 71.1341 40.1752 71.0066 40.1752 70.826L40.3559 68.4333C40.3559 68.2526 40.2262 68.0986 40.0201 68.072C39.8395 68.072 39.6599 68.2016 39.6599 68.3822L39.4793 70.775C39.4793 70.9556 39.6344 71.1097 39.8151 71.1352L39.814 71.1341Z" fill="white"/>
<path d="M38.114 64.7018C38.2111 64.7226 38.2968 64.7791 38.3541 64.8602C38.4114 64.9414 38.4361 65.0411 38.4232 65.1395L37.3681 70.4148C37.3171 70.621 37.1365 70.7495 36.9304 70.6975C36.8335 70.6764 36.748 70.6198 36.6909 70.5387C36.6338 70.4576 36.6093 70.358 36.6222 70.2597L37.6773 64.9844C37.7028 64.8048 37.9089 64.6763 38.114 64.7018Z" fill="#F3F3F3"/>
<path d="M38.114 64.6763C38.218 64.697 38.3103 64.7562 38.3724 64.8421C38.4345 64.9281 38.4617 65.0343 38.4487 65.1395L37.3936 70.4149C37.3683 70.5197 37.3031 70.6106 37.2118 70.6681C37.1205 70.7257 37.0104 70.7454 36.9049 70.723C36.8009 70.7023 36.7086 70.6431 36.6465 70.5571C36.5844 70.4712 36.5572 70.3649 36.5702 70.2597L37.6253 64.9844C37.6763 64.7794 37.8824 64.6497 38.114 64.6763ZM36.9049 70.672C36.9929 70.6861 37.0831 70.6678 37.1587 70.6205C37.2343 70.5733 37.2902 70.5002 37.3161 70.4149L38.3711 65.1395C38.3854 65.0477 38.3642 64.954 38.3116 64.8773C38.2591 64.8007 38.1793 64.747 38.0885 64.7273C38.0002 64.7132 37.9097 64.7316 37.8339 64.779C37.7581 64.8265 37.7021 64.8999 37.6763 64.9855L36.6212 70.2597C36.5957 70.4659 36.7243 70.621 36.9049 70.672Z" fill="white"/>
<path d="M35.0274 67.018C35.0766 67.0296 35.123 67.0508 35.1639 67.0804C35.2048 67.11 35.2394 67.1474 35.2658 67.1905C35.2922 67.2336 35.3097 67.2814 35.3175 67.3313C35.3253 67.3812 35.3231 67.4322 35.3111 67.4812L34.6672 69.7975C34.6162 70.0026 34.4101 70.1056 34.204 70.0546C34.1301 70.0371 34.0631 69.9979 34.0116 69.942C33.9601 69.8862 33.9265 69.8163 33.915 69.7412C33.9073 69.6913 33.9094 69.6404 33.9214 69.5914L34.5642 67.2751C34.6162 67.069 34.8224 66.967 35.0274 67.018Z" fill="#F3F3F3"/>
<path d="M35.0274 66.9925C35.2336 67.0435 35.3887 67.2752 35.3111 67.4813L34.6672 69.7975C34.6375 69.8983 34.5702 69.9837 34.4792 70.0363C34.3883 70.0889 34.2807 70.1046 34.1785 70.0801C33.9724 70.0291 33.8183 69.7975 33.8959 69.5914L34.5387 67.2752C34.5907 67.069 34.7958 66.9415 35.0274 66.9925ZM34.1785 70.0026C34.3591 70.0546 34.5642 69.9516 34.6162 69.771L35.2591 67.4547C35.3111 67.2751 35.2081 67.0956 35.0019 67.0435C34.8213 66.9915 34.6162 67.0945 34.5642 67.2752L33.9214 69.5914C33.9073 69.6794 33.9255 69.7696 33.9728 69.8452C34.0201 69.9208 34.0932 69.9767 34.1785 70.0026Z" fill="white"/>
<path d="M33.7673 63.3896C33.9734 63.4661 34.051 63.6977 33.9734 63.8783L31.9154 68.8445C31.8378 69.0251 31.6062 69.1282 31.4266 69.0251C31.246 68.922 31.1429 68.717 31.2205 68.5363L33.2786 63.5692C33.3561 63.3896 33.5867 63.2865 33.7673 63.3896Z" fill="#F3F3F3"/>
<path d="M33.7662 63.3641C33.8652 63.4015 33.9453 63.4766 33.989 63.5731C34.0326 63.6695 34.0362 63.7793 33.9989 63.8783L31.9387 68.8444C31.8622 69.0506 31.6306 69.1281 31.399 69.0506C31.3002 69.0129 31.2204 68.9377 31.1769 68.8413C31.1335 68.7449 31.1301 68.6352 31.1674 68.5363L33.2254 63.5691C33.3285 63.3641 33.5601 63.261 33.7662 63.3641ZM31.4256 68.9996C31.6062 69.0761 31.8112 68.9996 31.8888 68.8189L33.9469 63.8528C34.0244 63.6722 33.9214 63.4916 33.7418 63.4151C33.6996 63.3962 33.654 63.386 33.6078 63.3849C33.5615 63.3838 33.5156 63.3918 33.4725 63.4086C33.4294 63.4254 33.3901 63.4506 33.3568 63.4827C33.3235 63.5148 33.2969 63.5532 33.2786 63.5957L31.2194 68.5618C31.1948 68.6474 31.2021 68.739 31.24 68.8195C31.2779 68.9001 31.3439 68.9641 31.4256 68.9996Z" fill="white"/>
<path d="M30.2919 65.0364C30.4725 65.1395 30.549 65.3446 30.4725 65.5252L29.3909 67.6608C29.3676 67.705 29.3357 67.7442 29.2971 67.7759C29.2585 67.8077 29.214 67.8314 29.1661 67.8458C29.1182 67.8601 29.0679 67.8648 29.0182 67.8595C28.9685 67.8542 28.9204 67.839 28.8766 67.8149C28.696 67.7129 28.6195 67.5068 28.696 67.3261L29.7776 65.1905C29.8009 65.1463 29.8328 65.1072 29.8714 65.0754C29.91 65.0437 29.9545 65.0199 30.0024 65.0056C30.0503 64.9912 30.1006 64.9866 30.1503 64.9919C30.2 64.9972 30.2481 65.0123 30.2919 65.0364Z" fill="#F3F3F3"/>
<path d="M30.2919 65.0109C30.3401 65.0335 30.3832 65.0657 30.4186 65.1054C30.4539 65.1451 30.4809 65.1917 30.4978 65.2421C30.5147 65.2926 30.5212 65.346 30.5168 65.399C30.5125 65.452 30.4974 65.5036 30.4725 65.5507L29.3909 67.6863C29.3683 67.7345 29.3361 67.7776 29.2964 67.813C29.2567 67.8484 29.2102 67.8753 29.1597 67.8922C29.1092 67.9091 29.0559 67.9156 29.0028 67.9112C28.9498 67.9069 28.8982 67.8918 28.8511 67.8669C28.8028 67.8444 28.7596 67.8122 28.7241 67.7724C28.6886 67.7325 28.6616 67.6859 28.6447 67.6353C28.6278 67.5847 28.6214 67.5312 28.6258 67.4781C28.6302 67.4249 28.6454 67.3732 28.6705 67.3261L29.7511 65.1905C29.7736 65.1422 29.8058 65.099 29.8456 65.0635C29.8855 65.028 29.9321 65.001 29.9827 64.9841C30.0333 64.9672 30.0868 64.9607 30.1399 64.9652C30.1931 64.9696 30.2448 64.9859 30.2919 65.0109ZM28.8766 67.8159C29.0573 67.8924 29.2623 67.8414 29.3388 67.6608L30.4204 65.5252C30.4969 65.3711 30.4204 65.165 30.2664 65.0619C30.0858 64.9854 29.8796 65.0364 29.8031 65.216L28.7215 67.3516C28.645 67.5067 28.7215 67.7139 28.8766 67.8159Z" fill="white"/>
<path d="M29.7787 61.2284C29.9593 61.3559 30.0103 61.5886 29.8817 61.7427L26.8961 66.1946C26.7941 66.3752 26.5614 66.4007 26.3819 66.2976C26.2012 66.1691 26.1502 65.9364 26.2788 65.7823L29.2644 61.3304C29.2893 61.2874 29.323 61.2503 29.3633 61.2214C29.4037 61.1924 29.4497 61.1725 29.4984 61.1628C29.5471 61.1532 29.5973 61.154 29.6456 61.1654C29.694 61.1767 29.7393 61.1982 29.7787 61.2284Z" fill="#F3F3F3"/>
<path d="M29.7776 61.2019C29.9582 61.3315 30.0092 61.5886 29.9062 61.7682L26.9206 66.2201C26.8592 66.3086 26.7652 66.3691 26.6592 66.3884C26.5533 66.4077 26.444 66.3843 26.3553 66.3232C26.2697 66.2598 26.2096 66.1678 26.186 66.0638C26.1624 65.9599 26.1769 65.851 26.2268 65.7568L29.2124 61.305C29.2745 61.2174 29.3684 61.1576 29.474 61.1383C29.5796 61.1191 29.6886 61.1419 29.7776 61.2019ZM26.3808 66.2721C26.5349 66.3741 26.7676 66.3486 26.8696 66.1946L29.8552 61.7427C29.9029 61.6676 29.9189 61.5766 29.8995 61.4898C29.8802 61.4029 29.8272 61.3273 29.7521 61.2795C29.5981 61.1764 29.3664 61.203 29.2634 61.356L26.2778 65.7823C26.2297 65.8617 26.2136 65.9563 26.2328 66.0471C26.2519 66.1378 26.3048 66.219 26.3808 66.2721Z" fill="white"/>
<path d="M26.0206 62.1794C26.1757 62.309 26.2267 62.5406 26.0982 62.6947L24.6075 64.5732C24.5459 64.6482 24.457 64.6957 24.3604 64.7052C24.2638 64.7148 24.1673 64.6857 24.0922 64.6242C23.9381 64.4967 23.8861 64.264 24.0157 64.1099L25.5074 62.2314C25.5691 62.1564 25.6579 62.1089 25.7545 62.0994C25.8512 62.0898 25.9476 62.119 26.0227 62.1804L26.0206 62.1794Z" fill="#F3F3F3"/>
<path d="M26.0472 62.155C26.2278 62.2825 26.2533 62.5406 26.1237 62.7202L24.6319 64.5987C24.5034 64.7793 24.2462 64.8048 24.0656 64.6508C23.885 64.5211 23.8595 64.264 23.9891 64.0845L25.4809 62.206C25.6094 62.0253 25.8666 61.9998 26.0472 62.155ZM24.1177 64.5987C24.2717 64.7273 24.4779 64.7018 24.6064 64.5477L26.0982 62.6692C26.1493 62.5931 26.1697 62.5004 26.1556 62.4099C26.1414 62.3193 26.0936 62.2374 26.0217 62.1805C25.8666 62.0519 25.6604 62.0774 25.5329 62.2315L24.0401 64.11C23.9371 64.264 23.9636 64.4956 24.1177 64.5987Z" fill="white"/>
<path d="M26.2788 58.3204C26.4329 58.4745 26.4329 58.7061 26.2788 58.8347L22.4708 62.6171C22.4025 62.6855 22.3098 62.7239 22.2132 62.7239C22.1165 62.7239 22.0238 62.6855 21.9555 62.6171C21.828 62.4896 21.8014 62.2315 21.9555 62.1029L25.738 58.3204C25.7729 58.2836 25.8149 58.2542 25.8614 58.2341C25.908 58.2141 25.9582 58.2037 26.0089 58.2037C26.0597 58.2037 26.1098 58.2141 26.1564 58.2341C26.203 58.2542 26.244 58.2836 26.2788 58.3204Z" fill="#F3F3F3"/>
<path d="M26.3043 58.2949C26.3783 58.3704 26.4197 58.4718 26.4197 58.5775C26.4197 58.6832 26.3783 58.7847 26.3043 58.8601L22.4963 62.6426C22.4208 62.7169 22.3191 62.7586 22.2132 62.7586C22.1072 62.7586 22.0055 62.7169 21.93 62.6426C21.856 62.5672 21.8146 62.4657 21.8146 62.36C21.8146 62.2543 21.856 62.1529 21.93 62.0774L25.738 58.2949C25.8135 58.2206 25.9152 58.179 26.0212 58.179C26.1271 58.179 26.2288 58.2206 26.3043 58.2949ZM21.9555 62.6171C22.0218 62.6791 22.1091 62.7135 22.1999 62.7135C22.2906 62.7135 22.3779 62.6791 22.4442 62.6171L26.2533 58.8346C26.3155 58.7685 26.3501 58.6811 26.3501 58.5903C26.3501 58.4995 26.3155 58.4121 26.2533 58.3459C26.1871 58.2837 26.0997 58.2491 26.0089 58.2491C25.9181 58.2491 25.8308 58.2837 25.7646 58.3459L21.9555 62.1284C21.828 62.257 21.828 62.4631 21.9555 62.6171Z" fill="white"/>
<path d="M22.4187 58.5265C22.5462 58.6806 22.5462 58.9122 22.3922 59.0408L20.5647 60.5846C20.4895 60.6455 20.3934 60.6743 20.2971 60.6647C20.2008 60.6552 20.1122 60.6081 20.0504 60.5336C19.9219 60.3785 19.9219 60.1469 20.0759 60.0183L21.9034 58.4745C21.9786 58.4135 22.0749 58.3847 22.1713 58.3944C22.2677 58.4042 22.3562 58.4517 22.4177 58.5265H22.4187Z" fill="#F3F3F3"/>
<path d="M22.4443 58.4999C22.5983 58.6806 22.5728 58.9377 22.4188 59.0662L20.5912 60.6101C20.4372 60.7652 20.1801 60.7397 20.026 60.5591C19.8709 60.3784 19.8964 60.1213 20.0515 59.9927L21.879 58.4489C22.032 58.2949 22.2902 58.3204 22.4443 58.501V58.4999ZM20.077 60.5336C20.2056 60.6876 20.4117 60.6876 20.5657 60.5846L22.3933 59.0407C22.4587 58.9777 22.4978 58.8922 22.5025 58.8014C22.5073 58.7106 22.4773 58.6215 22.4188 58.552C22.2902 58.3979 22.0841 58.3979 21.93 58.501L20.1025 60.0448C19.9484 60.1723 19.9484 60.3795 20.077 60.5336Z" fill="white"/>
<path d="M23.4494 54.8205C23.4797 54.86 23.5013 54.9056 23.5125 54.9541C23.5238 55.0026 23.5245 55.053 23.5146 55.1019C23.5048 55.1507 23.4845 55.1969 23.4553 55.2372C23.4261 55.2776 23.3886 55.3112 23.3452 55.3358L18.87 58.3204C18.6894 58.4234 18.4577 58.3714 18.3547 58.2173C18.3243 58.1779 18.3027 58.1324 18.2914 58.0839C18.28 58.0354 18.2792 57.985 18.289 57.9362C18.2987 57.8874 18.3189 57.8412 18.348 57.8008C18.3771 57.7604 18.4145 57.7267 18.4577 57.702L22.9351 54.7174C23.0902 54.6154 23.3197 54.6664 23.4494 54.8205Z" fill="#F3F3F3"/>
<path d="M23.4738 54.8205C23.5341 54.9098 23.5569 55.0191 23.5374 55.125C23.518 55.2309 23.4577 55.3249 23.3697 55.3869L18.8934 58.3725C18.8483 58.4033 18.7974 58.4245 18.7438 58.4347C18.6902 58.4449 18.635 58.4438 18.5818 58.4317C18.5286 58.4195 18.4785 58.3964 18.4347 58.3639C18.3908 58.3314 18.3542 58.2902 18.3271 58.2429C18.267 58.1538 18.2442 58.0449 18.2635 57.9392C18.2827 57.8336 18.3425 57.7397 18.4301 57.6776L22.9075 54.692C22.9524 54.6613 23.0032 54.6402 23.0567 54.63C23.1101 54.6198 23.1651 54.6208 23.2182 54.6329C23.2712 54.645 23.3212 54.6679 23.3651 54.7001C23.4089 54.7324 23.4455 54.7734 23.4727 54.8205H23.4738ZM18.3781 58.1919C18.4811 58.3459 18.6862 58.398 18.8413 58.2949L23.3187 55.3093C23.4738 55.2073 23.5248 55.0012 23.3962 54.8205C23.3485 54.7455 23.2728 54.6925 23.186 54.6731C23.0991 54.6538 23.0081 54.6698 22.933 54.7175L18.4556 57.7031C18.3836 57.7599 18.3355 57.8417 18.3212 57.9323C18.3068 58.0229 18.3271 58.1156 18.3781 58.1919Z" fill="white"/>
<path d="M19.6138 54.2808C19.6648 54.366 19.68 54.4681 19.6559 54.5645C19.6318 54.6609 19.5704 54.7438 19.4852 54.795L17.4006 55.9787C17.2199 56.0817 16.9894 56.0042 16.8863 55.8246C16.8609 55.7823 16.844 55.7355 16.8367 55.6867C16.8294 55.6379 16.8317 55.5881 16.8437 55.5403C16.8556 55.4924 16.8769 55.4473 16.9063 55.4077C16.9356 55.3681 16.9726 55.3346 17.0149 55.3093L19.0995 54.1257C19.2801 54.0226 19.5107 54.1012 19.6138 54.2808Z" fill="#F3F3F3"/>
<path d="M19.6403 54.2542C19.7423 54.4603 19.6913 54.692 19.5107 54.795L17.4261 55.9786C17.2465 56.0817 16.9894 56.0041 16.8863 55.8246C16.7832 55.6185 16.8342 55.3868 17.0149 55.2838L19.0995 54.1001C19.2801 53.9971 19.5372 54.0746 19.6392 54.2542H19.6403ZM16.9118 55.7991C17.0149 55.9786 17.2199 56.0307 17.3751 55.9266L19.4597 54.743C19.5326 54.6938 19.5855 54.6202 19.6091 54.5355C19.6327 54.4508 19.6253 54.3605 19.5882 54.2808C19.4852 54.1001 19.2801 54.0481 19.125 54.1511L17.0404 55.3348C16.8863 55.4123 16.8342 55.6185 16.9129 55.7991H16.9118Z" fill="white"/>
<path d="M21.3371 50.8574C21.4147 51.0635 21.3371 51.2696 21.131 51.3461L16.1649 53.4053C15.9842 53.4828 15.7537 53.3798 15.6761 53.1991C15.5986 52.993 15.6761 52.7879 15.8822 52.7104L20.8484 50.6523C21.029 50.5748 21.2606 50.6513 21.3371 50.8574Z" fill="#F3F3F3"/>
<path d="M21.3626 50.8319C21.4027 50.9313 21.4039 51.0422 21.3659 51.1424C21.3279 51.2427 21.2535 51.3249 21.1576 51.3727L16.1904 53.4308C16.0915 53.468 15.9818 53.4646 15.8854 53.4212C15.789 53.3778 15.7138 53.2979 15.6761 53.1991C15.6364 53.0997 15.6355 52.989 15.6737 52.889C15.7119 52.789 15.7864 52.707 15.8822 52.6594L20.8484 50.6003C20.9473 50.563 21.057 50.5664 21.1534 50.6098C21.2497 50.6532 21.325 50.7331 21.3626 50.8319ZM15.7271 53.1736C15.8047 53.3543 16.0108 53.4308 16.1649 53.3798L21.131 51.3206C21.1735 51.3024 21.212 51.2759 21.2442 51.2426C21.2764 51.2094 21.3016 51.17 21.3185 51.1269C21.3353 51.0838 21.3433 51.0377 21.3422 50.9915C21.341 50.9452 21.3306 50.8996 21.3116 50.8574C21.2759 50.7759 21.2119 50.7102 21.1313 50.6725C21.0508 50.6347 20.9593 50.6276 20.8739 50.6523L15.9077 52.7104C15.8653 52.7287 15.8269 52.7553 15.7948 52.7886C15.7627 52.8219 15.7375 52.8612 15.7207 52.9043C15.7039 52.9474 15.6958 52.9934 15.6969 53.0396C15.698 53.0858 15.7083 53.1314 15.7271 53.1736Z" fill="white"/>
<path d="M17.7108 49.5707C17.7873 49.7768 17.6842 49.983 17.4792 50.0595L15.2139 50.8064C15.0333 50.8829 14.8027 50.7554 14.7507 50.5748C14.6742 50.3687 14.7762 50.1625 14.9823 50.086L17.2476 49.3391C17.4271 49.2626 17.6333 49.3657 17.7108 49.5707Z" fill="#F3F3F3"/>
<path d="M17.7352 49.5463C17.7541 49.5968 17.7623 49.6507 17.7594 49.7045C17.7565 49.7584 17.7426 49.8111 17.7185 49.8593C17.6943 49.9075 17.6606 49.9503 17.6192 49.9849C17.5779 50.0195 17.5298 50.0453 17.4781 50.0605L15.2139 50.8064C15.0078 50.8829 14.7762 50.7554 14.6986 50.5493C14.6796 50.4986 14.6713 50.4446 14.6742 50.3905C14.6771 50.3365 14.6911 50.2837 14.7153 50.2353C14.7395 50.1869 14.7735 50.1441 14.8151 50.1094C14.8566 50.0748 14.9049 50.0491 14.9568 50.034L17.2199 49.2881C17.3224 49.2614 17.4311 49.2727 17.5258 49.32C17.6206 49.3673 17.695 49.4483 17.7352 49.5463ZM14.7496 50.5238C14.8028 50.7044 15.0078 50.8064 15.1884 50.7554L17.4516 50.0085C17.6322 49.9575 17.7097 49.7513 17.6587 49.5718C17.6067 49.3911 17.4006 49.2881 17.221 49.3402L14.9568 50.086C14.8735 50.1194 14.8058 50.1831 14.7676 50.2643C14.7293 50.3456 14.7222 50.4383 14.7496 50.5238Z" fill="white"/>
<path d="M20.0271 46.5097C20.0781 46.7147 19.9495 46.9209 19.7434 46.9464L14.4681 47.9759C14.263 48.028 14.0824 47.8728 14.0314 47.6678C13.9793 47.4617 14.1079 47.2555 14.314 47.229L19.5893 46.2005C19.7954 46.175 20.0016 46.3046 20.0271 46.5097Z" fill="#F3F3F3"/>
<path d="M20.0791 46.5096C20.1015 46.6152 20.0818 46.7253 20.0243 46.8166C19.9667 46.9078 19.8759 46.9731 19.771 46.9984L14.4946 48.0269C14.2896 48.0789 14.0834 47.9249 14.0324 47.6922C14.0101 47.5866 14.0297 47.4765 14.0873 47.3852C14.1448 47.294 14.2357 47.2287 14.3406 47.2034L19.6159 46.1749C19.822 46.1229 20.0271 46.2769 20.0791 46.5096ZM14.0834 47.6677C14.1089 47.8473 14.2896 47.9759 14.4691 47.9504L19.7444 46.9208C19.9251 46.8953 20.0526 46.6892 20.0016 46.5086C19.9862 46.4208 19.9374 46.3424 19.8655 46.2897C19.7937 46.237 19.7042 46.2142 19.6159 46.2259L14.3406 47.2555C14.1599 47.3065 14.0324 47.4882 14.0834 47.6677Z" fill="white"/>
<path d="M16.7333 44.5281C16.7588 44.7332 16.6303 44.9138 16.4252 44.9393L14.0569 45.223C14.0078 45.2281 13.9582 45.2235 13.9109 45.2094C13.8636 45.1952 13.8196 45.1719 13.7814 45.1407C13.7432 45.1095 13.7115 45.071 13.6882 45.0275C13.6649 44.984 13.6505 44.9363 13.6457 44.8872C13.6379 44.8399 13.6397 44.7914 13.6511 44.7448C13.6626 44.6982 13.6833 44.6543 13.7121 44.6159C13.7408 44.5775 13.7771 44.5453 13.8186 44.5213C13.8602 44.4972 13.9062 44.4818 13.9538 44.476L16.3211 44.1934C16.5017 44.1668 16.7078 44.3209 16.7333 44.5281Z" fill="#F3F3F3"/>
<path d="M16.7577 44.5281C16.7832 44.7597 16.6281 44.9648 16.4231 44.9903L14.0558 45.274C14.0034 45.2791 13.9505 45.2738 13.9001 45.2585C13.8498 45.2432 13.8029 45.2181 13.7623 45.1846C13.7216 45.1512 13.6879 45.11 13.6632 45.0636C13.6385 45.0171 13.6231 44.9662 13.6181 44.9138C13.5926 44.6821 13.7456 44.476 13.9527 44.4505L16.32 44.1668C16.3724 44.1619 16.4253 44.1673 16.4756 44.1827C16.5259 44.1982 16.5727 44.2234 16.6132 44.257C16.6538 44.2905 16.6873 44.3317 16.7119 44.3782C16.7365 44.4248 16.7518 44.4757 16.7567 44.5281H16.7577ZM13.6436 44.8883C13.6691 45.0689 13.8497 45.223 14.0292 45.1964L16.3965 44.9138C16.4845 44.8986 16.5631 44.85 16.616 44.7781C16.6689 44.7062 16.6919 44.6166 16.6802 44.5281C16.6547 44.3475 16.4741 44.1934 16.2945 44.2189L13.9262 44.5026C13.8384 44.518 13.76 44.5667 13.7073 44.6386C13.6546 44.7105 13.6318 44.7999 13.6436 44.8883Z" fill="white"/>
<path d="M19.6137 42.0312C19.6137 42.2373 19.4597 42.4179 19.2536 42.4179H13.8762C13.6701 42.4179 13.515 42.2373 13.515 42.0323C13.515 41.8261 13.6701 41.6455 13.8762 41.6455H19.2536C19.4597 41.6455 19.6148 41.8261 19.6148 42.0323H19.6137V42.0312Z" fill="#F3F3F3"/>
<path d="M19.6403 42.0312C19.6403 42.2628 19.4597 42.4434 19.2546 42.4434H13.8762C13.6712 42.4434 13.4906 42.2628 13.4906 42.0312C13.4906 41.7996 13.6712 41.62 13.8762 41.62H19.2546C19.4608 41.62 19.6403 41.8006 19.6403 42.0312ZM13.5416 42.0057C13.5416 42.1863 13.6967 42.3669 13.8762 42.3669H19.2546C19.4353 42.3669 19.5893 42.2118 19.5893 42.0057C19.5893 41.8251 19.4342 41.6455 19.2546 41.6455H13.8762C13.6956 41.671 13.5426 41.8261 13.5426 42.0067L13.5416 42.0057Z" fill="white"/>
<path d="M16.7588 39.4323C16.7333 39.6385 16.5782 39.7936 16.3721 39.7936L13.9793 39.613C13.9302 39.6079 13.8827 39.5932 13.8393 39.5698C13.7959 39.5463 13.7575 39.5145 13.7265 39.4763C13.6954 39.438 13.6721 39.3939 13.6581 39.3466C13.6441 39.2993 13.6395 39.2498 13.6446 39.2007C13.6701 38.9946 13.8253 38.8405 14.0314 38.8405L16.4241 39.0211C16.6048 39.0466 16.7588 39.2273 16.7588 39.4323Z" fill="#E2E2E2"/>
<path d="M16.7843 39.4323C16.7764 39.5364 16.7297 39.6336 16.6536 39.705C16.5775 39.7764 16.4775 39.8167 16.3731 39.818L13.9793 39.6384C13.7743 39.6129 13.5936 39.4323 13.6202 39.2007C13.6281 39.0967 13.6748 38.9994 13.7509 38.928C13.827 38.8566 13.927 38.8163 14.0314 38.815L16.4241 38.9956C16.6303 39.0211 16.7843 39.2272 16.7843 39.4323ZM13.6457 39.2007C13.6202 39.3813 13.7732 39.5619 13.9538 39.5619L16.3476 39.7415C16.5283 39.7415 16.6823 39.6129 16.7078 39.4068C16.7127 39.3627 16.7084 39.318 16.6953 39.2755C16.6822 39.2331 16.6606 39.1938 16.6317 39.1601C16.6028 39.1263 16.5673 39.0988 16.5274 39.0793C16.4875 39.0598 16.4441 39.0487 16.3997 39.0466L14.0059 38.866C13.8253 38.866 13.6712 39.0211 13.6446 39.2018L13.6457 39.2007Z" fill="white"/>
<path d="M20.0791 37.5538C20.0581 37.6508 20.0015 37.7364 19.9204 37.7936C19.8394 37.8509 19.7398 37.8756 19.6414 37.863L14.3661 36.7824C14.1599 36.7304 14.0314 36.5508 14.0834 36.3447C14.1044 36.248 14.161 36.1627 14.2418 36.1056C14.3227 36.0486 14.422 36.0239 14.5201 36.0366L19.7954 37.0916C19.9761 37.1426 20.1036 37.3487 20.0791 37.5538Z" fill="#F3F3F3"/>
<path d="M20.1036 37.5538C20.0829 37.6578 20.0236 37.7501 19.9377 37.8122C19.8518 37.8743 19.7455 37.9016 19.6403 37.8885L14.3661 36.8335C14.261 36.8084 14.1699 36.7432 14.1121 36.6519C14.0543 36.5607 14.0345 36.4504 14.0569 36.3447C14.0775 36.2407 14.1368 36.1484 14.2227 36.0863C14.3087 36.0242 14.4149 35.997 14.5201 36.01L19.7954 37.0651C20.0016 37.1171 20.1291 37.3222 20.1036 37.5538ZM14.1079 36.3447C14.0938 36.4328 14.112 36.5229 14.1593 36.5985C14.2066 36.6741 14.2797 36.73 14.365 36.7559L19.6414 37.811C19.733 37.825 19.8265 37.8036 19.9029 37.7511C19.9793 37.6985 20.0328 37.6189 20.0526 37.5283C20.0667 37.4402 20.0485 37.3498 20.0012 37.2741C19.954 37.1983 19.8809 37.1422 19.7954 37.1161L14.5201 36.0621C14.314 36.0366 14.1599 36.1652 14.1079 36.3447Z" fill="white"/>
<path d="M17.7607 34.4662C17.7491 34.5154 17.7279 34.5617 17.6983 34.6026C17.6687 34.6436 17.6313 34.6782 17.5882 34.7046C17.5452 34.7309 17.4973 34.7485 17.4474 34.7563C17.3975 34.7641 17.3466 34.7619 17.2975 34.7499L14.9812 34.106C14.7751 34.054 14.6731 33.8489 14.7241 33.6428C14.7358 33.5937 14.7571 33.5475 14.7868 33.5067C14.8165 33.4659 14.8539 33.4314 14.8969 33.4051C14.94 33.3788 14.9878 33.3613 15.0377 33.3536C15.0875 33.3459 15.1384 33.3481 15.1874 33.3602L17.5036 34.003C17.7087 34.055 17.8117 34.2601 17.7607 34.4662Z" fill="#F3F3F3"/>
<path d="M17.7873 34.4662C17.7363 34.6723 17.5047 34.8274 17.2986 34.7499L14.9823 34.106C14.8817 34.076 14.7964 34.0087 14.7439 33.9178C14.6913 33.8269 14.6755 33.7194 14.6997 33.6172C14.7507 33.4111 14.9823 33.256 15.1884 33.3336L17.5047 33.9774C17.7108 34.0284 17.8394 34.2346 17.7873 34.4662ZM14.7772 33.6162C14.7252 33.7968 14.8282 34.0029 15.0089 34.0539L17.3251 34.6978C17.5047 34.7488 17.6842 34.6457 17.7363 34.4407C17.7873 34.2601 17.6842 34.0539 17.5047 34.0029L15.1884 33.3601C15.1004 33.346 15.0102 33.3643 14.9346 33.4116C14.859 33.4588 14.8031 33.5308 14.7772 33.6162Z" fill="white"/>
<path d="M21.3881 33.2316C21.3703 33.2777 21.3433 33.3198 21.3088 33.3553C21.2743 33.3908 21.233 33.419 21.1874 33.4382C21.1418 33.4573 21.0927 33.467 21.0432 33.4668C20.9937 33.4665 20.9448 33.4563 20.8994 33.4366L15.9322 31.3786C15.7516 31.301 15.6496 31.0705 15.7261 30.8898C15.7439 30.8437 15.7709 30.8015 15.8053 30.766C15.8398 30.7305 15.8811 30.7023 15.9267 30.683C15.9723 30.6638 16.0213 30.6539 16.0708 30.6541C16.1203 30.6542 16.1693 30.6643 16.2148 30.6837L21.182 32.7428C21.3881 32.8193 21.4657 33.051 21.3881 33.2316Z" fill="#F3F3F3"/>
<path d="M21.4147 33.2571C21.3768 33.3557 21.3015 33.4353 21.2052 33.4787C21.1089 33.5221 20.9994 33.5257 20.9004 33.4887L15.9343 31.4296C15.7282 31.3531 15.6506 31.1214 15.7282 30.8898C15.766 30.7912 15.8413 30.7115 15.9376 30.6682C16.0339 30.6248 16.1435 30.6212 16.2424 30.6582L21.2096 32.7162C21.3054 32.7643 21.3796 32.8465 21.4176 32.9467C21.4556 33.0468 21.4546 33.1576 21.4147 33.2571ZM15.7792 30.9153C15.7027 31.0959 15.7792 31.301 15.9598 31.3786L20.9259 33.4366C21.1066 33.5142 21.2872 33.4111 21.3637 33.2305C21.3825 33.1883 21.3927 33.1429 21.3938 33.0967C21.3949 33.0505 21.3868 33.0046 21.37 32.9616C21.3532 32.9186 21.328 32.8794 21.2959 32.8462C21.2638 32.813 21.2255 32.7865 21.1831 32.7683L16.2169 30.7092C16.0363 30.6582 15.8312 30.7347 15.7792 30.9153Z" fill="white"/>
<path d="M19.7147 29.7572C19.6127 29.9378 19.4066 30.0143 19.2259 29.9378L17.0903 28.8562C16.9097 28.7797 16.8332 28.5481 16.9362 28.342C17.0393 28.1613 17.2444 28.0848 17.425 28.1613L19.5606 29.243C19.7412 29.346 19.8177 29.5777 19.7147 29.7572Z" fill="#F3F3F3"/>
<path d="M19.7412 29.7837C19.7186 29.8318 19.6863 29.8748 19.6466 29.9101C19.6068 29.9454 19.5603 29.9722 19.5098 29.989C19.4593 30.0058 19.406 30.0122 19.353 30.0078C19.3 30.0033 19.2485 29.9882 19.2015 29.9633L17.0659 28.8827C17.0175 28.8602 16.9743 28.828 16.9388 28.7882C16.9033 28.7483 16.8763 28.7017 16.8594 28.6511C16.8425 28.6005 16.8361 28.547 16.8405 28.4939C16.845 28.4407 16.8602 28.389 16.8852 28.3419C16.9078 28.2936 16.94 28.2504 16.9798 28.2149C17.0196 28.1794 17.0663 28.1524 17.1169 28.1355C17.1675 28.1186 17.221 28.1122 17.2741 28.1166C17.3273 28.121 17.379 28.1362 17.4261 28.1613L19.5617 29.2429C19.7678 29.3194 19.8443 29.5776 19.7423 29.7827L19.7412 29.7837ZM16.9628 28.3674C16.8852 28.5481 16.9373 28.7531 17.1169 28.8307L19.2525 29.9112C19.4076 29.9888 19.6137 29.9112 19.7157 29.7572C19.7933 29.5766 19.7412 29.3715 19.5617 29.2939L17.3995 28.2134C17.3609 28.1933 17.3186 28.1813 17.2752 28.1782C17.2318 28.1751 17.1882 28.181 17.1472 28.1954C17.1062 28.2099 17.0685 28.2326 17.0366 28.2622C17.0047 28.2918 16.9792 28.3276 16.9617 28.3674H16.9628Z" fill="white"/>
<path d="M23.5004 29.2685C23.3729 29.4491 23.1668 29.5001 22.9861 29.3715L18.5343 26.4125C18.3536 26.3094 18.3292 26.0778 18.4312 25.8972C18.4559 25.8539 18.4896 25.8165 18.53 25.7874C18.5704 25.7583 18.6166 25.7382 18.6654 25.7284C18.7142 25.7186 18.7646 25.7194 18.8131 25.7308C18.8616 25.7421 18.9071 25.7637 18.9465 25.7941L23.4239 28.7797C23.5779 28.8828 23.63 29.1144 23.5004 29.2685Z" fill="#F3F3F3"/>
<path d="M23.5237 29.294C23.4605 29.3796 23.3687 29.4396 23.265 29.4632C23.1613 29.4868 23.0525 29.4724 22.9585 29.4225L18.5066 26.4369C18.4181 26.3755 18.3576 26.2815 18.3383 26.1756C18.319 26.0696 18.3424 25.9603 18.4036 25.8717C18.4669 25.786 18.559 25.7259 18.6629 25.7023C18.7668 25.6787 18.8757 25.6932 18.9699 25.7431L23.4217 28.7287C23.6268 28.8562 23.6534 29.1144 23.5237 29.294ZM18.4556 25.8972C18.3526 26.0512 18.3781 26.2828 18.5321 26.3859L23.0095 29.3715C23.0466 29.3953 23.0881 29.4115 23.1316 29.4192C23.175 29.4269 23.2195 29.4259 23.2625 29.4163C23.3056 29.4067 23.3463 29.3887 23.3824 29.3634C23.4185 29.338 23.4492 29.3058 23.4727 29.2685C23.5758 29.1144 23.5503 28.8828 23.3962 28.7797L18.9178 25.7941C18.8427 25.7464 18.7517 25.7304 18.6649 25.7498C18.578 25.7691 18.5034 25.8221 18.4556 25.8972Z" fill="white"/>
<path d="M22.5462 25.537C22.4177 25.6921 22.185 25.7431 22.032 25.6145L20.1535 24.1483C20.0786 24.0866 20.0311 23.9979 20.0213 23.9013C20.0116 23.8048 20.0404 23.7083 20.1014 23.633C20.23 23.4789 20.4627 23.4268 20.6167 23.5554L22.4942 25.0216C22.6493 25.1513 22.6748 25.3829 22.5462 25.537Z" fill="#F3F3F3"/>
<path d="M22.5739 25.5624C22.4453 25.7431 22.1882 25.7686 22.0076 25.64L20.1291 24.1738C19.9484 24.0452 19.9229 23.787 20.0515 23.6074C20.1811 23.4268 20.4383 23.4013 20.6178 23.5309L22.4963 24.9972C22.6769 25.1258 22.7024 25.3818 22.5739 25.5624ZM20.1036 23.6329C19.975 23.787 20.0005 23.9931 20.1546 24.1217L22.0331 25.5879C22.1092 25.639 22.2018 25.6595 22.2924 25.6453C22.383 25.6311 22.4649 25.5833 22.5218 25.5114C22.6514 25.3574 22.6249 25.1513 22.4708 25.0227L20.5923 23.5564C20.5162 23.5054 20.4236 23.4849 20.333 23.4991C20.2424 23.5132 20.1605 23.561 20.1036 23.6329Z" fill="white"/>
<path d="M26.3819 25.7941C26.2267 25.9492 25.9951 25.9492 25.8666 25.7941L22.0331 22.0116C21.9651 21.9433 21.9269 21.8508 21.9269 21.7544C21.9269 21.6581 21.9651 21.5656 22.0331 21.4973C22.1871 21.3433 22.4187 21.3433 22.5473 21.4973L26.3553 25.2798C26.4264 25.3448 26.4691 25.4353 26.4741 25.5315C26.4791 25.6277 26.4459 25.7221 26.3819 25.7941Z" fill="#F3F3F3"/>
<path d="M26.3797 25.8207C26.3042 25.895 26.2025 25.9366 26.0966 25.9366C25.9906 25.9366 25.889 25.895 25.8134 25.8207L22.0044 22.0382C21.9298 21.9626 21.8879 21.8607 21.8879 21.7545C21.8879 21.6483 21.9298 21.5464 22.0044 21.4708C22.0799 21.3965 22.1816 21.3549 22.2875 21.3549C22.3935 21.3549 22.4952 21.3965 22.5707 21.4708L26.3797 25.2533C26.5604 25.4084 26.5604 25.6666 26.3797 25.8207ZM22.0564 21.5229C21.9943 21.589 21.9597 21.6764 21.9597 21.7672C21.9597 21.858 21.9943 21.9454 22.0564 22.0116L25.8655 25.7941C25.9317 25.8563 26.0191 25.8909 26.1099 25.8909C26.2007 25.8909 26.2881 25.8563 26.3542 25.7941C26.4164 25.7279 26.451 25.6405 26.451 25.5497C26.451 25.4589 26.4164 25.3715 26.3542 25.3054L22.5462 21.4974C22.4177 21.3688 22.2094 21.3688 22.0564 21.5229Z" fill="white"/>
<path d="M26.1492 21.9606C25.9951 22.0892 25.7635 22.0892 25.6349 21.9351L24.0646 20.1331C24.0037 20.0577 23.9751 19.9614 23.985 19.865C23.995 19.7686 24.0427 19.6801 24.1177 19.6188C24.2707 19.4903 24.5023 19.4903 24.6309 19.6443L26.2012 21.4453C26.3287 21.5749 26.3043 21.8065 26.1492 21.9606Z" fill="#F3F3F3"/>
<path d="M26.1747 21.9606C26.0959 22.0316 25.9923 22.0687 25.8863 22.0639C25.7803 22.0591 25.6805 22.0129 25.6084 21.9351L24.0391 20.1331C23.8839 19.979 23.9094 19.7219 24.0901 19.5678C24.1689 19.4968 24.2725 19.4597 24.3784 19.4645C24.4844 19.4692 24.5843 19.5155 24.6564 19.5933L26.2257 21.3942C26.3543 21.5749 26.3543 21.832 26.1747 21.9606ZM24.1156 19.6188C23.9615 19.7474 23.9615 19.9535 24.0646 20.1076L25.6339 21.9085C25.6968 21.9742 25.7824 22.0134 25.8732 22.0182C25.964 22.0229 26.0532 21.9928 26.1226 21.934C26.2778 21.8065 26.2778 21.6004 26.1747 21.4452L24.6043 19.6443C24.4768 19.4902 24.2696 19.4902 24.1156 19.6188Z" fill="white"/>
<path d="M29.8552 22.9381C29.8157 22.9685 29.7702 22.9901 29.7218 23.0014C29.6733 23.0128 29.6229 23.0136 29.5741 23.0038C29.5253 22.994 29.4791 22.9739 29.4387 22.9448C29.3983 22.9157 29.3646 22.8783 29.3399 22.835L26.3298 18.3832C26.2267 18.2025 26.2777 17.972 26.4329 17.8689C26.4723 17.8387 26.5177 17.8173 26.5661 17.806C26.6145 17.7948 26.6647 17.794 26.7134 17.8038C26.7621 17.8136 26.8081 17.8336 26.8484 17.8626C26.8887 17.8916 26.9224 17.9289 26.9471 17.972L29.9327 22.4238C29.962 22.4625 29.9832 22.5066 29.9952 22.5536C30.0071 22.6005 30.0095 22.6494 30.0023 22.6973C29.9951 22.7452 29.9783 22.7912 29.9531 22.8326C29.9278 22.8739 29.8945 22.9098 29.8552 22.9381Z" fill="#F3F3F3"/>
<path d="M29.8562 22.9636C29.7671 23.0242 29.6576 23.0474 29.5515 23.0282C29.4453 23.0089 29.351 22.9487 29.2889 22.8605L26.3043 18.4086C26.2736 18.3637 26.2525 18.3129 26.2423 18.2595C26.2322 18.206 26.2331 18.151 26.2452 18.0979C26.2573 18.0449 26.2802 17.9949 26.3125 17.9511C26.3448 17.9073 26.3858 17.8706 26.4329 17.8434C26.522 17.783 26.6312 17.76 26.7371 17.7793C26.8429 17.7986 26.9371 17.8586 26.9992 17.9464L29.9848 22.3983C30.016 22.4432 30.0374 22.494 30.0477 22.5476C30.0581 22.6012 30.0571 22.6564 30.0449 22.7096C30.0327 22.7628 30.0095 22.8129 29.9769 22.8566C29.9442 22.9003 29.9028 22.9368 29.8552 22.9636H29.8562ZM26.4584 17.8954C26.4212 17.919 26.3891 17.9497 26.3638 17.9856C26.3386 18.0216 26.3206 18.0623 26.3111 18.1052C26.3015 18.1481 26.3005 18.1925 26.3081 18.2358C26.3157 18.2791 26.3317 18.3205 26.3553 18.3576L29.3409 22.8095C29.444 22.9636 29.6491 22.9901 29.8297 22.8871C29.867 22.8635 29.8992 22.8328 29.9246 22.7967C29.9499 22.7606 29.9679 22.7199 29.9775 22.6769C29.9871 22.6338 29.9881 22.5893 29.9804 22.5459C29.9727 22.5024 29.9565 22.461 29.9327 22.4238L26.9471 17.9974C26.8938 17.9217 26.8137 17.8689 26.723 17.8498C26.6323 17.8307 26.5378 17.8466 26.4584 17.8944V17.8954Z" fill="white"/>
<path d="M30.3949 19.1301C30.3527 19.1556 30.3058 19.1724 30.257 19.1798C30.2082 19.1871 30.1585 19.1847 30.1106 19.1727C30.0627 19.1608 30.0177 19.1395 29.9781 19.1102C29.9384 19.0808 29.905 19.0439 29.8796 19.0015L28.696 16.9169C28.5929 16.7363 28.6705 16.5057 28.8511 16.4027C28.9363 16.3515 29.0382 16.3362 29.1346 16.3601C29.231 16.384 29.314 16.4452 29.3654 16.5302L30.549 18.6148C30.6266 18.7954 30.5745 19.027 30.3949 19.1301Z" fill="#F3F3F3"/>
<path d="M30.396 19.1556C30.1909 19.2586 29.9593 19.2076 29.8563 19.027L28.6726 16.9424C28.5696 16.7617 28.6206 16.5046 28.8267 16.4026C29.0328 16.2996 29.2644 16.3506 29.3675 16.5301L30.5511 18.6147C30.6542 18.7954 30.6011 19.027 30.396 19.1556ZM28.8522 16.4281C28.6981 16.5312 28.6206 16.7362 28.7247 16.8914L29.9073 18.9749C30.0103 19.129 30.2154 19.1811 30.3705 19.1046C30.5256 19.0015 30.6021 18.7954 30.4991 18.6413L29.3154 16.5567C29.2389 16.4026 29.0073 16.3251 28.8522 16.4281Z" fill="white"/>
<path d="M33.8183 20.828C33.6122 20.9055 33.4061 20.828 33.3296 20.6473L31.2449 15.6812C31.1674 15.5006 31.2704 15.27 31.4511 15.1925C31.6572 15.116 31.8622 15.1925 31.9398 15.3731L34.0244 20.3392C34.1009 20.5198 33.9989 20.7504 33.8183 20.828Z" fill="#F3F3F3"/>
<path d="M33.8172 20.8535C33.7178 20.893 33.6072 20.8937 33.5072 20.8555C33.4073 20.8174 33.3253 20.7431 33.2775 20.6474L31.1929 15.6823C31.1552 15.5832 31.1585 15.4733 31.202 15.3767C31.2454 15.28 31.3254 15.2046 31.4245 15.167C31.5241 15.1272 31.6349 15.1263 31.7351 15.1645C31.8353 15.2027 31.9175 15.2771 31.9653 15.3731L34.0489 20.3392C34.1264 20.5199 34.0234 20.7504 33.8183 20.8545L33.8172 20.8535ZM31.4766 15.218C31.2959 15.2955 31.2184 15.5017 31.2959 15.6557L33.3806 20.6219C33.4571 20.8025 33.6632 20.879 33.8427 20.8025C34.0234 20.7249 34.1009 20.5188 34.0234 20.3647L31.9387 15.3986C31.8357 15.218 31.6572 15.1404 31.4766 15.218Z" fill="white"/>
<path d="M35.0795 17.174C34.8734 17.2516 34.6673 17.1485 34.5908 16.9424L33.8438 14.6782C33.7673 14.4976 33.8959 14.266 34.0754 14.215C34.2561 14.1629 34.4877 14.2405 34.5642 14.4466L35.3111 16.7108C35.3876 16.8914 35.2856 17.0975 35.0795 17.174Z" fill="#F3F3F3"/>
<path d="M35.105 17.1995C35.0061 17.2365 34.8965 17.2329 34.8002 17.1895C34.7039 17.1462 34.6286 17.0665 34.5908 16.9679L33.8438 14.7037C33.7673 14.4976 33.8959 14.2659 34.102 14.1894C34.2009 14.1524 34.3105 14.156 34.4068 14.1994C34.5031 14.2428 34.5784 14.3224 34.6163 14.4211L35.3621 16.6852C35.3886 16.7876 35.3771 16.896 35.3298 16.9905C35.2826 17.085 35.2027 17.1593 35.105 17.1995ZM34.1009 14.2404C33.9203 14.2914 33.8183 14.4976 33.8693 14.6782L34.6163 16.9424C34.6673 17.123 34.8734 17.1995 35.054 17.1485C35.2346 17.0975 35.3366 16.8914 35.2846 16.7107L34.5387 14.4466C34.5257 14.4027 34.5036 14.3622 34.4739 14.3275C34.4441 14.2928 34.4074 14.2648 34.366 14.2454C34.3247 14.2259 34.2797 14.2154 34.234 14.2146C34.1883 14.2137 34.143 14.2225 34.1009 14.2404Z" fill="white"/>
<path d="M38.1161 19.5158C37.91 19.5678 37.7039 19.4382 37.6784 19.2321L36.5978 13.9578C36.5457 13.7517 36.7009 13.5711 36.9059 13.5201C37.1121 13.468 37.3182 13.5966 37.3437 13.8038L38.4242 19.0791C38.4331 19.1766 38.407 19.2741 38.3505 19.3541C38.2941 19.4341 38.211 19.4914 38.1161 19.5158Z" fill="#F3F3F3"/>
<path d="M38.1161 19.5413C38.0106 19.5637 37.9005 19.544 37.8092 19.4865C37.7179 19.4289 37.6527 19.3381 37.6274 19.2332L36.5458 13.9579C36.4948 13.7517 36.6488 13.5201 36.8539 13.4946C36.9594 13.4722 37.0695 13.4919 37.1608 13.5494C37.2521 13.607 37.3173 13.6979 37.3426 13.8027L38.4243 19.0791C38.4763 19.2842 38.3478 19.4903 38.1161 19.5413ZM36.9059 13.5456C36.7253 13.5711 36.5978 13.7517 36.6233 13.9579L37.7039 19.2332C37.7294 19.4127 37.9355 19.5413 38.1161 19.4903C38.2957 19.4648 38.4243 19.2842 38.3988 19.078L37.3182 13.8027C37.2921 13.7173 37.236 13.6442 37.1602 13.597C37.0844 13.5497 36.9941 13.5315 36.9059 13.5456Z" fill="white"/>
<path d="M40.0701 16.171C39.9716 16.1839 39.8719 16.1592 39.7908 16.1019C39.7097 16.0446 39.6531 15.9589 39.6323 15.8618L39.3242 13.4946C39.3138 13.3957 39.3431 13.2967 39.4056 13.2194C39.4682 13.1421 39.5589 13.0928 39.6578 13.0823C39.7563 13.0694 39.856 13.0941 39.9371 13.1514C40.0182 13.2087 40.0748 13.2944 40.0956 13.3915L40.4037 15.7588C40.4141 15.8577 40.3848 15.9567 40.3222 16.034C40.2597 16.1113 40.169 16.1606 40.0701 16.171Z" fill="#F3F3F3"/>
<path d="M40.0701 16.1965C39.8384 16.222 39.6334 16.068 39.6068 15.8618L39.2987 13.4946C39.2936 13.4422 39.2988 13.3893 39.3141 13.3389C39.3295 13.2886 39.3546 13.2417 39.388 13.201C39.4215 13.1604 39.4626 13.1267 39.5091 13.102C39.5556 13.0772 39.6065 13.0619 39.6589 13.0568C39.8905 13.0313 40.0966 13.1854 40.1221 13.3915L40.4302 15.7588C40.4354 15.8112 40.4301 15.8641 40.4148 15.9144C40.3995 15.9648 40.3744 16.0117 40.3409 16.0523C40.3075 16.093 40.2663 16.1266 40.2198 16.1514C40.1734 16.1761 40.1225 16.1915 40.0701 16.1965ZM39.6844 13.1089C39.5037 13.1344 39.3497 13.314 39.3762 13.4946L39.6844 15.8618C39.7099 16.0425 39.8905 16.17 40.0701 16.1445C40.2507 16.119 40.4047 15.9383 40.3792 15.7588L40.0711 13.3915C40.0557 13.3035 40.0068 13.225 39.9347 13.1723C39.8626 13.1196 39.7729 13.0968 39.6844 13.1089Z" fill="white"/>
<path d="M42.8517 72.5494C59.6785 72.5494 73.3189 58.909 73.3189 42.0833C73.3189 25.2565 59.6785 11.6161 42.8517 11.6161C26.0249 11.6161 12.3845 25.2565 12.3845 42.0833C12.3845 58.9101 26.0249 72.5494 42.8517 72.5494Z" fill="url(#paint2_linear_1_89)" fill-opacity="0.2"/>
<path d="M63.9497 22.7585L39.3741 38.5059H39.3486V38.5314L39.3231 38.5579L23.987 63.8529L46.529 45.7117L46.5545 45.6862V45.6607L63.9497 22.7585Z" fill="black" fill-opacity="0.05"/>
<path d="M63.4876 21.2912L39.1956 38.5568L46.4015 45.7117L63.4876 21.2912Z" fill="#CD151E"/>
<path d="M39.2211 38.5069L42.8496 42.0833L63.4865 21.2912L39.2211 38.5069Z" fill="#FA5153"/>
<path d="M39.2222 38.5069L46.427 45.6597L22.1361 62.9264L39.2222 38.5069Z" fill="#ACACAC"/>
<path d="M22.1361 62.9264L42.8506 42.0833L39.2222 38.5059L22.1361 62.9264Z" fill="#EEEEEE"/>
</g>
<defs>
<linearGradient id="paint0_linear_1_89" x1="42.67" y1="75.0463" x2="42.67" y2="9.17126" gradientUnits="userSpaceOnUse">
<stop offset="0.25" stop-color="#DBDBDA"/>
<stop offset="1" stop-color="white"/>
</linearGradient>
<radialGradient id="paint1_radial_1_89" cx="0" cy="0" r="1" gradientUnits="userSpaceOnUse" gradientTransform="translate(46.9498 35.4161) scale(37.1895)">
<stop stop-color="#2ABCE1"/>
<stop offset="0.114" stop-color="#2ABBE1"/>
<stop offset="1" stop-color="#3375F8"/>
</radialGradient>
<linearGradient id="paint2_linear_1_89" x1="42.2726" y1="33.3708" x2="28.0521" y2="58.8835" gradientUnits="userSpaceOnUse">
<stop stop-opacity="0"/>
<stop offset="1"/>
</linearGradient>
<clipPath id="clip0_1_89">
<rect width="85" height="85" fill="white" transform="translate(0.169998 0.140015)"/>
</clipPath>
</defs>
</svg>
