<svg width="98" height="97" viewBox="0 0 98 97" fill="none" xmlns="http://www.w3.org/2000/svg">
<g filter="url(#filter0_d_1_88)">
<g clip-path="url(#clip0_1_88)">
<rect x="6.17" y="2.14001" width="85" height="85" rx="22" fill="white" fill-opacity="0.01" shape-rendering="crispEdges"/>
<g clip-path="url(#clip1_1_88)">
<path d="M25.3959 2.14001H71.9441C82.5691 2.14001 91.17 10.741 91.17 21.366V67.9141C91.17 78.5391 82.5691 87.14 71.9441 87.14H25.3959C14.7709 87.14 6.17 78.5391 6.17 67.9141V21.366C6.17 10.741 14.7709 2.14001 25.3959 2.14001Z" fill="#FFFEFF"/>
<path d="M25.3959 2.67126H71.9441C82.2758 2.67126 90.6387 11.0342 90.6387 21.366V67.9141C90.6387 78.2458 82.2758 86.6088 71.9441 86.6088H25.3959C15.0642 86.6088 6.70125 78.2458 6.70125 67.9141V21.366C6.70125 11.0342 15.0642 2.67126 25.3959 2.67126Z" stroke="black" stroke-opacity="0.05" stroke-width="1.0625"/>
<path d="M48.67 77.0463C66.86 77.0463 81.6075 62.2988 81.6075 44.1088C81.6075 25.9188 66.86 11.1713 48.67 11.1713C30.48 11.1713 15.7325 25.9188 15.7325 44.1088C15.7325 62.2988 30.48 77.0463 48.67 77.0463Z" fill="url(#paint0_linear_1_88)"/>
<path d="M48.67 74.576C65.4958 74.576 79.1361 60.9356 79.1361 44.1088C79.1361 27.282 65.4958 13.6416 48.6689 13.6416C31.8421 13.6416 18.2018 27.282 18.2018 44.1088C18.2018 60.9356 31.8442 74.576 48.67 74.576Z" fill="url(#paint1_radial_1_88)"/>
<path d="M48.7221 21.0525C48.5159 21.0525 48.3353 20.8984 48.3353 20.6923V15.3139C48.3353 15.1089 48.5159 14.9537 48.7221 14.9537C48.9282 14.9537 49.1077 15.1089 49.1077 15.315V20.6923C49.0822 20.8984 48.9271 21.0525 48.7221 21.0525Z" fill="#F3F3F3"/>
<path d="M48.721 21.078C48.4894 21.078 48.3087 20.8974 48.3087 20.6923V15.314C48.3087 15.1089 48.4894 14.9283 48.721 14.9283C48.9526 14.9283 49.1322 15.1089 49.1322 15.314V20.6923C49.1322 20.8985 48.9261 21.078 48.721 21.078ZM48.721 14.9793C48.5404 14.9793 48.3597 15.1344 48.3597 15.314V20.6923C48.3597 20.873 48.5149 21.027 48.721 21.027C48.9016 21.027 49.0812 20.873 49.0812 20.6923V15.314C49.0557 15.1333 48.9016 14.9793 48.721 14.9793Z" fill="white"/>
<path d="M51.2965 18.171C51.0904 18.1444 50.9352 17.9904 50.9352 17.7842L51.1159 15.3915C51.1209 15.3424 51.1356 15.2948 51.159 15.2514C51.1825 15.2081 51.2143 15.1697 51.2526 15.1386C51.2909 15.1075 51.3349 15.0843 51.3822 15.0703C51.4295 15.0562 51.4791 15.0516 51.5281 15.0568C51.7342 15.0823 51.8883 15.2374 51.8883 15.4435L51.7077 17.8363C51.6975 17.9352 51.6485 18.026 51.5714 18.0887C51.4943 18.1515 51.3954 18.1811 51.2965 18.171Z" fill="#F3F3F3"/>
<path d="M51.2944 18.1965C51.1902 18.1885 51.0927 18.1418 51.0213 18.0654C50.9499 17.9891 50.9097 17.8888 50.9087 17.7843L51.0893 15.3915C51.1148 15.1854 51.2954 15.0058 51.5271 15.0303C51.6312 15.0385 51.7285 15.0853 51.7999 15.1616C51.8712 15.2379 51.9115 15.3381 51.9127 15.4425L51.7321 17.8363C51.7066 18.0679 51.526 18.222 51.2944 18.1965ZM51.5271 15.0834C51.3464 15.0834 51.1658 15.2109 51.1658 15.3915L50.9852 17.7853C50.9852 17.9649 51.1148 18.1189 51.3209 18.1444C51.5016 18.1444 51.6811 18.0169 51.6811 17.8363L51.8617 15.4425C51.8617 15.2619 51.7066 15.1089 51.526 15.0823L51.5271 15.0834Z" fill="white"/>
<path d="M53.226 21.5158C53.1291 21.4947 53.0436 21.4381 52.9865 21.357C52.9295 21.2759 52.905 21.1763 52.9179 21.078L53.9719 15.8027C54.0239 15.5976 54.2035 15.468 54.4096 15.5201C54.5065 15.5411 54.592 15.5978 54.6491 15.6788C54.7061 15.7599 54.7307 15.8595 54.7177 15.9578L53.6637 21.2331C53.6372 21.4127 53.4311 21.5413 53.226 21.5158Z" fill="#F3F3F3"/>
<path d="M53.2249 21.5413C53.121 21.5206 53.0286 21.4614 52.9666 21.3754C52.9045 21.2895 52.8772 21.1833 52.8902 21.078L53.9453 15.8027C53.9706 15.6979 54.0359 15.607 54.1271 15.5494C54.2184 15.4919 54.3285 15.4722 54.4341 15.4946C54.6657 15.5456 54.7953 15.7517 54.7688 15.9579L53.7137 21.2332C53.6616 21.4382 53.4566 21.5679 53.2249 21.5413ZM54.4341 15.5456C54.3459 15.5312 54.2554 15.5494 54.1796 15.5967C54.1038 15.644 54.0477 15.7172 54.0218 15.8027L52.9678 21.0791C52.9538 21.1707 52.9752 21.2643 53.0277 21.3407C53.0802 21.417 53.1599 21.4706 53.2504 21.4903C53.3385 21.5042 53.4285 21.4858 53.5041 21.4386C53.5796 21.3913 53.6356 21.3184 53.6616 21.2332L54.7167 15.9579C54.7433 15.7517 54.6147 15.5966 54.4341 15.5456Z" fill="white"/>
<path d="M56.3115 19.1995C56.2624 19.1878 56.2162 19.1665 56.1754 19.1368C56.1346 19.1072 56.1001 19.0697 56.0738 19.0267C56.0475 18.9836 56.03 18.9358 56.0223 18.8859C56.0146 18.8361 56.0168 18.7852 56.0289 18.7362L56.6727 16.42C56.7237 16.2149 56.9299 16.1119 57.1349 16.1629C57.184 16.1746 57.2303 16.1959 57.2711 16.2255C57.312 16.2552 57.3466 16.2926 57.3729 16.3356C57.3993 16.3787 57.4169 16.4265 57.4247 16.4763C57.4326 16.5262 57.4305 16.5771 57.4186 16.6261L56.7747 18.9424C56.7237 19.1485 56.5176 19.2505 56.3115 19.1995Z" fill="#F3F3F3"/>
<path d="M56.3136 19.225C56.1075 19.174 55.9524 18.9424 56.0299 18.7363L56.6738 16.42C56.7248 16.215 56.9564 16.0864 57.1626 16.1374C57.3687 16.1895 57.5227 16.4211 57.4452 16.6261L56.8024 18.9424C56.7503 19.1485 56.5442 19.276 56.3136 19.225ZM57.1626 16.215C56.9819 16.1629 56.7758 16.267 56.7248 16.4466L56.082 18.7628C56.0299 18.9424 56.133 19.123 56.3391 19.174C56.5197 19.2261 56.7248 19.123 56.7758 18.9424L57.4197 16.6261C57.4336 16.5381 57.4152 16.4481 57.368 16.3725C57.3207 16.297 57.2478 16.241 57.1626 16.215Z" fill="white"/>
<path d="M57.5737 22.8279C57.5276 22.8101 57.4855 22.7831 57.4499 22.7487C57.4144 22.7142 57.3862 22.6729 57.367 22.6273C57.3477 22.5817 57.3379 22.5327 57.338 22.4832C57.3381 22.4337 57.3482 22.3847 57.3676 22.3392L59.4257 17.3731C59.5032 17.1924 59.7349 17.0894 59.9144 17.1924C60.1206 17.27 60.1981 17.5016 60.1206 17.6812L58.0625 22.6484C57.9849 22.829 57.7533 22.9299 57.5737 22.8279Z" fill="#F3F3F3"/>
<path d="M57.5727 22.8535C57.4739 22.8158 57.394 22.7406 57.3506 22.6442C57.3072 22.5478 57.3038 22.4381 57.3411 22.3392L59.4002 17.3731C59.4767 17.167 59.7083 17.0894 59.9399 17.167C60.0385 17.2048 60.1182 17.2801 60.1616 17.3764C60.205 17.4727 60.2086 17.5823 60.1716 17.6812L58.1135 22.6484C58.0104 22.8545 57.7788 22.9555 57.5727 22.8535ZM59.9144 17.218C59.8722 17.1991 59.8266 17.1889 59.7804 17.1878C59.7342 17.1867 59.6882 17.1947 59.6451 17.2115C59.602 17.2283 59.5627 17.2535 59.5294 17.2856C59.4961 17.3177 59.4695 17.3561 59.4512 17.3986L57.3921 22.3647C57.3156 22.5453 57.4186 22.726 57.5982 22.8025C57.7788 22.88 57.9849 22.8025 58.0614 22.6218L60.1206 17.6557C60.1452 17.5702 60.1379 17.4786 60.1 17.398C60.0621 17.3174 59.9961 17.2535 59.9144 17.218Z" fill="white"/>
<path d="M61.0471 21.1811C60.8664 21.078 60.7899 20.873 60.8664 20.6923L61.947 18.5567C61.9702 18.5123 62.0021 18.4729 62.0407 18.441C62.0793 18.409 62.124 18.3851 62.172 18.3706C62.22 18.3562 62.2704 18.3515 62.3203 18.3568C62.3701 18.3621 62.4184 18.3773 62.4623 18.4016C62.6429 18.5057 62.7194 18.7108 62.6429 18.8903L61.5613 21.026C61.5381 21.0703 61.5063 21.1095 61.4677 21.1414C61.4292 21.1732 61.3846 21.1971 61.3368 21.2115C61.2889 21.226 61.2386 21.2307 61.1888 21.2255C61.1391 21.2203 61.0909 21.2052 61.0471 21.1811Z" fill="#F3F3F3"/>
<path d="M61.0481 21.2066C60.9999 21.184 60.9568 21.1518 60.9215 21.1121C60.8861 21.0724 60.8591 21.0258 60.8422 20.9754C60.8253 20.9249 60.8189 20.8715 60.8232 20.8185C60.8275 20.7655 60.8426 20.7139 60.8675 20.6668L61.9481 18.5312C61.9706 18.4829 62.0028 18.4396 62.0426 18.4042C62.0825 18.3687 62.1291 18.3416 62.1797 18.3248C62.2303 18.3079 62.2838 18.3014 62.3369 18.3059C62.3901 18.3103 62.4418 18.3255 62.4889 18.3506C62.5372 18.3732 62.5804 18.4053 62.6159 18.4452C62.6514 18.485 62.6784 18.5316 62.6953 18.5822C62.7122 18.6328 62.7186 18.6863 62.7142 18.7394C62.7098 18.7926 62.6946 18.8443 62.6695 18.8914L61.5879 21.027C61.5653 21.0752 61.5331 21.1183 61.4934 21.1537C61.4537 21.1891 61.4072 21.216 61.3567 21.2329C61.3062 21.2498 61.2528 21.2563 61.1998 21.2519C61.1468 21.2476 61.0952 21.2315 61.0481 21.2066ZM62.4634 18.4016C62.2827 18.3251 62.0766 18.3761 62.0001 18.5567L60.9196 20.6923C60.842 20.8464 60.9196 21.0525 61.0736 21.1556C61.2542 21.2331 61.4593 21.1811 61.5369 21.0015L62.6174 18.8659C62.695 18.7108 62.6174 18.5046 62.4634 18.4016Z" fill="white"/>
<path d="M61.5634 24.9902C61.3828 24.8605 61.3318 24.6289 61.4604 24.4748L64.446 20.023C64.548 19.8423 64.7796 19.8168 64.9602 19.921C65.1409 20.0485 65.1919 20.2801 65.0633 20.4352L62.0777 24.8871C62.053 24.9302 62.0193 24.9675 61.979 24.9965C61.9387 25.0255 61.8926 25.0455 61.8439 25.0553C61.7952 25.065 61.745 25.0643 61.6966 25.053C61.6483 25.0418 61.6029 25.0204 61.5634 24.9902Z" fill="#F3F3F3"/>
<path d="M61.5613 25.0156C61.4757 24.9522 61.4156 24.8602 61.3922 24.7562C61.3688 24.6522 61.3836 24.5433 61.4338 24.4493L64.4184 19.9974C64.4798 19.909 64.5737 19.8484 64.6797 19.8291C64.7857 19.8098 64.8949 19.8333 64.9836 19.8944C65.1642 20.0229 65.2153 20.2801 65.1133 20.4607L62.1276 24.9126C62.0655 25.0004 61.9714 25.0604 61.8655 25.0797C61.7596 25.099 61.6504 25.076 61.5613 25.0156ZM64.9581 19.9464C64.8041 19.8434 64.5724 19.8689 64.4694 20.0229L61.4838 24.4748C61.46 24.512 61.4439 24.5536 61.4363 24.597C61.4287 24.6405 61.4298 24.685 61.4394 24.7281C61.4491 24.7712 61.4672 24.8119 61.4927 24.8479C61.5182 24.8839 61.5505 24.9146 61.5879 24.9381C61.7419 25.0411 61.9736 25.0156 62.0766 24.8605L65.0623 20.4352C65.1099 20.3557 65.1257 20.261 65.1064 20.1703C65.0871 20.0796 65.0341 19.9996 64.9581 19.9464Z" fill="white"/>
<path d="M65.3172 24.0381C65.1632 23.9085 65.1122 23.6769 65.2408 23.5228L66.7325 21.6443C66.7941 21.5696 66.8828 21.5223 66.9791 21.5128C67.0755 21.5032 67.1717 21.5322 67.2468 21.5933C67.4008 21.7208 67.4529 21.9535 67.3232 22.1076L65.8315 23.9861C65.77 24.0609 65.6815 24.1084 65.5851 24.1182C65.4888 24.1279 65.3925 24.0991 65.3172 24.0381Z" fill="#F3F3F3"/>
<path d="M65.2939 24.0637C65.1132 23.934 65.0888 23.6769 65.2174 23.4974L66.7091 21.6189C66.8377 21.4382 67.0959 21.4127 67.2754 21.5679C67.4561 21.6954 67.4816 21.9535 67.353 22.1331L65.8602 24.0116C65.7327 24.1922 65.4745 24.2177 65.2939 24.0637ZM67.2244 21.6189C67.0704 21.4903 66.8632 21.5158 66.7357 21.6699L65.2429 23.5484C65.1918 23.6245 65.1713 23.7171 65.1855 23.8077C65.1997 23.8983 65.2475 23.9802 65.3194 24.0371C65.4745 24.1657 65.6806 24.1402 65.8081 23.9861L67.3009 22.1076C67.404 21.9535 67.3785 21.7219 67.2244 21.6189Z" fill="white"/>
<path d="M65.0612 27.8972C64.9071 27.7431 64.9071 27.5115 65.0612 27.3829L68.8692 23.6004C68.9375 23.5321 69.0302 23.4937 69.1268 23.4937C69.2235 23.4937 69.3162 23.5321 69.3845 23.6004C69.5131 23.7279 69.5386 23.9861 69.3845 24.1147L65.602 27.8972C65.5672 27.9338 65.5252 27.9631 65.4787 27.983C65.4322 28.003 65.3822 28.0133 65.3316 28.0133C65.281 28.0133 65.2309 28.003 65.1845 27.983C65.138 27.9631 65.096 27.9338 65.0612 27.8972Z" fill="#F3F3F3"/>
<path d="M65.0367 27.9237C64.9624 27.8482 64.9208 27.7465 64.9208 27.6406C64.9208 27.5346 64.9624 27.4329 65.0367 27.3574L68.8447 23.5749C68.9203 23.5006 69.022 23.459 69.1279 23.459C69.2338 23.459 69.3355 23.5006 69.4111 23.5749C69.485 23.6504 69.5265 23.7519 69.5265 23.8575C69.5265 23.9632 69.485 24.0647 69.4111 24.1402L65.6031 27.9227C65.5275 27.997 65.4258 28.0386 65.3199 28.0386C65.214 28.0386 65.1123 27.998 65.0367 27.9237ZM69.3856 23.5994C69.3194 23.5372 69.232 23.5026 69.1412 23.5026C69.0504 23.5026 68.963 23.5372 68.8968 23.5994L65.0877 27.3819C65.0255 27.4482 64.9909 27.5358 64.9909 27.6268C64.9909 27.7177 65.0255 27.8053 65.0877 27.8717C65.1539 27.9338 65.2413 27.9684 65.3321 27.9684C65.4229 27.9684 65.5103 27.9338 65.5765 27.8717L69.3856 24.0892C69.5131 23.9606 69.5131 23.7534 69.3856 23.5994Z" fill="white"/>
<path d="M68.9212 27.692C68.7937 27.5369 68.7937 27.3053 68.9478 27.1767L70.7753 25.6329C70.8506 25.5722 70.9469 25.5436 71.0431 25.5533C71.1394 25.5631 71.2279 25.6104 71.2896 25.685C71.4171 25.839 71.4171 26.0707 71.2641 26.1992L69.4366 27.743C69.3612 27.8038 69.265 27.8324 69.1687 27.8227C69.0725 27.8129 68.9839 27.7656 68.9223 27.691L68.9212 27.692Z" fill="#F3F3F3"/>
<path d="M68.8947 27.7176C68.7406 27.537 68.7672 27.2799 68.9202 27.1513L70.7477 25.6075C70.9018 25.4534 71.1589 25.4789 71.314 25.6585C71.4681 25.8391 71.4415 26.0962 71.2885 26.2248L69.461 27.7686C69.3069 27.9227 69.0488 27.8972 68.8947 27.7176ZM71.2619 25.685C71.1344 25.5299 70.9273 25.5299 70.7732 25.633L68.9457 27.1768C68.8802 27.2398 68.8411 27.3254 68.8364 27.4161C68.8317 27.5069 68.8616 27.596 68.9202 27.6655C69.0487 27.8196 69.2549 27.8196 69.4089 27.7176L71.2364 26.1727C71.3905 26.0452 71.3905 25.8402 71.2619 25.685Z" fill="white"/>
<path d="M67.8906 31.397C67.8603 31.3575 67.8387 31.3119 67.8275 31.2634C67.8162 31.2149 67.8155 31.1645 67.8254 31.1156C67.8352 31.0668 67.8555 31.0206 67.8847 30.9803C67.9139 30.9399 67.9514 30.9063 67.9947 30.8817L72.4721 27.8971C72.6528 27.7941 72.8833 27.8461 72.9864 28.0002C73.0168 28.0396 73.0384 28.0851 73.0497 28.1336C73.061 28.1821 73.0619 28.2325 73.0521 28.2813C73.0423 28.3301 73.0222 28.3763 72.9931 28.4167C72.964 28.4571 72.9265 28.4908 72.8833 28.5155L68.4059 31.5001C68.2519 31.6031 68.0192 31.5511 67.8906 31.397Z" fill="#F3F3F3"/>
<path d="M67.8662 31.397C67.8058 31.3079 67.7828 31.1987 67.8021 31.0928C67.8214 30.9869 67.8814 30.8928 67.9692 30.8307L72.4466 27.8451C72.4917 27.8144 72.5426 27.7933 72.5962 27.7832C72.6498 27.7731 72.7049 27.7742 72.758 27.7864C72.8112 27.7985 72.8613 27.8215 72.9051 27.8539C72.949 27.8863 72.9857 27.9274 73.0129 27.9747C73.073 28.0637 73.0958 28.1727 73.0765 28.2783C73.0573 28.3839 72.9974 28.4778 72.9099 28.5399L68.4325 31.5256C68.3875 31.5563 68.3367 31.5775 68.2832 31.5878C68.2297 31.598 68.1747 31.5971 68.1216 31.5852C68.0684 31.5732 68.0183 31.5504 67.9744 31.5182C67.9304 31.486 67.8936 31.4451 67.8662 31.3981V31.397ZM72.9609 28.0257C72.9131 27.9509 72.8376 27.8981 72.7509 27.879C72.6642 27.8598 72.5735 27.8759 72.4987 27.9237L68.0202 30.9082C67.8662 31.0113 67.8152 31.2164 67.9437 31.397C68.0468 31.5511 68.2519 31.6031 68.407 31.5001L72.8844 28.5144C72.9563 28.4575 73.0041 28.3756 73.0183 28.285C73.0324 28.1944 73.0119 28.1018 72.9609 28.0257Z" fill="white"/>
<path d="M71.7284 31.9378C71.7029 31.8956 71.6859 31.8488 71.6785 31.8001C71.6711 31.7513 71.6734 31.7016 71.6853 31.6537C71.6971 31.6059 71.7183 31.5608 71.7475 31.5211C71.7768 31.4814 71.8136 31.4479 71.8559 31.4225L73.9405 30.2389C74.1211 30.1358 74.3527 30.2134 74.4558 30.3929C74.4813 30.4352 74.4981 30.4821 74.5055 30.5309C74.5128 30.5796 74.5104 30.6294 74.4984 30.6773C74.4865 30.7251 74.4652 30.7702 74.4359 30.8098C74.4065 30.8495 74.3696 30.8829 74.3272 30.9083L72.2426 32.0919C72.062 32.1949 71.8304 32.1184 71.7284 31.9378Z" fill="#F3F3F3"/>
<path d="M71.7007 31.9633C71.5977 31.7572 71.6497 31.5256 71.8293 31.4225L73.9139 30.2389C74.0946 30.1358 74.3517 30.2134 74.4547 30.3929C74.5578 30.5991 74.5058 30.8307 74.3262 30.9338L72.2416 32.1174C72.0609 32.2204 71.8038 32.1429 71.7007 31.9633ZM74.4282 30.4195C74.3262 30.2389 74.1201 30.1879 73.966 30.2899L71.8814 31.4746C71.8085 31.5237 71.7555 31.5973 71.732 31.682C71.7084 31.7667 71.7158 31.857 71.7528 31.9368C71.8559 32.1174 72.0609 32.1684 72.2161 32.0664L74.2996 30.8828C74.4547 30.8052 74.5057 30.5991 74.4282 30.4195Z" fill="white"/>
<path d="M70.0007 35.3602C69.9242 35.154 70.0007 34.9479 70.2069 34.8714L75.173 32.8123C75.3536 32.7358 75.5852 32.8378 75.6617 33.0184C75.7393 33.2245 75.6617 33.4296 75.4567 33.5072L70.4906 35.5652C70.4451 35.5849 70.3962 35.5951 70.3467 35.5954C70.2972 35.5956 70.2482 35.5859 70.2025 35.5668C70.1569 35.5476 70.1156 35.5194 70.0811 35.4839C70.0466 35.4484 70.0186 35.4063 70.0007 35.3602Z" fill="#F3F3F3"/>
<path d="M69.9763 35.3857C69.9365 35.2861 69.9356 35.1752 69.9738 35.075C70.012 34.9748 70.0865 34.8927 70.1824 34.8448L75.1486 32.7868C75.2475 32.7495 75.3571 32.7529 75.4535 32.7964C75.5499 32.8398 75.6252 32.9196 75.6628 33.0184C75.7025 33.1178 75.7034 33.2285 75.6652 33.3286C75.627 33.4286 75.5526 33.5105 75.4567 33.5582L70.4916 35.6173C70.3926 35.6549 70.2826 35.6516 70.186 35.6082C70.0894 35.5648 70.0139 35.4847 69.9763 35.3857ZM75.6118 33.0439C75.5763 32.9622 75.5123 32.8963 75.4318 32.8584C75.3512 32.8204 75.2596 32.8131 75.1741 32.8378L70.2079 34.8969C70.1654 34.9151 70.1269 34.9417 70.0947 34.9749C70.0625 35.0082 70.0373 35.0475 70.0205 35.0907C70.0037 35.1338 69.9956 35.1798 69.9968 35.2261C69.9979 35.2724 70.0083 35.3179 70.0273 35.3602C70.1049 35.5408 70.311 35.6173 70.4651 35.5663L75.4312 33.5072C75.4737 33.4889 75.5122 33.4624 75.5444 33.4291C75.5766 33.3959 75.6018 33.3565 75.6186 33.3134C75.6355 33.2703 75.6435 33.2242 75.6423 33.178C75.6412 33.1317 75.6308 33.0861 75.6118 33.0439Z" fill="white"/>
<path d="M73.6313 36.6468C73.5538 36.4407 73.6568 36.2346 73.8629 36.1581L76.1271 35.4111C76.3078 35.3336 76.5394 35.4632 76.5904 35.6427C76.6679 35.8489 76.5649 36.0539 76.3587 36.1315L74.0946 36.8784C73.9139 36.9549 73.7089 36.8519 73.6313 36.6468Z" fill="#F3F3F3"/>
<path d="M73.6069 36.6713C73.5882 36.6208 73.5801 36.567 73.5831 36.5133C73.5861 36.4596 73.6001 36.407 73.6242 36.3589C73.6483 36.3108 73.682 36.2682 73.7232 36.2336C73.7645 36.1991 73.8124 36.1734 73.864 36.1581L76.1271 35.4112C76.3333 35.3336 76.5649 35.4632 76.6424 35.6683C76.6614 35.7189 76.6698 35.7728 76.667 35.8268C76.6642 35.8808 76.6503 35.9336 76.6262 35.982C76.602 36.0303 76.5682 36.0732 76.5267 36.1079C76.4853 36.1426 76.4372 36.1683 76.3853 36.1836L74.1211 36.9295C74.0187 36.9562 73.91 36.9449 73.8152 36.8976C73.7205 36.8503 73.6461 36.7703 73.6058 36.6723L73.6069 36.6713ZM76.5914 35.6938C76.5394 35.5142 76.3332 35.4112 76.1537 35.4632L73.8895 36.2091C73.7089 36.2601 73.6313 36.4662 73.6834 36.6468C73.7344 36.8275 73.9405 36.9295 74.1211 36.8785L76.3842 36.1315C76.4678 36.0984 76.5357 36.0347 76.5741 35.9535C76.6126 35.8722 76.6188 35.7794 76.5914 35.6938Z" fill="white"/>
<path d="M71.314 39.709C71.2619 39.5028 71.3905 39.2967 71.5966 39.2712L76.8719 38.2416C77.077 38.1906 77.2576 38.3447 77.3086 38.5498C77.3607 38.7559 77.2321 38.962 77.026 38.9886L71.7507 40.0171C71.5446 40.0426 71.3406 39.9151 71.314 39.709Z" fill="#F3F3F3"/>
<path d="M71.2619 39.709C71.2396 39.6034 71.2592 39.4933 71.3168 39.402C71.3743 39.3108 71.4652 39.2455 71.5701 39.2202L76.8464 38.1896C77.0526 38.1386 77.2576 38.2937 77.3097 38.5253C77.3321 38.6309 77.3124 38.741 77.2548 38.8323C77.1973 38.9235 77.1064 38.9888 77.0016 39.0141L71.7252 40.0426C71.5201 40.0947 71.314 39.9417 71.2619 39.709ZM77.2576 38.5508C77.2427 38.4628 77.1941 38.3839 77.1222 38.331C77.0502 38.278 76.9605 38.2551 76.8719 38.2672L71.5966 39.2978C71.416 39.3222 71.2885 39.5283 71.3395 39.709C71.365 39.8896 71.5456 40.0171 71.7252 39.9916L77.0005 38.962C77.1811 38.911 77.3086 38.7304 77.2576 38.5508Z" fill="white"/>
<path d="M74.6088 41.6905C74.5833 41.4844 74.7119 41.3038 74.9169 41.2783L77.2853 40.9946C77.3343 40.9896 77.3839 40.9943 77.4311 41.0085C77.4783 41.0227 77.5223 41.046 77.5605 41.0772C77.5987 41.1084 77.6303 41.1468 77.6537 41.1902C77.677 41.2337 77.6915 41.2813 77.6964 41.3304C77.723 41.5354 77.5934 41.716 77.3883 41.7415L75.0211 42.0242C74.8404 42.0507 74.6343 41.8967 74.6088 41.6905Z" fill="#F3F3F3"/>
<path d="M74.5844 41.6905C74.5578 41.4589 74.7119 41.2527 74.918 41.2272L77.2852 40.9435C77.3377 40.9384 77.3907 40.9437 77.4411 40.9591C77.4916 40.9745 77.5385 40.9997 77.5791 41.0333C77.6198 41.0668 77.6535 41.1081 77.6781 41.1547C77.7028 41.2013 77.7181 41.2523 77.723 41.3048C77.7485 41.5354 77.5944 41.7415 77.3883 41.767L75.0211 42.0507C74.9686 42.0558 74.9156 42.0505 74.8652 42.0351C74.8147 42.0197 74.7678 41.9945 74.7272 41.961C74.6865 41.9274 74.6528 41.8861 74.6282 41.8395C74.6035 41.7929 74.5882 41.7419 74.5833 41.6894L74.5844 41.6905ZM77.6975 41.3292C77.672 41.1497 77.4914 40.9945 77.3108 41.0211L74.9435 41.3037C74.8555 41.3191 74.7769 41.368 74.7242 41.4401C74.6715 41.5123 74.6488 41.602 74.6609 41.6905C74.6864 41.87 74.867 42.0252 75.0466 41.9986L77.4138 41.716C77.5018 41.7008 77.5805 41.6522 77.6334 41.5803C77.6862 41.5084 77.7092 41.4177 77.6975 41.3292Z" fill="white"/>
<path d="M71.7273 44.1863C71.7273 43.9802 71.8814 43.7996 72.0886 43.7996H77.4648C77.672 43.7996 77.8261 43.9802 77.8261 44.1863C77.8261 44.3924 77.672 44.572 77.4648 44.572H72.0886C71.8814 44.572 71.7273 44.3914 71.7273 44.1863Z" fill="#F3F3F3"/>
<path d="M71.7007 44.1863C71.7007 43.9547 71.8814 43.774 72.0864 43.774H77.4648C77.6709 43.774 77.8505 43.9547 77.8505 44.1863C77.8505 44.4179 77.6699 44.5975 77.4648 44.5975H72.0864C71.8803 44.5975 71.7007 44.4169 71.7007 44.1863ZM77.7995 44.2118C77.7995 44.0312 77.6444 43.8516 77.4637 43.8516H72.0875C71.9069 43.8516 71.7517 44.0057 71.7517 44.2118C71.7517 44.3924 71.9069 44.572 72.0864 44.572H77.4648C77.6454 44.5465 77.7995 44.3914 77.7995 44.2118Z" fill="white"/>
<path d="M74.5833 46.7852C74.6088 46.5791 74.7639 46.424 74.969 46.424L77.3628 46.6046C77.4617 46.615 77.5524 46.6643 77.615 46.7416C77.6776 46.8189 77.7068 46.9179 77.6964 47.0168C77.6709 47.2229 77.5158 47.377 77.3108 47.377L74.918 47.1964C74.7374 47.1709 74.5833 46.9903 74.5833 46.7852Z" fill="#F3F3F3"/>
<path d="M74.5578 46.7852C74.5658 46.681 74.6126 46.5836 74.6889 46.5122C74.7652 46.4408 74.8655 46.4006 74.9701 46.3995L77.3628 46.5791C77.5689 46.6046 77.7485 46.7852 77.723 47.0168C77.715 47.1209 77.6684 47.2182 77.5923 47.2896C77.5162 47.3609 77.4161 47.4012 77.3118 47.4025L74.918 47.2219C74.7119 47.1964 74.5578 46.9903 74.5578 46.7852ZM77.6975 47.0168C77.7023 46.9726 77.6981 46.9279 77.685 46.8854C77.6719 46.8429 77.6503 46.8035 77.6214 46.7697C77.5926 46.7359 77.5571 46.7083 77.5172 46.6887C77.4773 46.6691 77.4338 46.6578 77.3894 46.6556L74.9956 46.476C74.8149 46.476 74.6609 46.6046 74.6343 46.8107C74.6296 46.8549 74.634 46.8996 74.6473 46.9421C74.6605 46.9845 74.6822 47.0238 74.7112 47.0575C74.7401 47.0913 74.7757 47.1187 74.8156 47.1382C74.8556 47.1577 74.8991 47.1688 74.9435 47.1709L77.3373 47.3515C77.5179 47.3515 77.672 47.1975 77.6975 47.0168Z" fill="white"/>
<path d="M71.2619 48.6637C71.2829 48.5668 71.3396 48.4813 71.4207 48.4243C71.5018 48.3672 71.6014 48.3427 71.6997 48.3556L76.9739 49.4096C77.1801 49.4617 77.3086 49.6412 77.2576 49.8474C77.2364 49.9441 77.1797 50.0295 77.0986 50.0865C77.0176 50.1435 76.9182 50.1681 76.8199 50.1555L71.5456 49.1025C71.365 49.076 71.2375 48.8709 71.263 48.6648L71.2619 48.6637Z" fill="#F3F3F3"/>
<path d="M71.2375 48.6637C71.2582 48.5599 71.3173 48.4678 71.403 48.4057C71.4887 48.3436 71.5946 48.3162 71.6997 48.329L76.975 49.3841C77.0799 49.4094 77.1708 49.4746 77.2283 49.5659C77.2858 49.6571 77.3055 49.7673 77.2831 49.8728C77.2625 49.9766 77.2034 50.0687 77.1177 50.1308C77.032 50.1928 76.926 50.2202 76.8209 50.2075L71.5456 49.1524C71.3395 49.1014 71.2109 48.8953 71.2375 48.6637ZM77.2321 49.8728C77.2462 49.7848 77.228 49.6946 77.1807 49.619C77.1334 49.5434 77.0603 49.4875 76.975 49.4616L71.6997 48.4065C71.6081 48.3928 71.5147 48.4143 71.4384 48.4668C71.362 48.5192 71.3085 48.5987 71.2885 48.6892C71.2743 48.7774 71.2926 48.8677 71.3398 48.9435C71.3871 49.0192 71.4602 49.0754 71.5456 49.1014L76.8209 50.1554C77.0271 50.182 77.1811 50.0524 77.2321 49.8728Z" fill="white"/>
<path d="M73.5792 51.7513C73.591 51.7022 73.6123 51.656 73.6419 51.6152C73.6716 51.5744 73.709 51.5399 73.7521 51.5136C73.7951 51.4873 73.843 51.4699 73.8928 51.4621C73.9426 51.4544 73.9935 51.4566 74.0425 51.4687L76.3587 52.1115C76.5638 52.1636 76.6669 52.3697 76.6159 52.5747C76.5917 52.6735 76.5294 52.7587 76.4426 52.8117C76.3558 52.8646 76.2515 52.8811 76.1526 52.8574L73.8364 52.2146C73.6302 52.1636 73.5282 51.9574 73.5792 51.7513Z" fill="#F3F3F3"/>
<path d="M73.5527 51.7513C73.6037 51.5452 73.8353 51.3912 74.0414 51.4687L76.3577 52.1115C76.4583 52.1415 76.5436 52.2089 76.5961 52.2997C76.6487 52.3906 76.6645 52.4981 76.6403 52.6003C76.5893 52.8064 76.3577 52.9615 76.1516 52.884L73.8353 52.2401C73.6292 52.1891 73.5006 51.983 73.5527 51.7513ZM76.5638 52.6013C76.6148 52.4207 76.5117 52.2146 76.3311 52.1625L74.0149 51.5197C73.8353 51.4677 73.6557 51.5707 73.6037 51.7768C73.5527 51.9575 73.6557 52.1636 73.8353 52.2146L76.1516 52.8574C76.2398 52.8718 76.3302 52.8537 76.406 52.8064C76.4819 52.7591 76.5379 52.6869 76.5638 52.6013Z" fill="white"/>
<path d="M69.9519 52.9859C70.0284 52.7809 70.26 52.7033 70.4406 52.7809L75.4068 54.8389C75.5874 54.9165 75.6894 55.1481 75.6129 55.3277C75.5353 55.5338 75.3048 55.6114 75.1241 55.5338L70.1569 53.4758C69.9519 53.3982 69.8743 53.1655 69.9519 52.9859Z" fill="#F3F3F3"/>
<path d="M69.9242 52.9605C69.9621 52.8616 70.0375 52.7817 70.1341 52.7383C70.2307 52.6949 70.3405 52.6915 70.4396 52.7288L75.4057 54.788C75.6118 54.8645 75.6883 55.0961 75.6118 55.3277C75.5934 55.3769 75.5654 55.422 75.5295 55.4604C75.4936 55.4988 75.4505 55.5297 75.4026 55.5513C75.3547 55.5729 75.303 55.5849 75.2504 55.5864C75.1979 55.588 75.1456 55.5792 75.0965 55.5604L70.1304 53.5013C69.9242 53.3982 69.8477 53.1666 69.9242 52.9605ZM75.5597 55.3022C75.5786 55.26 75.5888 55.2144 75.5899 55.1682C75.591 55.122 75.583 55.076 75.5662 55.0329C75.5494 54.9898 75.5242 54.9505 75.4921 54.9172C75.46 54.8839 75.4216 54.8573 75.3791 54.839L70.413 52.7809C70.2324 52.7033 70.0528 52.8064 69.9763 52.987C69.8987 53.1666 69.9763 53.3727 70.1569 53.4492L75.122 55.5083C75.3026 55.5604 75.5087 55.4828 75.5597 55.3022Z" fill="white"/>
<path d="M71.6243 56.4603C71.7273 56.2797 71.9324 56.2032 72.113 56.2797L74.2486 57.3613C74.4292 57.4378 74.5068 57.6694 74.4038 57.8756C74.3007 58.0562 74.0946 58.1327 73.915 58.0562L71.7794 56.9746C71.5988 56.8726 71.5212 56.6399 71.6243 56.4603Z" fill="#F3F3F3"/>
<path d="M71.5987 56.4338C71.6214 56.3856 71.6537 56.3424 71.6935 56.3071C71.7334 56.2717 71.78 56.2448 71.8306 56.228C71.8812 56.2112 71.9347 56.2048 71.9878 56.2094C72.0409 56.2139 72.0925 56.2291 72.1396 56.2542L74.2752 57.3359C74.3233 57.3585 74.3663 57.3908 74.4016 57.4305C74.4368 57.4703 74.4637 57.5168 74.4805 57.5673C74.4973 57.6178 74.5036 57.6711 74.4992 57.7241C74.4948 57.7771 74.4797 57.8286 74.4547 57.8756C74.4322 57.9238 74.4 57.9669 74.3603 58.0023C74.3205 58.0377 74.274 58.0646 74.2236 58.0815C74.1731 58.0984 74.1197 58.1049 74.0667 58.1005C74.0136 58.0962 73.962 58.0811 73.915 58.0562L71.7794 56.9746C71.5732 56.8981 71.4957 56.6399 71.5987 56.4349V56.4338ZM74.3772 57.8501C74.4547 57.6695 74.4037 57.4634 74.2231 57.3869L72.0875 56.3063C71.9334 56.2287 71.7273 56.3063 71.6242 56.4604C71.5477 56.641 71.5987 56.846 71.7783 56.9236L73.9139 58.0042C74.0946 58.0817 74.3007 58.0297 74.3772 57.8501Z" fill="white"/>
<path d="M67.8417 56.9491C67.9703 56.7684 68.1764 56.7174 68.356 56.846L72.8334 59.8316C73.014 59.9336 73.0395 60.1663 72.9364 60.3459C72.8079 60.5265 72.6017 60.5775 72.4222 60.4489L67.9448 57.4633C67.7642 57.3358 67.7132 57.1031 67.8417 56.9491Z" fill="#F3F3F3"/>
<path d="M67.8162 56.9236C67.8796 56.8382 67.9714 56.7783 68.0751 56.7547C68.1788 56.7311 68.2875 56.7454 68.3815 56.795L72.8589 59.7806C73.0395 59.9081 73.0905 60.1398 72.9619 60.3459C72.8987 60.4315 72.8069 60.4915 72.7032 60.5151C72.5994 60.5387 72.4907 60.5243 72.3967 60.4744L67.9182 57.4888C67.7121 57.3613 67.6877 57.1031 67.8162 56.9236ZM72.8844 60.3204C72.9874 60.1663 72.9619 59.9336 72.8079 59.8316L68.3305 56.846C68.2554 56.7983 68.1644 56.7823 68.0775 56.8017C67.9907 56.821 67.915 56.874 67.8672 56.9491C67.7642 57.1031 67.7897 57.3358 67.9437 57.4378L72.4222 60.4234C72.4973 60.4712 72.5883 60.4871 72.6751 60.4678C72.762 60.4485 72.8366 60.3954 72.8844 60.3204Z" fill="white"/>
<path d="M68.7927 60.6806C68.9202 60.5265 69.1529 60.4744 69.3069 60.6041L71.1854 62.0703C71.3395 62.1978 71.3661 62.4305 71.2375 62.5846C71.1089 62.7386 70.8762 62.7907 70.7222 62.6621L68.8437 61.1959C68.7687 61.1342 68.7212 61.0454 68.7116 60.9488C68.7021 60.8522 68.7312 60.7557 68.7927 60.6806Z" fill="#F3F3F3"/>
<path d="M68.7682 60.6551C68.8957 60.4745 69.1539 60.449 69.3335 60.5775L71.212 62.0438C71.3926 62.1723 71.4181 62.4305 71.2896 62.6101C71.161 62.7907 70.9028 62.8162 70.7233 62.6876L68.8447 61.2214C68.6641 61.0918 68.6386 60.8346 68.7682 60.6551ZM71.2386 62.5846C71.3661 62.4305 71.3406 62.2244 71.1865 62.0958L69.308 60.6296C69.2318 60.5785 69.1392 60.558 69.0487 60.5722C68.9581 60.5864 68.8762 60.6342 68.8193 60.7061C68.6907 60.8601 68.7162 61.0673 68.8703 61.1948L70.7487 62.6611C70.8249 62.7121 70.9175 62.7326 71.0081 62.7185C71.0987 62.7043 71.1817 62.6565 71.2386 62.5846Z" fill="white"/>
<path d="M64.9592 60.4235C65.1132 60.2694 65.3449 60.2694 65.4734 60.4235L69.2825 64.206C69.3505 64.2743 69.3887 64.3667 69.3887 64.4631C69.3887 64.5595 69.3505 64.6519 69.2825 64.7202C69.1284 64.8743 68.8957 64.8743 68.7682 64.7202L64.9592 60.9377C64.8972 60.8664 64.8631 60.7751 64.8631 60.6806C64.8631 60.5861 64.8972 60.4948 64.9592 60.4235Z" fill="#F3F3F3"/>
<path d="M64.9581 60.3969C65.0336 60.3226 65.1353 60.2809 65.2413 60.2809C65.3472 60.2809 65.4489 60.3226 65.5244 60.3969L69.3324 64.1794C69.4067 64.2549 69.4484 64.3566 69.4484 64.4625C69.4484 64.5685 69.4067 64.6702 69.3324 64.7457C69.257 64.8197 69.1555 64.8611 69.0498 64.8611C68.9441 64.8611 68.8427 64.8197 68.7672 64.7457L64.9581 60.9632C64.9161 60.929 64.8823 60.8859 64.8591 60.837C64.8358 60.7881 64.8238 60.7347 64.8238 60.6806C64.8238 60.6264 64.8358 60.573 64.8591 60.5241C64.8823 60.4752 64.9161 60.4311 64.9581 60.3969ZM69.2814 64.6947C69.3436 64.6285 69.3782 64.5411 69.3782 64.4503C69.3782 64.3595 69.3436 64.2721 69.2814 64.2059L65.4734 60.4234C65.4071 60.3615 65.3198 60.3271 65.2291 60.3271C65.1383 60.3271 65.051 60.3615 64.9847 60.4234C64.9225 60.4896 64.8879 60.577 64.8879 60.6678C64.8879 60.7586 64.9225 60.846 64.9847 60.9122L68.7927 64.6947C68.9212 64.8488 69.1274 64.8488 69.2814 64.6947Z" fill="white"/>
<path d="M65.1919 64.257C65.3459 64.1295 65.5776 64.1295 65.7061 64.2825L67.2765 66.0845C67.3372 66.1598 67.3658 66.256 67.3561 66.3523C67.3464 66.4486 67.299 66.5371 67.2244 66.5987C67.0704 66.7273 66.8387 66.7273 66.7102 66.5732L65.1387 64.7723C65.0112 64.6437 65.0378 64.411 65.1919 64.257Z" fill="#F3F3F3"/>
<path d="M65.1653 64.2569C65.2441 64.1863 65.3474 64.1493 65.4531 64.1541C65.5589 64.1589 65.6585 64.2049 65.7306 64.2824L67.3009 66.0844C67.455 66.2385 67.4284 66.4956 67.2489 66.6507C67.17 66.7213 67.0665 66.758 66.9608 66.7531C66.8551 66.7481 66.7556 66.7018 66.6836 66.6242L65.1132 64.8232C64.9857 64.6426 64.9857 64.3855 65.1653 64.2569ZM67.2234 66.5987C67.3774 66.4712 67.3774 66.264 67.2754 66.1099L65.7051 64.309C65.6422 64.2434 65.5567 64.2041 65.4659 64.1992C65.3752 64.1942 65.2859 64.224 65.2163 64.2824C65.0622 64.4121 65.0622 64.6182 65.1653 64.7712L66.7346 66.5732C66.8632 66.7272 67.0693 66.7272 67.2234 66.5987Z" fill="white"/>
<path d="M61.4859 63.2794C61.5253 63.2492 61.5707 63.2278 61.6191 63.2165C61.6675 63.2053 61.7177 63.2046 61.7664 63.2143C61.8151 63.2241 61.8611 63.2441 61.9014 63.2731C61.9417 63.3021 61.9754 63.3394 62.0001 63.3825L64.9847 67.8344C65.0877 68.015 65.0367 68.2456 64.8816 68.3486C64.8422 68.3788 64.7968 68.4003 64.7484 68.4115C64.7 68.4227 64.6498 68.4235 64.6011 68.4137C64.5524 68.404 64.5064 68.3839 64.4661 68.3549C64.4258 68.3259 64.3921 68.2886 64.3674 68.2456L61.3818 63.7937C61.2798 63.6141 61.3318 63.3825 61.4859 63.2794Z" fill="#F3F3F3"/>
<path d="M61.4837 63.254C61.5729 63.1936 61.6821 63.1706 61.7879 63.1899C61.8938 63.2091 61.9879 63.2692 62.0501 63.357L65.0357 67.8089C65.0663 67.8539 65.0874 67.9047 65.0975 67.9582C65.1076 68.0117 65.1065 68.0668 65.0943 68.1198C65.0821 68.1729 65.0591 68.2229 65.0267 68.2667C64.9944 68.3104 64.9533 68.347 64.9061 68.3741C64.8171 68.4346 64.708 68.4578 64.6021 68.4387C64.4962 68.4196 64.402 68.3598 64.3397 68.2721L61.3552 63.8203C61.3237 63.7755 61.3019 63.7246 61.2913 63.6709C61.2806 63.6172 61.2814 63.5619 61.2935 63.5085C61.3057 63.4551 61.3288 63.4049 61.3616 63.361C61.3944 63.3172 61.436 63.2807 61.4837 63.254ZM64.8806 68.3231C64.9556 68.2754 65.0086 68.1997 65.028 68.1129C65.0473 68.026 65.0313 67.935 64.9836 67.8599L61.998 63.408C61.896 63.254 61.6899 63.2274 61.5092 63.3315C61.472 63.3551 61.4397 63.3858 61.4144 63.4219C61.389 63.4579 61.371 63.4987 61.3614 63.5417C61.3518 63.5848 61.3509 63.6293 61.3585 63.6727C61.3662 63.7161 61.3824 63.7576 61.4062 63.7948L64.3918 68.2466C64.4949 68.3741 64.7265 68.4262 64.8806 68.3231Z" fill="white"/>
<path d="M60.9429 67.0874C61.0282 67.0364 61.1302 67.0212 61.2267 67.0453C61.3231 67.0694 61.406 67.1308 61.4572 67.216L62.6419 69.3006C62.7439 69.4813 62.6663 69.7129 62.4867 69.8149C62.4446 69.8404 62.3979 69.8573 62.3492 69.8647C62.3006 69.872 62.2509 69.8697 62.2032 69.8579C62.1554 69.846 62.1104 69.8249 62.0708 69.7956C62.0312 69.7664 61.9978 69.7296 61.9725 69.6874L60.7889 67.6028C60.7113 67.4221 60.7634 67.1905 60.9429 67.0874Z" fill="#F3F3F3"/>
<path d="M60.9451 67.0619C61.1512 66.9589 61.3828 67.0109 61.4859 67.1905L62.6695 69.2751C62.7726 69.4557 62.7205 69.7129 62.5154 69.8149C62.3093 69.9179 62.0777 69.8669 61.9736 69.6874L60.791 67.6027C60.6879 67.4221 60.7389 67.1905 60.9451 67.0619ZM62.4889 69.7894C62.644 69.6874 62.7205 69.4813 62.6174 69.3261L61.4338 67.2426C61.3848 67.1692 61.3111 67.1159 61.2261 67.0921C61.1412 67.0683 61.0505 67.0757 60.9706 67.1129C60.8165 67.216 60.7389 67.4221 60.8431 67.5762L62.0256 69.6608C62.1032 69.8149 62.3337 69.8924 62.4889 69.7894Z" fill="white"/>
<path d="M57.5217 65.3896C57.7278 65.312 57.9339 65.3896 58.0104 65.5702L60.0951 70.5363C60.1726 70.717 60.0696 70.9475 59.8889 71.0251C59.7094 71.1026 59.4777 71.0251 59.4002 70.8445L57.3166 65.8783C57.2391 65.6977 57.3421 65.4671 57.5217 65.3896Z" fill="#F3F3F3"/>
<path d="M57.5227 65.3641C57.6222 65.3246 57.7328 65.3239 57.8328 65.362C57.9327 65.4002 58.0147 65.4745 58.0625 65.5702L60.1471 70.5363C60.1841 70.6353 60.1805 70.7448 60.1372 70.8411C60.0938 70.9374 60.0141 71.0127 59.9155 71.0506C59.8161 71.0903 59.7054 71.0912 59.6053 71.053C59.5053 71.0148 59.4234 70.9403 59.3757 70.8445L57.2911 65.8783C57.2136 65.6977 57.3166 65.4671 57.5227 65.3641ZM59.8645 70.9996C60.0451 70.922 60.1216 70.7159 60.0451 70.5618L57.9594 65.5957C57.8829 65.4151 57.6768 65.3386 57.4972 65.4151C57.3166 65.4926 57.2391 65.6988 57.3166 65.8528L59.4012 70.8189C59.5043 70.9996 59.6839 71.0761 59.8645 70.9996Z" fill="white"/>
<path d="M56.2605 69.0435C56.4666 68.9659 56.6727 69.069 56.7492 69.2751L57.4962 71.5393C57.5727 71.7199 57.4441 71.9516 57.2646 72.0026C57.0584 72.0801 56.8523 71.9771 56.7758 71.7709L56.0289 69.5068C55.9524 69.3261 56.0554 69.1211 56.2605 69.0435Z" fill="#F3F3F3"/>
<path d="M56.235 69.0181C56.3339 68.9811 56.4435 68.9846 56.5398 69.028C56.6361 69.0714 56.7114 69.1511 56.7492 69.2497L57.4962 71.5139C57.5727 71.72 57.4441 71.9516 57.238 72.0281C57.1391 72.0654 57.0294 72.062 56.933 72.0185C56.8366 71.9751 56.7614 71.8953 56.7238 71.7965L55.9779 69.5334C55.9512 69.4309 55.9625 69.3222 56.0098 69.2275C56.057 69.1327 56.1371 69.0583 56.235 69.0181ZM57.238 71.9771C57.4186 71.925 57.5217 71.72 57.4696 71.5394L56.7238 69.2752C56.6728 69.0946 56.4666 69.0181 56.286 69.0691C56.1054 69.1211 56.0034 69.3262 56.0544 69.5068L56.8013 71.771C56.8143 71.8147 56.8364 71.8551 56.8661 71.8897C56.8957 71.9243 56.9324 71.9522 56.9736 71.9716C57.0148 71.9911 57.0597 72.0016 57.1052 72.0026C57.1508 72.0035 57.196 71.9948 57.238 71.9771Z" fill="white"/>
<path d="M53.226 66.7018C53.4321 66.6508 53.6382 66.7793 53.6637 66.9855L54.7443 72.2608C54.7953 72.4659 54.6412 72.6465 54.4362 72.6975C54.2301 72.7495 54.0239 72.621 53.9984 72.4148L52.9168 67.1395C52.9077 67.0418 52.9337 66.9441 52.9902 66.8638C53.0466 66.7836 53.1309 66.7261 53.226 66.7018Z" fill="#F3F3F3"/>
<path d="M53.2239 66.6762C53.3294 66.6539 53.4395 66.6735 53.5308 66.7311C53.6221 66.7886 53.6873 66.8795 53.7126 66.9844L54.7932 72.2607C54.8452 72.4658 54.6901 72.6974 54.4851 72.7229C54.3795 72.7453 54.2694 72.7256 54.1781 72.6681C54.0869 72.6106 54.0216 72.5197 53.9963 72.4148L52.9147 67.1395C52.8637 66.9334 52.9933 66.7272 53.2239 66.6762ZM54.433 72.6719C54.6136 72.6464 54.7411 72.4658 54.7156 72.2597L53.6351 66.9844C53.6096 66.8048 53.4034 66.6762 53.2239 66.7272C53.0432 66.7538 52.9157 66.9334 52.9402 67.1395L54.0218 72.4148C54.0728 72.5954 54.2524 72.6974 54.433 72.6719Z" fill="white"/>
<path d="M51.2689 70.0476C51.3672 70.0346 51.4668 70.0592 51.5479 70.1162C51.6289 70.1733 51.6856 70.2588 51.7066 70.3557L52.0147 72.7229C52.0252 72.8218 51.9959 72.9208 51.9333 72.9981C51.8707 73.0754 51.78 73.1247 51.6811 73.1352C51.5828 73.1481 51.4832 73.1236 51.4021 73.0665C51.3211 73.0094 51.2644 72.924 51.2434 72.8271L50.9352 70.4587C50.9251 70.36 50.9546 70.2613 51.0171 70.1842C51.0796 70.1072 51.1702 70.058 51.2689 70.0476Z" fill="#F3F3F3"/>
<path d="M51.2699 70.021C51.5016 69.9955 51.7077 70.1506 51.7332 70.3557L52.0413 72.7229C52.0517 72.8286 52.0197 72.9341 51.9523 73.0161C51.885 73.0982 51.7878 73.1502 51.6822 73.1607C51.4506 73.1862 51.2444 73.0321 51.2189 72.826L50.9108 70.4588C50.9004 70.3531 50.9324 70.2476 50.9998 70.1655C51.0671 70.0835 51.1643 70.0315 51.2699 70.021ZM51.6556 73.1097C51.8362 73.0831 51.9903 72.9036 51.9648 72.7229L51.6567 70.3557C51.6413 70.2677 51.5924 70.1891 51.5203 70.1364C51.4482 70.0837 51.3584 70.061 51.2699 70.0731C51.0893 70.0986 50.9352 70.2792 50.9618 70.4588L51.2699 72.826C51.2954 73.0066 51.4761 73.1352 51.6556 73.1097Z" fill="white"/>
<path d="M48.6179 67.165C48.8241 67.165 49.0036 67.3191 49.0036 67.5263V72.9025C49.0036 73.1097 48.823 73.2638 48.6179 73.2638C48.4118 73.2638 48.2323 73.1097 48.2323 72.9025V67.5263C48.2578 67.3202 48.4129 67.165 48.6179 67.165Z" fill="#F3F3F3"/>
<path d="M48.619 67.1395C48.8506 67.1395 49.0312 67.3202 49.0312 67.5252V72.9036C49.0312 73.1097 48.8506 73.2893 48.619 73.2893C48.3874 73.2893 48.2078 73.1087 48.2078 72.9036V67.5252C48.2078 67.3191 48.4129 67.1395 48.619 67.1395ZM48.619 73.2383C48.7996 73.2383 48.9792 73.0842 48.9792 72.9036V67.5252C48.9792 67.3446 48.8251 67.1905 48.619 67.1905C48.4384 67.1905 48.2588 67.3457 48.2588 67.5252V72.9036C48.2843 73.0842 48.4394 73.2383 48.619 73.2383Z" fill="white"/>
<path d="M46.0456 70.0475C46.2507 70.073 46.4058 70.2271 46.4058 70.4332L46.2252 72.826C46.215 72.9249 46.166 73.0157 46.0889 73.0784C46.0118 73.1412 45.9129 73.1708 45.814 73.1607C45.6079 73.1352 45.4527 72.98 45.4527 72.775L45.6334 70.3812C45.6384 70.3321 45.6531 70.2845 45.6765 70.2411C45.7 70.1977 45.7318 70.1594 45.7701 70.1283C45.8084 70.0972 45.8524 70.074 45.8997 70.06C45.947 70.0459 45.9966 70.0424 46.0456 70.0475Z" fill="#F3F3F3"/>
<path d="M46.0456 70.021C46.15 70.0287 46.2477 70.0754 46.3194 70.1517C46.391 70.2281 46.4313 70.3286 46.4324 70.4333L46.2517 72.826C46.2262 73.0321 46.0467 73.2117 45.8151 73.1872C45.7107 73.1795 45.6129 73.1329 45.5413 73.0565C45.4697 72.9802 45.4294 72.8797 45.4283 72.775L45.6089 70.3812C45.6344 70.1496 45.814 69.9955 46.0456 70.021ZM45.814 73.1341C45.9946 73.1341 46.1752 73.0066 46.1752 72.826L46.3559 70.4333C46.3559 70.2526 46.2262 70.0986 46.0201 70.072C45.8395 70.072 45.6599 70.2016 45.6599 70.3822L45.4793 72.775C45.4793 72.9556 45.6344 73.1097 45.8151 73.1352L45.814 73.1341Z" fill="white"/>
<path d="M44.114 66.7018C44.2111 66.7226 44.2968 66.7791 44.3541 66.8602C44.4114 66.9414 44.4361 67.0411 44.4232 67.1395L43.3681 72.4148C43.3171 72.621 43.1365 72.7495 42.9304 72.6975C42.8335 72.6764 42.748 72.6198 42.6909 72.5387C42.6338 72.4576 42.6093 72.358 42.6222 72.2597L43.6773 66.9844C43.7028 66.8048 43.9089 66.6763 44.114 66.7018Z" fill="#F3F3F3"/>
<path d="M44.114 66.6763C44.218 66.697 44.3103 66.7562 44.3724 66.8421C44.4345 66.9281 44.4617 67.0343 44.4487 67.1395L43.3936 72.4149C43.3683 72.5197 43.3031 72.6106 43.2118 72.6681C43.1205 72.7257 43.0104 72.7454 42.9049 72.723C42.8009 72.7023 42.7086 72.6431 42.6465 72.5571C42.5844 72.4712 42.5572 72.3649 42.5702 72.2597L43.6253 66.9844C43.6763 66.7794 43.8824 66.6497 44.114 66.6763ZM42.9049 72.672C42.9929 72.6861 43.0831 72.6678 43.1587 72.6205C43.2343 72.5733 43.2902 72.5002 43.3161 72.4149L44.3711 67.1395C44.3854 67.0477 44.3642 66.954 44.3116 66.8773C44.2591 66.8007 44.1793 66.747 44.0885 66.7273C44.0002 66.7132 43.9097 66.7316 43.8339 66.779C43.7581 66.8265 43.7021 66.8999 43.6763 66.9855L42.6212 72.2597C42.5957 72.4659 42.7243 72.621 42.9049 72.672Z" fill="white"/>
<path d="M41.0274 69.018C41.0766 69.0296 41.123 69.0508 41.1639 69.0804C41.2048 69.11 41.2394 69.1474 41.2658 69.1905C41.2922 69.2336 41.3097 69.2814 41.3175 69.3313C41.3253 69.3812 41.3231 69.4322 41.3111 69.4812L40.6672 71.7975C40.6162 72.0026 40.4101 72.1056 40.204 72.0546C40.1301 72.0371 40.0631 71.9979 40.0116 71.942C39.9601 71.8862 39.9265 71.8163 39.915 71.7412C39.9073 71.6913 39.9094 71.6404 39.9214 71.5914L40.5642 69.2751C40.6162 69.069 40.8224 68.967 41.0274 69.018Z" fill="#F3F3F3"/>
<path d="M41.0274 68.9925C41.2336 69.0435 41.3887 69.2752 41.3111 69.4813L40.6672 71.7975C40.6375 71.8983 40.5702 71.9837 40.4792 72.0363C40.3883 72.0889 40.2807 72.1046 40.1785 72.0801C39.9724 72.0291 39.8183 71.7975 39.8959 71.5914L40.5387 69.2752C40.5907 69.069 40.7958 68.9415 41.0274 68.9925ZM40.1785 72.0026C40.3591 72.0546 40.5642 71.9516 40.6162 71.771L41.2591 69.4547C41.3111 69.2751 41.2081 69.0956 41.0019 69.0435C40.8213 68.9915 40.6162 69.0945 40.5642 69.2752L39.9214 71.5914C39.9073 71.6794 39.9255 71.7696 39.9728 71.8452C40.0201 71.9208 40.0932 71.9767 40.1785 72.0026Z" fill="white"/>
<path d="M39.7673 65.3896C39.9734 65.4661 40.051 65.6977 39.9734 65.8783L37.9154 70.8445C37.8378 71.0251 37.6062 71.1282 37.4266 71.0251C37.246 70.922 37.1429 70.717 37.2205 70.5363L39.2786 65.5692C39.3561 65.3896 39.5867 65.2865 39.7673 65.3896Z" fill="#F3F3F3"/>
<path d="M39.7662 65.3641C39.8652 65.4015 39.9453 65.4766 39.989 65.5731C40.0326 65.6695 40.0362 65.7793 39.9989 65.8783L37.9387 70.8444C37.8622 71.0506 37.6306 71.1281 37.399 71.0506C37.3002 71.0129 37.2204 70.9377 37.1769 70.8413C37.1335 70.7449 37.1301 70.6352 37.1674 70.5363L39.2254 65.5691C39.3285 65.3641 39.5601 65.261 39.7662 65.3641ZM37.4256 70.9996C37.6062 71.0761 37.8112 70.9996 37.8888 70.8189L39.9469 65.8528C40.0244 65.6722 39.9214 65.4916 39.7418 65.4151C39.6996 65.3962 39.654 65.386 39.6078 65.3849C39.5615 65.3838 39.5156 65.3918 39.4725 65.4086C39.4294 65.4254 39.3901 65.4506 39.3568 65.4827C39.3235 65.5148 39.2969 65.5532 39.2786 65.5957L37.2194 70.5618C37.1948 70.6474 37.2021 70.739 37.24 70.8195C37.2779 70.9001 37.3439 70.9641 37.4256 70.9996Z" fill="white"/>
<path d="M36.2919 67.0364C36.4725 67.1395 36.549 67.3446 36.4725 67.5252L35.3909 69.6608C35.3676 69.705 35.3357 69.7442 35.2971 69.7759C35.2585 69.8077 35.214 69.8314 35.1661 69.8458C35.1182 69.8601 35.0679 69.8648 35.0182 69.8595C34.9685 69.8542 34.9204 69.839 34.8766 69.8149C34.696 69.7129 34.6195 69.5068 34.696 69.3261L35.7776 67.1905C35.8009 67.1463 35.8328 67.1072 35.8714 67.0754C35.91 67.0437 35.9545 67.0199 36.0024 67.0056C36.0503 66.9912 36.1006 66.9866 36.1503 66.9919C36.2 66.9972 36.2481 67.0123 36.2919 67.0364Z" fill="#F3F3F3"/>
<path d="M36.2919 67.0109C36.3401 67.0335 36.3832 67.0657 36.4186 67.1054C36.4539 67.1451 36.4809 67.1917 36.4978 67.2421C36.5147 67.2926 36.5212 67.346 36.5168 67.399C36.5125 67.452 36.4974 67.5036 36.4725 67.5507L35.3909 69.6863C35.3683 69.7345 35.3361 69.7776 35.2964 69.813C35.2567 69.8484 35.2102 69.8753 35.1597 69.8922C35.1092 69.9091 35.0559 69.9156 35.0028 69.9112C34.9498 69.9069 34.8982 69.8918 34.8511 69.8669C34.8028 69.8444 34.7596 69.8122 34.7241 69.7724C34.6886 69.7325 34.6616 69.6859 34.6447 69.6353C34.6278 69.5847 34.6214 69.5312 34.6258 69.4781C34.6302 69.4249 34.6454 69.3732 34.6705 69.3261L35.7511 67.1905C35.7736 67.1422 35.8058 67.099 35.8456 67.0635C35.8855 67.028 35.9321 67.001 35.9827 66.9841C36.0333 66.9672 36.0868 66.9607 36.1399 66.9652C36.1931 66.9696 36.2448 66.9859 36.2919 67.0109ZM34.8766 69.8159C35.0573 69.8924 35.2623 69.8414 35.3388 69.6608L36.4204 67.5252C36.4969 67.3711 36.4204 67.165 36.2664 67.0619C36.0858 66.9854 35.8796 67.0364 35.8031 67.216L34.7215 69.3516C34.645 69.5067 34.7215 69.7139 34.8766 69.8159Z" fill="white"/>
<path d="M35.7787 63.2284C35.9593 63.3559 36.0103 63.5886 35.8817 63.7427L32.8961 68.1946C32.7941 68.3752 32.5614 68.4007 32.3819 68.2976C32.2012 68.1691 32.1502 67.9364 32.2788 67.7823L35.2644 63.3304C35.2893 63.2874 35.323 63.2503 35.3633 63.2214C35.4037 63.1924 35.4497 63.1725 35.4984 63.1628C35.5471 63.1532 35.5973 63.154 35.6456 63.1654C35.694 63.1767 35.7393 63.1982 35.7787 63.2284Z" fill="#F3F3F3"/>
<path d="M35.7776 63.2019C35.9582 63.3315 36.0092 63.5886 35.9062 63.7682L32.9206 68.2201C32.8592 68.3086 32.7652 68.3691 32.6592 68.3884C32.5533 68.4077 32.444 68.3843 32.3553 68.3232C32.2697 68.2598 32.2096 68.1678 32.186 68.0638C32.1624 67.9599 32.1769 67.851 32.2268 67.7568L35.2124 63.305C35.2745 63.2174 35.3684 63.1576 35.474 63.1383C35.5796 63.1191 35.6886 63.1419 35.7776 63.2019ZM32.3808 68.2721C32.5349 68.3741 32.7676 68.3486 32.8696 68.1946L35.8552 63.7427C35.9029 63.6676 35.9189 63.5766 35.8995 63.4898C35.8802 63.4029 35.8272 63.3273 35.7521 63.2795C35.5981 63.1764 35.3664 63.203 35.2634 63.356L32.2778 67.7823C32.2297 67.8617 32.2136 67.9563 32.2328 68.0471C32.2519 68.1378 32.3048 68.219 32.3808 68.2721Z" fill="white"/>
<path d="M32.0206 64.1794C32.1757 64.309 32.2267 64.5406 32.0982 64.6947L30.6075 66.5732C30.5459 66.6482 30.457 66.6957 30.3604 66.7052C30.2638 66.7148 30.1673 66.6857 30.0922 66.6242C29.9381 66.4967 29.8861 66.264 30.0157 66.1099L31.5074 64.2314C31.5691 64.1564 31.6579 64.1089 31.7545 64.0994C31.8512 64.0898 31.9476 64.119 32.0227 64.1804L32.0206 64.1794Z" fill="#F3F3F3"/>
<path d="M32.0472 64.155C32.2278 64.2825 32.2533 64.5406 32.1237 64.7202L30.6319 66.5987C30.5034 66.7793 30.2462 66.8048 30.0656 66.6508C29.885 66.5211 29.8595 66.264 29.9891 66.0845L31.4809 64.206C31.6094 64.0253 31.8666 63.9998 32.0472 64.155ZM30.1177 66.5987C30.2717 66.7273 30.4779 66.7018 30.6064 66.5477L32.0982 64.6692C32.1493 64.5931 32.1697 64.5004 32.1556 64.4099C32.1414 64.3193 32.0936 64.2374 32.0217 64.1805C31.8666 64.0519 31.6604 64.0774 31.5329 64.2315L30.0401 66.11C29.9371 66.264 29.9636 66.4956 30.1177 66.5987Z" fill="white"/>
<path d="M32.2788 60.3204C32.4329 60.4745 32.4329 60.7061 32.2788 60.8347L28.4708 64.6171C28.4025 64.6855 28.3098 64.7239 28.2132 64.7239C28.1165 64.7239 28.0238 64.6855 27.9555 64.6171C27.828 64.4896 27.8014 64.2315 27.9555 64.1029L31.738 60.3204C31.7729 60.2836 31.8149 60.2542 31.8614 60.2341C31.908 60.2141 31.9582 60.2037 32.0089 60.2037C32.0597 60.2037 32.1098 60.2141 32.1564 60.2341C32.203 60.2542 32.244 60.2836 32.2788 60.3204Z" fill="#F3F3F3"/>
<path d="M32.3043 60.2949C32.3783 60.3704 32.4197 60.4718 32.4197 60.5775C32.4197 60.6832 32.3783 60.7847 32.3043 60.8601L28.4963 64.6426C28.4208 64.7169 28.3191 64.7586 28.2132 64.7586C28.1072 64.7586 28.0055 64.7169 27.93 64.6426C27.856 64.5672 27.8146 64.4657 27.8146 64.36C27.8146 64.2543 27.856 64.1529 27.93 64.0774L31.738 60.2949C31.8135 60.2206 31.9152 60.179 32.0212 60.179C32.1271 60.179 32.2288 60.2206 32.3043 60.2949ZM27.9555 64.6171C28.0218 64.6791 28.1091 64.7135 28.1999 64.7135C28.2906 64.7135 28.3779 64.6791 28.4442 64.6171L32.2533 60.8346C32.3155 60.7685 32.3501 60.6811 32.3501 60.5903C32.3501 60.4995 32.3155 60.4121 32.2533 60.3459C32.1871 60.2837 32.0997 60.2491 32.0089 60.2491C31.9181 60.2491 31.8308 60.2837 31.7646 60.3459L27.9555 64.1284C27.828 64.257 27.828 64.4631 27.9555 64.6171Z" fill="white"/>
<path d="M28.4187 60.5265C28.5462 60.6806 28.5462 60.9122 28.3922 61.0408L26.5647 62.5846C26.4895 62.6455 26.3934 62.6743 26.2971 62.6647C26.2008 62.6552 26.1122 62.6081 26.0504 62.5336C25.9219 62.3785 25.9219 62.1469 26.0759 62.0183L27.9034 60.4745C27.9786 60.4135 28.0749 60.3847 28.1713 60.3944C28.2677 60.4042 28.3562 60.4517 28.4177 60.5265H28.4187Z" fill="#F3F3F3"/>
<path d="M28.4443 60.4999C28.5983 60.6806 28.5728 60.9377 28.4188 61.0662L26.5912 62.6101C26.4372 62.7652 26.1801 62.7397 26.026 62.5591C25.8709 62.3784 25.8964 62.1213 26.0515 61.9927L27.879 60.4489C28.032 60.2949 28.2902 60.3204 28.4443 60.501V60.4999ZM26.077 62.5336C26.2056 62.6876 26.4117 62.6876 26.5657 62.5846L28.3933 61.0407C28.4587 60.9777 28.4978 60.8922 28.5025 60.8014C28.5073 60.7106 28.4773 60.6215 28.4188 60.552C28.2902 60.3979 28.0841 60.3979 27.93 60.501L26.1025 62.0448C25.9484 62.1723 25.9484 62.3795 26.077 62.5336Z" fill="white"/>
<path d="M29.4494 56.8205C29.4797 56.86 29.5013 56.9056 29.5125 56.9541C29.5238 57.0026 29.5245 57.053 29.5146 57.1019C29.5048 57.1507 29.4845 57.1969 29.4553 57.2372C29.4261 57.2776 29.3886 57.3112 29.3452 57.3358L24.87 60.3204C24.6894 60.4234 24.4577 60.3714 24.3547 60.2173C24.3243 60.1779 24.3027 60.1324 24.2914 60.0839C24.28 60.0354 24.2792 59.985 24.289 59.9362C24.2987 59.8874 24.3189 59.8412 24.348 59.8008C24.3771 59.7604 24.4145 59.7267 24.4577 59.702L28.9351 56.7174C29.0902 56.6154 29.3197 56.6664 29.4494 56.8205Z" fill="#F3F3F3"/>
<path d="M29.4738 56.8205C29.5341 56.9098 29.5569 57.0191 29.5374 57.125C29.518 57.2309 29.4577 57.3249 29.3697 57.3869L24.8934 60.3725C24.8483 60.4033 24.7974 60.4245 24.7438 60.4347C24.6902 60.4449 24.635 60.4438 24.5818 60.4317C24.5286 60.4195 24.4785 60.3964 24.4347 60.3639C24.3908 60.3314 24.3542 60.2902 24.3271 60.2429C24.267 60.1538 24.2442 60.0449 24.2635 59.9392C24.2827 59.8336 24.3425 59.7397 24.4301 59.6776L28.9075 56.692C28.9524 56.6613 29.0032 56.6402 29.0567 56.63C29.1101 56.6198 29.1651 56.6208 29.2182 56.6329C29.2712 56.645 29.3212 56.6679 29.3651 56.7001C29.4089 56.7324 29.4455 56.7734 29.4727 56.8205H29.4738ZM24.3781 60.1919C24.4811 60.3459 24.6862 60.398 24.8413 60.2949L29.3187 57.3093C29.4738 57.2073 29.5248 57.0012 29.3962 56.8205C29.3485 56.7455 29.2728 56.6925 29.186 56.6731C29.0991 56.6538 29.0081 56.6698 28.933 56.7175L24.4556 59.7031C24.3836 59.7599 24.3355 59.8417 24.3212 59.9323C24.3068 60.0229 24.3271 60.1156 24.3781 60.1919Z" fill="white"/>
<path d="M25.6138 56.2808C25.6648 56.366 25.68 56.4681 25.6559 56.5645C25.6318 56.6609 25.5704 56.7438 25.4852 56.795L23.4006 57.9787C23.2199 58.0817 22.9894 58.0042 22.8863 57.8246C22.8609 57.7823 22.844 57.7355 22.8367 57.6867C22.8294 57.6379 22.8317 57.5881 22.8437 57.5403C22.8556 57.4924 22.8769 57.4473 22.9063 57.4077C22.9356 57.3681 22.9726 57.3346 23.0149 57.3093L25.0995 56.1257C25.2801 56.0226 25.5107 56.1012 25.6138 56.2808Z" fill="#F3F3F3"/>
<path d="M25.6403 56.2542C25.7423 56.4603 25.6913 56.692 25.5107 56.795L23.4261 57.9786C23.2465 58.0817 22.9894 58.0041 22.8863 57.8246C22.7832 57.6185 22.8342 57.3868 23.0149 57.2838L25.0995 56.1001C25.2801 55.9971 25.5372 56.0746 25.6392 56.2542H25.6403ZM22.9118 57.7991C23.0149 57.9786 23.2199 58.0307 23.3751 57.9266L25.4597 56.743C25.5326 56.6938 25.5855 56.6202 25.6091 56.5355C25.6327 56.4508 25.6253 56.3605 25.5882 56.2808C25.4852 56.1001 25.2801 56.0481 25.125 56.1511L23.0404 57.3348C22.8863 57.4123 22.8342 57.6185 22.9129 57.7991H22.9118Z" fill="white"/>
<path d="M27.3371 52.8574C27.4147 53.0635 27.3371 53.2696 27.131 53.3461L22.1649 55.4053C21.9842 55.4828 21.7537 55.3798 21.6761 55.1991C21.5986 54.993 21.6761 54.7879 21.8822 54.7104L26.8484 52.6523C27.029 52.5748 27.2606 52.6513 27.3371 52.8574Z" fill="#F3F3F3"/>
<path d="M27.3626 52.8319C27.4027 52.9313 27.4039 53.0422 27.3659 53.1424C27.3279 53.2427 27.2535 53.3249 27.1576 53.3727L22.1904 55.4308C22.0915 55.468 21.9818 55.4646 21.8854 55.4212C21.789 55.3778 21.7138 55.2979 21.6761 55.1991C21.6364 55.0997 21.6355 54.989 21.6737 54.889C21.7119 54.789 21.7864 54.707 21.8822 54.6594L26.8484 52.6003C26.9473 52.563 27.057 52.5664 27.1534 52.6098C27.2497 52.6532 27.325 52.7331 27.3626 52.8319ZM21.7271 55.1736C21.8047 55.3543 22.0108 55.4308 22.1649 55.3798L27.131 53.3206C27.1735 53.3024 27.212 53.2759 27.2442 53.2426C27.2764 53.2094 27.3016 53.17 27.3185 53.1269C27.3353 53.0838 27.3433 53.0377 27.3422 52.9915C27.341 52.9452 27.3306 52.8996 27.3116 52.8574C27.2759 52.7759 27.2119 52.7102 27.1313 52.6725C27.0508 52.6347 26.9593 52.6276 26.8739 52.6523L21.9077 54.7104C21.8653 54.7287 21.8269 54.7553 21.7948 54.7886C21.7627 54.8219 21.7375 54.8612 21.7207 54.9043C21.7039 54.9474 21.6958 54.9934 21.6969 55.0396C21.698 55.0858 21.7083 55.1314 21.7271 55.1736Z" fill="white"/>
<path d="M23.7108 51.5707C23.7873 51.7768 23.6842 51.983 23.4792 52.0595L21.2139 52.8064C21.0333 52.8829 20.8027 52.7554 20.7507 52.5748C20.6742 52.3687 20.7762 52.1625 20.9823 52.086L23.2476 51.3391C23.4271 51.2626 23.6333 51.3657 23.7108 51.5707Z" fill="#F3F3F3"/>
<path d="M23.7352 51.5463C23.7541 51.5968 23.7623 51.6507 23.7594 51.7045C23.7565 51.7584 23.7426 51.8111 23.7185 51.8593C23.6943 51.9075 23.6606 51.9503 23.6192 51.9849C23.5779 52.0195 23.5298 52.0453 23.4781 52.0605L21.2139 52.8064C21.0078 52.8829 20.7762 52.7554 20.6986 52.5493C20.6796 52.4986 20.6713 52.4446 20.6742 52.3905C20.6771 52.3365 20.6911 52.2837 20.7153 52.2353C20.7395 52.1869 20.7735 52.1441 20.8151 52.1094C20.8566 52.0748 20.9049 52.0491 20.9568 52.034L23.2199 51.2881C23.3224 51.2614 23.4311 51.2727 23.5258 51.32C23.6206 51.3673 23.695 51.4483 23.7352 51.5463ZM20.7496 52.5238C20.8028 52.7044 21.0078 52.8064 21.1884 52.7554L23.4516 52.0085C23.6322 51.9575 23.7097 51.7513 23.6587 51.5718C23.6067 51.3911 23.4006 51.2881 23.221 51.3402L20.9568 52.086C20.8735 52.1194 20.8058 52.1831 20.7676 52.2643C20.7293 52.3456 20.7222 52.4383 20.7496 52.5238Z" fill="white"/>
<path d="M26.0271 48.5097C26.0781 48.7147 25.9495 48.9209 25.7434 48.9464L20.4681 49.9759C20.263 50.028 20.0824 49.8728 20.0314 49.6678C19.9793 49.4617 20.1079 49.2555 20.314 49.229L25.5893 48.2005C25.7954 48.175 26.0016 48.3046 26.0271 48.5097Z" fill="#F3F3F3"/>
<path d="M26.0791 48.5096C26.1015 48.6152 26.0818 48.7253 26.0243 48.8166C25.9667 48.9078 25.8759 48.9731 25.771 48.9984L20.4946 50.0269C20.2896 50.0789 20.0834 49.9249 20.0324 49.6922C20.0101 49.5866 20.0297 49.4765 20.0873 49.3852C20.1448 49.294 20.2357 49.2287 20.3406 49.2034L25.6159 48.1749C25.822 48.1229 26.0271 48.2769 26.0791 48.5096ZM20.0834 49.6677C20.1089 49.8473 20.2896 49.9759 20.4691 49.9504L25.7444 48.9208C25.9251 48.8953 26.0526 48.6892 26.0016 48.5086C25.9862 48.4208 25.9374 48.3424 25.8655 48.2897C25.7937 48.237 25.7042 48.2142 25.6159 48.2259L20.3406 49.2555C20.1599 49.3065 20.0324 49.4882 20.0834 49.6677Z" fill="white"/>
<path d="M22.7333 46.5281C22.7588 46.7332 22.6303 46.9138 22.4252 46.9393L20.0569 47.223C20.0078 47.2281 19.9582 47.2235 19.9109 47.2094C19.8636 47.1952 19.8196 47.1719 19.7814 47.1407C19.7432 47.1095 19.7115 47.071 19.6882 47.0275C19.6649 46.984 19.6505 46.9363 19.6457 46.8872C19.6379 46.8399 19.6397 46.7914 19.6511 46.7448C19.6626 46.6982 19.6833 46.6543 19.7121 46.6159C19.7408 46.5775 19.7771 46.5453 19.8186 46.5213C19.8602 46.4972 19.9062 46.4818 19.9538 46.476L22.3211 46.1934C22.5017 46.1668 22.7078 46.3209 22.7333 46.5281Z" fill="#F3F3F3"/>
<path d="M22.7577 46.5281C22.7832 46.7597 22.6281 46.9648 22.4231 46.9903L20.0558 47.274C20.0034 47.2791 19.9505 47.2738 19.9001 47.2585C19.8498 47.2432 19.8029 47.2181 19.7623 47.1846C19.7216 47.1512 19.6879 47.11 19.6632 47.0636C19.6385 47.0171 19.6231 46.9662 19.6181 46.9138C19.5926 46.6821 19.7456 46.476 19.9527 46.4505L22.32 46.1668C22.3724 46.1619 22.4253 46.1673 22.4756 46.1827C22.5259 46.1982 22.5727 46.2234 22.6132 46.257C22.6538 46.2905 22.6873 46.3317 22.7119 46.3782C22.7365 46.4248 22.7518 46.4757 22.7567 46.5281H22.7577ZM19.6436 46.8883C19.6691 47.0689 19.8497 47.223 20.0292 47.1964L22.3965 46.9138C22.4845 46.8986 22.5631 46.85 22.616 46.7781C22.6689 46.7062 22.6919 46.6166 22.6802 46.5281C22.6547 46.3475 22.4741 46.1934 22.2945 46.2189L19.9262 46.5026C19.8384 46.518 19.76 46.5667 19.7073 46.6386C19.6546 46.7105 19.6318 46.7999 19.6436 46.8883Z" fill="white"/>
<path d="M25.6137 44.0312C25.6137 44.2373 25.4597 44.4179 25.2536 44.4179H19.8762C19.6701 44.4179 19.515 44.2373 19.515 44.0323C19.515 43.8261 19.6701 43.6455 19.8762 43.6455H25.2536C25.4597 43.6455 25.6148 43.8261 25.6148 44.0323H25.6137V44.0312Z" fill="#F3F3F3"/>
<path d="M25.6403 44.0312C25.6403 44.2628 25.4597 44.4434 25.2546 44.4434H19.8762C19.6712 44.4434 19.4906 44.2628 19.4906 44.0312C19.4906 43.7996 19.6712 43.62 19.8762 43.62H25.2546C25.4608 43.62 25.6403 43.8006 25.6403 44.0312ZM19.5416 44.0057C19.5416 44.1863 19.6967 44.3669 19.8762 44.3669H25.2546C25.4353 44.3669 25.5893 44.2118 25.5893 44.0057C25.5893 43.8251 25.4342 43.6455 25.2546 43.6455H19.8762C19.6956 43.671 19.5426 43.8261 19.5426 44.0067L19.5416 44.0057Z" fill="white"/>
<path d="M22.7588 41.4323C22.7333 41.6385 22.5782 41.7936 22.3721 41.7936L19.9793 41.613C19.9302 41.6079 19.8827 41.5932 19.8393 41.5698C19.7959 41.5463 19.7575 41.5145 19.7265 41.4763C19.6954 41.438 19.6721 41.3939 19.6581 41.3466C19.6441 41.2993 19.6395 41.2498 19.6446 41.2007C19.6701 40.9946 19.8253 40.8405 20.0314 40.8405L22.4241 41.0211C22.6048 41.0466 22.7588 41.2273 22.7588 41.4323Z" fill="#E2E2E2"/>
<path d="M22.7843 41.4323C22.7764 41.5364 22.7297 41.6336 22.6536 41.705C22.5775 41.7764 22.4775 41.8167 22.3731 41.818L19.9793 41.6384C19.7743 41.6129 19.5936 41.4323 19.6202 41.2007C19.6281 41.0967 19.6748 40.9994 19.7509 40.928C19.827 40.8566 19.927 40.8163 20.0314 40.815L22.4241 40.9956C22.6303 41.0211 22.7843 41.2272 22.7843 41.4323ZM19.6457 41.2007C19.6202 41.3813 19.7732 41.5619 19.9538 41.5619L22.3476 41.7415C22.5283 41.7415 22.6823 41.6129 22.7078 41.4068C22.7127 41.3627 22.7084 41.318 22.6953 41.2755C22.6822 41.2331 22.6606 41.1938 22.6317 41.1601C22.6028 41.1263 22.5673 41.0988 22.5274 41.0793C22.4875 41.0598 22.4441 41.0487 22.3997 41.0466L20.0059 40.866C19.8253 40.866 19.6712 41.0211 19.6446 41.2018L19.6457 41.2007Z" fill="white"/>
<path d="M26.0791 39.5538C26.0581 39.6508 26.0015 39.7364 25.9204 39.7936C25.8394 39.8509 25.7398 39.8756 25.6414 39.863L20.3661 38.7824C20.1599 38.7304 20.0314 38.5508 20.0834 38.3447C20.1044 38.248 20.161 38.1627 20.2418 38.1056C20.3227 38.0486 20.422 38.0239 20.5201 38.0366L25.7954 39.0916C25.9761 39.1426 26.1036 39.3487 26.0791 39.5538Z" fill="#F3F3F3"/>
<path d="M26.1036 39.5538C26.0829 39.6578 26.0236 39.7501 25.9377 39.8122C25.8518 39.8743 25.7455 39.9016 25.6403 39.8885L20.3661 38.8335C20.261 38.8084 20.1699 38.7432 20.1121 38.6519C20.0543 38.5607 20.0345 38.4504 20.0569 38.3447C20.0775 38.2407 20.1368 38.1484 20.2227 38.0863C20.3087 38.0242 20.4149 37.997 20.5201 38.01L25.7954 39.0651C26.0016 39.1171 26.1291 39.3222 26.1036 39.5538ZM20.1079 38.3447C20.0938 38.4328 20.112 38.5229 20.1593 38.5985C20.2066 38.6741 20.2797 38.73 20.365 38.7559L25.6414 39.811C25.733 39.825 25.8265 39.8036 25.9029 39.7511C25.9793 39.6985 26.0328 39.6189 26.0526 39.5283C26.0667 39.4402 26.0485 39.3498 26.0012 39.2741C25.954 39.1983 25.8809 39.1422 25.7954 39.1161L20.5201 38.0621C20.314 38.0366 20.1599 38.1652 20.1079 38.3447Z" fill="white"/>
<path d="M23.7607 36.4662C23.7491 36.5154 23.7279 36.5617 23.6983 36.6026C23.6687 36.6436 23.6313 36.6782 23.5882 36.7046C23.5452 36.7309 23.4973 36.7485 23.4474 36.7563C23.3975 36.7641 23.3466 36.7619 23.2975 36.7499L20.9812 36.106C20.7751 36.054 20.6731 35.8489 20.7241 35.6428C20.7358 35.5937 20.7571 35.5475 20.7868 35.5067C20.8165 35.4659 20.8539 35.4314 20.8969 35.4051C20.94 35.3788 20.9878 35.3613 21.0377 35.3536C21.0875 35.3459 21.1384 35.3481 21.1874 35.3602L23.5036 36.003C23.7087 36.055 23.8117 36.2601 23.7607 36.4662Z" fill="#F3F3F3"/>
<path d="M23.7873 36.4662C23.7363 36.6723 23.5047 36.8274 23.2986 36.7499L20.9823 36.106C20.8817 36.076 20.7964 36.0087 20.7439 35.9178C20.6913 35.8269 20.6755 35.7194 20.6997 35.6172C20.7507 35.4111 20.9823 35.256 21.1884 35.3336L23.5047 35.9774C23.7108 36.0284 23.8394 36.2346 23.7873 36.4662ZM20.7772 35.6162C20.7252 35.7968 20.8282 36.0029 21.0089 36.0539L23.3251 36.6978C23.5047 36.7488 23.6842 36.6457 23.7363 36.4407C23.7873 36.2601 23.6842 36.0539 23.5047 36.0029L21.1884 35.3601C21.1004 35.346 21.0102 35.3643 20.9346 35.4116C20.859 35.4588 20.8031 35.5308 20.7772 35.6162Z" fill="white"/>
<path d="M27.3881 35.2316C27.3703 35.2777 27.3433 35.3198 27.3088 35.3553C27.2743 35.3908 27.233 35.419 27.1874 35.4382C27.1418 35.4573 27.0927 35.467 27.0432 35.4668C26.9937 35.4665 26.9448 35.4563 26.8994 35.4366L21.9322 33.3786C21.7516 33.301 21.6496 33.0705 21.7261 32.8898C21.7439 32.8437 21.7709 32.8015 21.8053 32.766C21.8398 32.7305 21.8811 32.7023 21.9267 32.683C21.9723 32.6638 22.0213 32.6539 22.0708 32.6541C22.1203 32.6542 22.1693 32.6643 22.2148 32.6837L27.182 34.7428C27.3881 34.8193 27.4657 35.051 27.3881 35.2316Z" fill="#F3F3F3"/>
<path d="M27.4147 35.2571C27.3768 35.3557 27.3015 35.4353 27.2052 35.4787C27.1089 35.5221 26.9994 35.5257 26.9004 35.4887L21.9343 33.4296C21.7282 33.3531 21.6506 33.1214 21.7282 32.8898C21.766 32.7912 21.8413 32.7115 21.9376 32.6682C22.0339 32.6248 22.1435 32.6212 22.2424 32.6582L27.2096 34.7162C27.3054 34.7643 27.3796 34.8465 27.4176 34.9467C27.4556 35.0468 27.4546 35.1576 27.4147 35.2571ZM21.7792 32.9153C21.7027 33.0959 21.7792 33.301 21.9598 33.3786L26.9259 35.4366C27.1066 35.5142 27.2872 35.4111 27.3637 35.2305C27.3825 35.1883 27.3927 35.1429 27.3938 35.0967C27.3949 35.0505 27.3868 35.0046 27.37 34.9616C27.3532 34.9186 27.328 34.8794 27.2959 34.8462C27.2638 34.813 27.2255 34.7865 27.1831 34.7683L22.2169 32.7092C22.0363 32.6582 21.8312 32.7347 21.7792 32.9153Z" fill="white"/>
<path d="M25.7147 31.7572C25.6127 31.9378 25.4066 32.0143 25.2259 31.9378L23.0903 30.8562C22.9097 30.7797 22.8332 30.5481 22.9362 30.342C23.0393 30.1613 23.2444 30.0848 23.425 30.1613L25.5606 31.243C25.7412 31.346 25.8177 31.5777 25.7147 31.7572Z" fill="#F3F3F3"/>
<path d="M25.7412 31.7837C25.7186 31.8318 25.6863 31.8748 25.6466 31.9101C25.6068 31.9454 25.5603 31.9722 25.5098 31.989C25.4593 32.0058 25.406 32.0122 25.353 32.0078C25.3 32.0033 25.2485 31.9882 25.2015 31.9633L23.0659 30.8827C23.0175 30.8602 22.9743 30.828 22.9388 30.7882C22.9033 30.7483 22.8763 30.7017 22.8594 30.6511C22.8425 30.6005 22.8361 30.547 22.8405 30.4939C22.845 30.4407 22.8602 30.389 22.8852 30.3419C22.9078 30.2936 22.94 30.2504 22.9798 30.2149C23.0196 30.1794 23.0663 30.1524 23.1169 30.1355C23.1675 30.1186 23.221 30.1122 23.2741 30.1166C23.3273 30.121 23.379 30.1362 23.4261 30.1613L25.5617 31.2429C25.7678 31.3194 25.8443 31.5776 25.7423 31.7827L25.7412 31.7837ZM22.9628 30.3674C22.8852 30.5481 22.9373 30.7531 23.1169 30.8307L25.2525 31.9112C25.4076 31.9888 25.6137 31.9112 25.7157 31.7572C25.7933 31.5766 25.7412 31.3715 25.5617 31.2939L23.3995 30.2134C23.3609 30.1933 23.3186 30.1813 23.2752 30.1782C23.2318 30.1751 23.1882 30.181 23.1472 30.1954C23.1062 30.2099 23.0685 30.2326 23.0366 30.2622C23.0047 30.2918 22.9792 30.3276 22.9617 30.3674H22.9628Z" fill="white"/>
<path d="M29.5004 31.2685C29.3729 31.4491 29.1668 31.5001 28.9861 31.3715L24.5343 28.4125C24.3536 28.3094 24.3292 28.0778 24.4312 27.8972C24.4559 27.8539 24.4896 27.8165 24.53 27.7874C24.5704 27.7583 24.6166 27.7382 24.6654 27.7284C24.7142 27.7186 24.7646 27.7194 24.8131 27.7308C24.8616 27.7421 24.9071 27.7637 24.9465 27.7941L29.4239 30.7797C29.5779 30.8828 29.63 31.1144 29.5004 31.2685Z" fill="#F3F3F3"/>
<path d="M29.5237 31.294C29.4605 31.3796 29.3687 31.4396 29.265 31.4632C29.1613 31.4868 29.0525 31.4724 28.9585 31.4225L24.5066 28.4369C24.4181 28.3755 24.3576 28.2815 24.3383 28.1756C24.319 28.0696 24.3424 27.9603 24.4036 27.8717C24.4669 27.786 24.559 27.7259 24.6629 27.7023C24.7668 27.6787 24.8757 27.6932 24.9699 27.7431L29.4217 30.7287C29.6268 30.8562 29.6534 31.1144 29.5237 31.294ZM24.4556 27.8972C24.3526 28.0512 24.3781 28.2828 24.5321 28.3859L29.0095 31.3715C29.0466 31.3953 29.0881 31.4115 29.1316 31.4192C29.175 31.4269 29.2195 31.4259 29.2625 31.4163C29.3056 31.4067 29.3463 31.3887 29.3824 31.3634C29.4185 31.338 29.4492 31.3058 29.4727 31.2685C29.5758 31.1144 29.5503 30.8828 29.3962 30.7797L24.9178 27.7941C24.8427 27.7464 24.7517 27.7304 24.6649 27.7498C24.578 27.7691 24.5034 27.8221 24.4556 27.8972Z" fill="white"/>
<path d="M28.5462 27.537C28.4177 27.6921 28.185 27.7431 28.032 27.6145L26.1535 26.1483C26.0786 26.0866 26.0311 25.9979 26.0213 25.9013C26.0116 25.8048 26.0404 25.7083 26.1014 25.633C26.23 25.4789 26.4627 25.4268 26.6167 25.5554L28.4942 27.0216C28.6493 27.1513 28.6748 27.3829 28.5462 27.537Z" fill="#F3F3F3"/>
<path d="M28.5739 27.5624C28.4453 27.7431 28.1882 27.7686 28.0076 27.64L26.1291 26.1738C25.9484 26.0452 25.9229 25.787 26.0515 25.6074C26.1811 25.4268 26.4383 25.4013 26.6178 25.5309L28.4963 26.9972C28.6769 27.1258 28.7024 27.3818 28.5739 27.5624ZM26.1036 25.6329C25.975 25.787 26.0005 25.9931 26.1546 26.1217L28.0331 27.5879C28.1092 27.639 28.2018 27.6595 28.2924 27.6453C28.383 27.6311 28.4649 27.5833 28.5218 27.5114C28.6514 27.3574 28.6249 27.1513 28.4708 27.0227L26.5923 25.5564C26.5162 25.5054 26.4236 25.4849 26.333 25.4991C26.2424 25.5132 26.1605 25.561 26.1036 25.6329Z" fill="white"/>
<path d="M32.3819 27.7941C32.2267 27.9492 31.9951 27.9492 31.8666 27.7941L28.0331 24.0116C27.9651 23.9433 27.9269 23.8508 27.9269 23.7544C27.9269 23.6581 27.9651 23.5656 28.0331 23.4973C28.1871 23.3433 28.4187 23.3433 28.5473 23.4973L32.3553 27.2798C32.4264 27.3448 32.4691 27.4353 32.4741 27.5315C32.4791 27.6277 32.4459 27.7221 32.3819 27.7941Z" fill="#F3F3F3"/>
<path d="M32.3797 27.8207C32.3042 27.895 32.2025 27.9366 32.0966 27.9366C31.9906 27.9366 31.889 27.895 31.8134 27.8207L28.0044 24.0382C27.9298 23.9626 27.8879 23.8607 27.8879 23.7545C27.8879 23.6483 27.9298 23.5464 28.0044 23.4708C28.0799 23.3965 28.1816 23.3549 28.2875 23.3549C28.3935 23.3549 28.4952 23.3965 28.5707 23.4708L32.3797 27.2533C32.5604 27.4084 32.5604 27.6666 32.3797 27.8207ZM28.0564 23.5229C27.9943 23.589 27.9597 23.6764 27.9597 23.7672C27.9597 23.858 27.9943 23.9454 28.0564 24.0116L31.8655 27.7941C31.9317 27.8563 32.0191 27.8909 32.1099 27.8909C32.2007 27.8909 32.2881 27.8563 32.3542 27.7941C32.4164 27.7279 32.451 27.6405 32.451 27.5497C32.451 27.4589 32.4164 27.3715 32.3542 27.3054L28.5462 23.4974C28.4177 23.3688 28.2094 23.3688 28.0564 23.5229Z" fill="white"/>
<path d="M32.1492 23.9606C31.9951 24.0892 31.7635 24.0892 31.6349 23.9351L30.0646 22.1331C30.0037 22.0577 29.9751 21.9614 29.985 21.865C29.995 21.7686 30.0427 21.6801 30.1177 21.6188C30.2707 21.4903 30.5023 21.4903 30.6309 21.6443L32.2012 23.4453C32.3287 23.5749 32.3043 23.8065 32.1492 23.9606Z" fill="#F3F3F3"/>
<path d="M32.1747 23.9606C32.0959 24.0316 31.9923 24.0687 31.8863 24.0639C31.7803 24.0591 31.6805 24.0129 31.6084 23.9351L30.0391 22.1331C29.8839 21.979 29.9094 21.7219 30.0901 21.5678C30.1689 21.4968 30.2725 21.4597 30.3784 21.4645C30.4844 21.4692 30.5843 21.5155 30.6564 21.5933L32.2257 23.3942C32.3543 23.5749 32.3543 23.832 32.1747 23.9606ZM30.1156 21.6188C29.9615 21.7474 29.9615 21.9535 30.0646 22.1076L31.6339 23.9085C31.6968 23.9742 31.7824 24.0134 31.8732 24.0182C31.964 24.0229 32.0532 23.9928 32.1226 23.934C32.2778 23.8065 32.2778 23.6004 32.1747 23.4452L30.6043 21.6443C30.4768 21.4902 30.2696 21.4902 30.1156 21.6188Z" fill="white"/>
<path d="M35.8552 24.9381C35.8157 24.9685 35.7702 24.9901 35.7218 25.0014C35.6733 25.0128 35.6229 25.0136 35.5741 25.0038C35.5253 24.994 35.4791 24.9739 35.4387 24.9448C35.3983 24.9157 35.3646 24.8783 35.3399 24.835L32.3298 20.3832C32.2267 20.2025 32.2777 19.972 32.4329 19.8689C32.4723 19.8387 32.5177 19.8173 32.5661 19.806C32.6145 19.7948 32.6647 19.794 32.7134 19.8038C32.7621 19.8136 32.8081 19.8336 32.8484 19.8626C32.8887 19.8916 32.9224 19.9289 32.9471 19.972L35.9327 24.4238C35.962 24.4625 35.9832 24.5066 35.9952 24.5536C36.0071 24.6005 36.0095 24.6494 36.0023 24.6973C35.9951 24.7452 35.9783 24.7912 35.9531 24.8326C35.9278 24.8739 35.8945 24.9098 35.8552 24.9381Z" fill="#F3F3F3"/>
<path d="M35.8562 24.9636C35.7671 25.0242 35.6576 25.0474 35.5515 25.0282C35.4453 25.0089 35.351 24.9487 35.2889 24.8605L32.3043 20.4086C32.2736 20.3637 32.2525 20.3129 32.2423 20.2595C32.2322 20.206 32.2331 20.151 32.2452 20.0979C32.2573 20.0449 32.2802 19.9949 32.3125 19.9511C32.3448 19.9073 32.3858 19.8706 32.4329 19.8434C32.522 19.783 32.6312 19.76 32.7371 19.7793C32.8429 19.7986 32.9371 19.8586 32.9992 19.9464L35.9848 24.3983C36.016 24.4432 36.0374 24.494 36.0477 24.5476C36.0581 24.6012 36.0571 24.6564 36.0449 24.7096C36.0327 24.7628 36.0095 24.8129 35.9769 24.8566C35.9442 24.9003 35.9028 24.9368 35.8552 24.9636H35.8562ZM32.4584 19.8954C32.4212 19.919 32.3891 19.9497 32.3638 19.9856C32.3386 20.0216 32.3206 20.0623 32.3111 20.1052C32.3015 20.1481 32.3005 20.1925 32.3081 20.2358C32.3157 20.2791 32.3317 20.3205 32.3553 20.3576L35.3409 24.8095C35.444 24.9636 35.6491 24.9901 35.8297 24.8871C35.867 24.8635 35.8992 24.8328 35.9246 24.7967C35.9499 24.7606 35.9679 24.7199 35.9775 24.6769C35.9871 24.6338 35.9881 24.5893 35.9804 24.5459C35.9727 24.5024 35.9565 24.461 35.9327 24.4238L32.9471 19.9974C32.8938 19.9217 32.8137 19.8689 32.723 19.8498C32.6323 19.8307 32.5378 19.8466 32.4584 19.8944V19.8954Z" fill="white"/>
<path d="M36.3949 21.1301C36.3527 21.1556 36.3058 21.1724 36.257 21.1798C36.2082 21.1871 36.1585 21.1847 36.1106 21.1727C36.0627 21.1608 36.0177 21.1395 35.9781 21.1102C35.9384 21.0808 35.905 21.0439 35.8796 21.0015L34.696 18.9169C34.5929 18.7363 34.6705 18.5057 34.8511 18.4027C34.9363 18.3515 35.0382 18.3362 35.1346 18.3601C35.231 18.384 35.314 18.4452 35.3654 18.5302L36.549 20.6148C36.6266 20.7954 36.5745 21.027 36.3949 21.1301Z" fill="#F3F3F3"/>
<path d="M36.396 21.1556C36.1909 21.2586 35.9593 21.2076 35.8563 21.027L34.6726 18.9424C34.5696 18.7617 34.6206 18.5046 34.8267 18.4026C35.0328 18.2996 35.2644 18.3506 35.3675 18.5301L36.5511 20.6147C36.6542 20.7954 36.6011 21.027 36.396 21.1556ZM34.8522 18.4281C34.6981 18.5312 34.6206 18.7362 34.7247 18.8914L35.9073 20.9749C36.0103 21.129 36.2154 21.1811 36.3705 21.1046C36.5256 21.0015 36.6021 20.7954 36.4991 20.6413L35.3154 18.5567C35.2389 18.4026 35.0073 18.3251 34.8522 18.4281Z" fill="white"/>
<path d="M39.8183 22.828C39.6122 22.9055 39.4061 22.828 39.3296 22.6473L37.2449 17.6812C37.1674 17.5006 37.2704 17.27 37.4511 17.1925C37.6572 17.116 37.8622 17.1925 37.9398 17.3731L40.0244 22.3392C40.1009 22.5198 39.9989 22.7504 39.8183 22.828Z" fill="#F3F3F3"/>
<path d="M39.8172 22.8535C39.7178 22.893 39.6072 22.8937 39.5072 22.8555C39.4073 22.8174 39.3253 22.7431 39.2775 22.6474L37.1929 17.6823C37.1552 17.5832 37.1585 17.4733 37.202 17.3767C37.2454 17.28 37.3254 17.2046 37.4245 17.167C37.5241 17.1272 37.6349 17.1263 37.7351 17.1645C37.8353 17.2027 37.9175 17.2771 37.9653 17.3731L40.0489 22.3392C40.1264 22.5199 40.0234 22.7504 39.8183 22.8545L39.8172 22.8535ZM37.4766 17.218C37.2959 17.2955 37.2184 17.5017 37.2959 17.6557L39.3806 22.6219C39.4571 22.8025 39.6632 22.879 39.8427 22.8025C40.0234 22.7249 40.1009 22.5188 40.0234 22.3647L37.9387 17.3986C37.8357 17.218 37.6572 17.1404 37.4766 17.218Z" fill="white"/>
<path d="M41.0795 19.174C40.8734 19.2516 40.6673 19.1485 40.5908 18.9424L39.8438 16.6782C39.7673 16.4976 39.8959 16.266 40.0754 16.215C40.2561 16.1629 40.4877 16.2405 40.5642 16.4466L41.3111 18.7108C41.3876 18.8914 41.2856 19.0975 41.0795 19.174Z" fill="#F3F3F3"/>
<path d="M41.105 19.1995C41.0061 19.2365 40.8965 19.2329 40.8002 19.1895C40.7039 19.1462 40.6286 19.0665 40.5908 18.9679L39.8438 16.7037C39.7673 16.4976 39.8959 16.2659 40.102 16.1894C40.2009 16.1524 40.3105 16.156 40.4068 16.1994C40.5031 16.2428 40.5784 16.3224 40.6163 16.4211L41.3621 18.6852C41.3886 18.7876 41.3771 18.896 41.3298 18.9905C41.2826 19.085 41.2027 19.1593 41.105 19.1995ZM40.1009 16.2404C39.9203 16.2914 39.8183 16.4976 39.8693 16.6782L40.6163 18.9424C40.6673 19.123 40.8734 19.1995 41.054 19.1485C41.2346 19.0975 41.3366 18.8914 41.2846 18.7107L40.5387 16.4466C40.5257 16.4027 40.5036 16.3622 40.4739 16.3275C40.4441 16.2928 40.4074 16.2648 40.366 16.2454C40.3247 16.2259 40.2797 16.2154 40.234 16.2146C40.1883 16.2137 40.143 16.2225 40.1009 16.2404Z" fill="white"/>
<path d="M44.1161 21.5158C43.91 21.5678 43.7039 21.4382 43.6784 21.2321L42.5978 15.9578C42.5457 15.7517 42.7009 15.5711 42.9059 15.5201C43.1121 15.468 43.3182 15.5966 43.3437 15.8038L44.4242 21.0791C44.4331 21.1766 44.407 21.2741 44.3505 21.3541C44.2941 21.4341 44.211 21.4914 44.1161 21.5158Z" fill="#F3F3F3"/>
<path d="M44.1161 21.5413C44.0106 21.5637 43.9005 21.544 43.8092 21.4865C43.7179 21.4289 43.6527 21.3381 43.6274 21.2332L42.5458 15.9579C42.4948 15.7517 42.6488 15.5201 42.8539 15.4946C42.9594 15.4722 43.0695 15.4919 43.1608 15.5494C43.2521 15.607 43.3173 15.6979 43.3426 15.8027L44.4243 21.0791C44.4763 21.2842 44.3478 21.4903 44.1161 21.5413ZM42.9059 15.5456C42.7253 15.5711 42.5978 15.7517 42.6233 15.9579L43.7039 21.2332C43.7294 21.4127 43.9355 21.5413 44.1161 21.4903C44.2957 21.4648 44.4243 21.2842 44.3988 21.078L43.3182 15.8027C43.2921 15.7173 43.236 15.6442 43.1602 15.597C43.0844 15.5497 42.9941 15.5315 42.9059 15.5456Z" fill="white"/>
<path d="M46.0701 18.171C45.9716 18.1839 45.8719 18.1592 45.7908 18.1019C45.7097 18.0446 45.6531 17.9589 45.6323 17.8618L45.3242 15.4946C45.3138 15.3957 45.3431 15.2967 45.4056 15.2194C45.4682 15.1421 45.5589 15.0928 45.6578 15.0823C45.7563 15.0694 45.856 15.0941 45.9371 15.1514C46.0182 15.2087 46.0748 15.2944 46.0956 15.3915L46.4037 17.7588C46.4141 17.8577 46.3848 17.9567 46.3222 18.034C46.2597 18.1113 46.169 18.1606 46.0701 18.171Z" fill="#F3F3F3"/>
<path d="M46.0701 18.1965C45.8384 18.222 45.6334 18.068 45.6068 17.8618L45.2987 15.4946C45.2936 15.4422 45.2988 15.3893 45.3141 15.3389C45.3295 15.2886 45.3546 15.2417 45.388 15.201C45.4215 15.1604 45.4626 15.1267 45.5091 15.102C45.5556 15.0772 45.6065 15.0619 45.6589 15.0568C45.8905 15.0313 46.0966 15.1854 46.1221 15.3915L46.4302 17.7588C46.4354 17.8112 46.4301 17.8641 46.4148 17.9144C46.3995 17.9648 46.3744 18.0117 46.3409 18.0523C46.3075 18.093 46.2663 18.1266 46.2198 18.1514C46.1734 18.1761 46.1225 18.1915 46.0701 18.1965ZM45.6844 15.1089C45.5037 15.1344 45.3497 15.314 45.3762 15.4946L45.6844 17.8618C45.7099 18.0425 45.8905 18.17 46.0701 18.1445C46.2507 18.119 46.4047 17.9383 46.3792 17.7588L46.0711 15.3915C46.0557 15.3035 46.0068 15.225 45.9347 15.1723C45.8626 15.1196 45.7729 15.0968 45.6844 15.1089Z" fill="white"/>
<path d="M48.8517 74.5494C65.6785 74.5494 79.3189 60.909 79.3189 44.0833C79.3189 27.2565 65.6785 13.6161 48.8517 13.6161C32.0249 13.6161 18.3845 27.2565 18.3845 44.0833C18.3845 60.9101 32.0249 74.5494 48.8517 74.5494Z" fill="url(#paint2_linear_1_88)" fill-opacity="0.2"/>
<path d="M69.9497 24.7585L45.3741 40.5059H45.3486V40.5314L45.3231 40.5579L29.987 65.8529L52.529 47.7117L52.5545 47.6862V47.6607L69.9497 24.7585Z" fill="black" fill-opacity="0.05"/>
<path d="M69.4876 23.2912L45.1956 40.5568L52.4015 47.7117L69.4876 23.2912Z" fill="#CD151E"/>
<path d="M45.2211 40.5069L48.8496 44.0833L69.4865 23.2912L45.2211 40.5069Z" fill="#FA5153"/>
<path d="M45.2222 40.5069L52.427 47.6597L28.1361 64.9264L45.2222 40.5069Z" fill="#ACACAC"/>
<path d="M28.1361 64.9264L48.8506 44.0833L45.2222 40.5059L28.1361 64.9264Z" fill="#EEEEEE"/>
</g>
</g>
</g>
<defs>
<filter id="filter0_d_1_88" x="0.329998" y="0.300014" width="96.68" height="96.68" filterUnits="userSpaceOnUse" color-interpolation-filters="sRGB">
<feFlood flood-opacity="0" result="BackgroundImageFix"/>
<feColorMatrix in="SourceAlpha" type="matrix" values="0 0 0 0 0 0 0 0 0 0 0 0 0 0 0 0 0 0 127 0" result="hardAlpha"/>
<feOffset dy="4"/>
<feGaussianBlur stdDeviation="2.92"/>
<feComposite in2="hardAlpha" operator="out"/>
<feColorMatrix type="matrix" values="0 0 0 0 0.501961 0 0 0 0 0.501961 0 0 0 0 0.501961 0 0 0 0.35 0"/>
<feBlend mode="normal" in2="BackgroundImageFix" result="effect1_dropShadow_1_88"/>
<feBlend mode="normal" in="SourceGraphic" in2="effect1_dropShadow_1_88" result="shape"/>
</filter>
<linearGradient id="paint0_linear_1_88" x1="48.67" y1="77.0463" x2="48.67" y2="11.1713" gradientUnits="userSpaceOnUse">
<stop offset="0.25" stop-color="#DBDBDA"/>
<stop offset="1" stop-color="white"/>
</linearGradient>
<radialGradient id="paint1_radial_1_88" cx="0" cy="0" r="1" gradientUnits="userSpaceOnUse" gradientTransform="translate(52.9498 37.4161) scale(37.1895)">
<stop stop-color="#2ABCE1"/>
<stop offset="0.114" stop-color="#2ABBE1"/>
<stop offset="1" stop-color="#3375F8"/>
</radialGradient>
<linearGradient id="paint2_linear_1_88" x1="48.2726" y1="35.3708" x2="34.0521" y2="60.8835" gradientUnits="userSpaceOnUse">
<stop stop-opacity="0"/>
<stop offset="1"/>
</linearGradient>
<clipPath id="clip0_1_88">
<rect x="6.17" y="2.14001" width="85" height="85" rx="22" fill="white"/>
</clipPath>
<clipPath id="clip1_1_88">
<rect width="85" height="85" fill="white" transform="translate(6.17 2.14001)"/>
</clipPath>
</defs>
</svg>
